SplineFontDB: 3.0
FontName: Overpass-Heavy
FullName: Overpass Heavy
FamilyName: Overpass Heavy
Weight: Heavy
Copyright: Copyright \\(c\\) 2016 by Red Hat, Inc. All rights reserved.
Version: 003.002
ItalicAngle: 0
UnderlinePosition: -72
UnderlineWidth: 106
Ascent: 750
Descent: 250
InvalidEm: 0
sfntRevision: 0x00030083
LayerCount: 2
Layer: 0 0 "Back" 1
Layer: 1 0 "Fore" 0
XUID: [1021 1017 285194369 20479]
StyleMap: 0x0040
FSType: 0
OS2Version: 4
OS2_WeightWidthSlopeOnly: 0
OS2_UseTypoMetrics: 1
CreationTime: 1480942628
ModificationTime: 1511879901
PfmFamily: 81
TTFWeight: 900
TTFWidth: 5
LineGap: 266
VLineGap: 0
Panose: 0 0 10 0 0 0 0 0 0 0
OS2TypoAscent: 750
OS2TypoAOffset: 0
OS2TypoDescent: -250
OS2TypoDOffset: 0
OS2TypoLinegap: 266
OS2WinAscent: 1062
OS2WinAOffset: 0
OS2WinDescent: 378
OS2WinDOffset: 0
HheadAscent: 982
HheadAOffset: 0
HheadDescent: -284
HheadDOffset: 0
OS2SubXSize: 650
OS2SubYSize: 600
OS2SubXOff: 0
OS2SubYOff: 75
OS2SupXSize: 650
OS2SupYSize: 600
OS2SupXOff: 0
OS2SupYOff: 350
OS2StrikeYSize: 106
OS2StrikeYPos: 306
OS2CapHeight: 700
OS2XHeight: 511
OS2Vendor: 'DELV'
OS2CodePages: 20000093.00000000
OS2UnicodeRanges: 00000003.00000020.00000000.00000000
Lookup: 1 0 0 "'aalt' Access All Alternates in Latin lookup 0" { "'aalt' Access All Alternates in Latin lookup 0 subtable"  } ['aalt' ('DFLT' <'dflt' > 'latn' <'AZE ' 'CAT ' 'CRT ' 'KAZ ' 'MOL ' 'NLD ' 'ROM ' 'TAT ' 'TRK ' 'dflt' > ) ]
Lookup: 3 0 0 "'aalt' Access All Alternates in Latin lookup 1" { "'aalt' Access All Alternates in Latin lookup 1 subtable"  } ['aalt' ('DFLT' <'dflt' > 'latn' <'AZE ' 'CAT ' 'CRT ' 'KAZ ' 'MOL ' 'NLD ' 'ROM ' 'TAT ' 'TRK ' 'dflt' > ) ]
Lookup: 6 0 0 "'locl' Localized Forms in Latin lookup 2" { "'locl' Localized Forms in Latin lookup 2 contextual 0"  "'locl' Localized Forms in Latin lookup 2 contextual 1"  } ['locl' ('latn' <'NLD ' > ) ]

StartChar: Eth
Encoding: 257 208 1
Width: 724
Flags: MW
HStem: 0 145<227 329> 279 142<14 75 14 75 227 366> 556 144<227 333 333 356 227 227>
VStem: 75 152<145 279 145 279 145 279 421 556> 517 158<302.5 399.5>
LayerCount: 2
Fore
SplineSet
75 279 m 1
 14 279 l 1
 14 421 l 1
 75 421 l 1
 75 700 l 1
 333 700 l 2
 578 700 675 525 675 350 c 0
 675 191 586 0 329 0 c 2
 75 0 l 1
 75 279 l 1
345 145 m 2
 470 145 517 255 517 350 c 0
 517 449 467 556 356 556 c 2
 227 556 l 1
 227 421 l 1
 366 421 l 1
 366 279 l 1
 227 279 l 1
 227 145 l 1
 345 145 l 2
EndSplineSet
Position2: "'cpsp' Capital Spacing in Latin lookup 0 subtable" dx=5 dy=0 dh=10 dv=0
EndChar

StartChar: eth
Encoding: 258 240 2
Width: 572
Flags: MW
HStem: -12 140<261.5 313 261.5 364.5> 316 136<260.5 288.5 200.5 312> 584 128<122 122>
VStem: 50 145<194 250.5 194 283> 377 145<193.5 250>
LayerCount: 2
Fore
SplineSet
287 -12 m 0
 148 -12 50 86 50 221 c 0
 50 345 132 452 269 452 c 0
 308 452 340 442 360 426 c 1
 350 465 332 502 302 529 c 1
 250 474 l 1
 173 544 l 1
 203 575 l 1
 179 580 153 583 122 584 c 1
 122 712 l 1
 194 710 253 698 302 678 c 1
 360 738 l 1
 435 667 l 1
 393 624 l 1
 487 544 522 416 522 275 c 0
 522 109 442 -12 287 -12 c 0
287 128 m 0
 339 128 377 167 377 220 c 0
 377 280 338 316 286 316 c 0
 235 316 195 280 195 221 c 0
 195 167 236 128 287 128 c 0
EndSplineSet
EndChar

StartChar: Lslash
Encoding: 259 321 3
Width: 570
Flags: MW
HStem: 0 147<227 563 227 563> 680 20G<75 227 227 227>
VStem: 75 152<147 193 193 193 471 700>
LayerCount: 2
Fore
SplineSet
75 0 m 1
 75 193 l 1
 11 143 l 1
 11 310 l 1
 75 358 l 1
 75 700 l 1
 227 700 l 1
 227 471 l 1
 380 587 l 1
 380 422 l 1
 227 307 l 1
 227 147 l 1
 563 147 l 1
 563 0 l 1
 75 0 l 1
EndSplineSet
Position2: "'cpsp' Capital Spacing in Latin lookup 0 subtable" dx=5 dy=0 dh=10 dv=0
EndChar

StartChar: lslash
Encoding: 260 322 4
Width: 305
Flags: MW
HStem: 0 21G<78 78 78 223>
VStem: 78 145<0 193 193 193 450 654 654 654>
LayerCount: 2
Fore
SplineSet
78 0 m 1
 78 193 l 1
 26 153 l 1
 26 300 l 1
 78 340 l 1
 78 654 l 1
 223 722 l 1
 223 450 l 1
 279 491 l 1
 279 344 l 1
 223 303 l 1
 223 0 l 1
 78 0 l 1
EndSplineSet
EndChar

StartChar: Scaron
Encoding: 261 352 5
Width: 621
GlyphClass: 2
Flags: MW
HStem: -12 144<288 351.5 288 389> 568 144<272.5 331.5> 765 156<99 376 99 240>
VStem: 63 152<493 529.5 493 568> 425 152<180 228.5>
AnchorPoint: "Anchor-0" 312 0 basechar 0
LayerCount: 2
Fore
SplineSet
376 765 m 1
 240 765 l 1
 99 921 l 1
 230 921 l 1
 309 858 l 1
 387 921 l 1
 518 921 l 1
 376 765 l 1
316 -12 m 0
 180 -12 77 65 35 193 c 1
 171 244 l 1
 202 178 256 132 320 132 c 0
 383 132 425 156 425 204 c 0
 425 253 365 272 292 295 c 0
 187 329 63 368 63 514 c 0
 63 622 152 712 308 712 c 0
 437 712 524 636 551 537 c 1
 415 493 l 1
 396 536 363 568 300 568 c 0
 245 568 215 548 215 511 c 0
 215 475 269 458 334 436 c 0
 440 402 577 358 577 203 c 0
 577 67 462 -12 316 -12 c 0
EndSplineSet
Position2: "'cpsp' Capital Spacing in Latin lookup 0 subtable" dx=5 dy=0 dh=10 dv=0
EndChar

StartChar: scaron
Encoding: 262 353 6
Width: 505
GlyphClass: 2
Flags: MW
HStem: -12 119<228.5 275 228.5 312> 404 119<229 263.5> 576 156<39 316 39 180>
VStem: 57 130<359.5 382 359.5 424.5> 325 130<132.5 159.5>
AnchorPoint: "Anchor-0" 250 0 basechar 0
LayerCount: 2
Fore
SplineSet
316 576 m 1
 180 576 l 1
 39 732 l 1
 170 732 l 1
 249 669 l 1
 327 732 l 1
 458 732 l 1
 316 576 l 1
250 -12 m 0
 166 -12 82 26 40 85 c 1
 133 164 l 1
 154 143 203 107 254 107 c 0
 296 107 325 118 325 147 c 0
 325 172 299 184 238 207 c 0
 121 246 57 285 57 378 c 0
 57 471 144 523 247 523 c 0
 337 523 399 483 439 438 c 1
 345 361 l 1
 307 396 280 404 247 404 c 0
 211 404 187 393 187 371 c 0
 187 348 234 328 287 315 c 1
 363 290 455 254 455 147 c 0
 455 45 374 -12 250 -12 c 0
EndSplineSet
EndChar

StartChar: Yacute
Encoding: 263 221 7
Width: 707
GlyphClass: 2
Flags: MW
HStem: 0 21G<278 278 278 429> 680 20G<12 184 184 184 523 695 695 695> 765 156<232 547 232 547>
VStem: 278 151<0 272 0 272>
AnchorPoint: "Anchor-0" 354 0 basechar 0
LayerCount: 2
Fore
SplineSet
232 765 m 1
 374 921 l 1
 547 921 l 1
 369 765 l 1
 232 765 l 1
278 0 m 1
 278 272 l 1
 12 700 l 1
 184 700 l 1
 354 434 l 1
 523 700 l 1
 695 700 l 1
 429 272 l 1
 429 0 l 1
 278 0 l 1
EndSplineSet
Position2: "'cpsp' Capital Spacing in Latin lookup 0 subtable" dx=5 dy=0 dh=10 dv=0
EndChar

StartChar: yacute
Encoding: 264 253 8
Width: 588
GlyphClass: 2
Flags: MW
HStem: 491 20G<25 175 175 175 414 563 563 563> 576 156<154 469 154 469>
VStem: 25 538<511 511>
AnchorPoint: "Anchor-0" 295 0 basechar 0
LayerCount: 2
Fore
SplineSet
154 576 m 1
 296 732 l 1
 469 732 l 1
 291 576 l 1
 154 576 l 1
141 -194 m 1
 218 6 l 1
 25 511 l 1
 175 511 l 1
 279 238 l 2
 284 225 291 206 295 190 c 1
 299 206 306 225 311 238 c 2
 414 511 l 1
 563 511 l 1
 291 -194 l 1
 141 -194 l 1
EndSplineSet
EndChar

StartChar: Thorn
Encoding: 265 222 9
Width: 653
Flags: MW
HStem: 0 21G<75 75 75 227> 131 144<227 387 227 391> 437 144<227 387 387 391 227 387> 680 20G<75 227 227 227>
VStem: 75 152<0 131 0 275 275 437 581 700> 471 158<337 373.5>
LayerCount: 2
Fore
SplineSet
75 0 m 1
 75 700 l 1
 227 700 l 1
 227 581 l 1
 387 581 l 2
 566 581 629 467 629 356 c 0
 629 252 560 131 387 131 c 2
 227 131 l 1
 227 0 l 1
 75 0 l 1
391 275 m 2
 449 275 471 318 471 356 c 0
 471 391 452 437 391 437 c 2
 227 437 l 1
 227 275 l 1
 391 275 l 2
EndSplineSet
Position2: "'cpsp' Capital Spacing in Latin lookup 0 subtable" dx=5 dy=0 dh=10 dv=0
EndChar

StartChar: thorn
Encoding: 266 254 10
Width: 576
Flags: MW
HStem: -12 140<290 319.5 269.5 374> 383 140<290.5 321.5> 692 20G<212 212>
VStem: 67 145<-126 33 -126 161 161 352 476 643 643 643> 381 145<215 294.5>
LayerCount: 2
Fore
SplineSet
313 -12 m 0
 267 -12 234 5 212 33 c 1
 212 -126 l 1
 67 -195 l 1
 67 643 l 1
 212 712 l 1
 212 476 l 1
 233 505 266 523 315 523 c 0
 441 523 526 431 526 255 c 0
 526 87 435 -12 313 -12 c 0
291 128 m 0
 348 128 381 175 381 255 c 0
 381 334 352 383 291 383 c 0
 250 383 229 370 212 352 c 1
 212 161 l 1
 219 145 248 128 291 128 c 0
EndSplineSet
EndChar

StartChar: Zcaron
Encoding: 267 381 11
Width: 635
GlyphClass: 2
Flags: MW
HStem: 0 144<238 586 238 586> 556 144<61 384 61 586> 765 156<126 403 126 267>
VStem: 40 546<0 114 114 114>
AnchorPoint: "Anchor-0" 319 0 basechar 0
LayerCount: 2
Fore
SplineSet
403 765 m 1
 267 765 l 1
 126 921 l 1
 257 921 l 1
 336 858 l 1
 414 921 l 1
 545 921 l 1
 403 765 l 1
40 0 m 1
 40 114 l 1
 384 556 l 1
 61 556 l 1
 61 700 l 1
 586 700 l 1
 586 587 l 1
 238 144 l 1
 586 144 l 1
 586 0 l 1
 40 0 l 1
EndSplineSet
Position2: "'cpsp' Capital Spacing in Latin lookup 0 subtable" dx=5 dy=0 dh=10 dv=0
EndChar

StartChar: zcaron
Encoding: 268 382 12
Width: 563
GlyphClass: 2
Flags: MW
HStem: 0 130<244 502 244 502> 382 129<73 315 73 503> 576 156<84 361 84 225>
VStem: 55 448<0 511 112 511>
AnchorPoint: "Anchor-0" 281 0 basechar 0
LayerCount: 2
Fore
SplineSet
361 576 m 1
 225 576 l 1
 84 732 l 1
 215 732 l 1
 294 669 l 1
 372 732 l 1
 503 732 l 1
 361 576 l 1
55 0 m 1
 55 112 l 1
 315 382 l 1
 73 382 l 1
 73 511 l 1
 503 511 l 1
 503 402 l 1
 244 130 l 1
 502 130 l 1
 502 0 l 1
 55 0 l 1
EndSplineSet
EndChar

StartChar: onehalf
Encoding: 269 189 13
Width: 776
Flags: MW
HStem: -12 21G<16 16 16 159> 0 116<570 737 570 737> 317 112<567.5 590> 580 95<7 30.5 7 56 7 30.5> 580 125<7 182 7 182> 692 20G<494 637 637 637>
VStem: 56 126<283 580 580 580> 609 129<283 299>
LayerCount: 2
Fore
SplineSet
16 -12 m 1xb6
 494 712 l 1
 637 712 l 1
 159 -12 l 1
 16 -12 l 1xb6
56 283 m 1
 56 580 l 1
 7 580 l 1x6b
 7 675 l 1x76
 54 675 72 686 83 705 c 1
 182 705 l 1x6a
 182 283 l 1
 56 283 l 1
421 0 m 1
 421 136 482 209 568 253 c 0
 588 264 609 275 609 291 c 0
 609 307 599 317 581 317 c 0
 554 317 542 302 533 277 c 1
 424 303 l 1
 449 381 505 429 589 429 c 0
 676 429 738 375 738 298 c 0
 738 217 688 189 630 159 c 0
 604 143 580 133 570 116 c 1
 737 116 l 1
 737 0 l 1
 421 0 l 1
EndSplineSet
EndChar

StartChar: onequarter
Encoding: 270 188 14
Width: 738
Flags: MW
HStem: -12 21G<16 16 16 159> 0 177<467 543 467 657> 77 100<467 543 467 543 657 715> 580 95<7 30.5 7 56 7 30.5> 580 125<7 182 7 182> 692 20G<494 637 637 637>
VStem: 56 126<283 580 580 580> 543 114<0 77 0 77 177 278 278 278>
LayerCount: 2
Fore
SplineSet
16 -12 m 1x97
 494 712 l 1
 637 712 l 1
 159 -12 l 1
 16 -12 l 1x97
56 283 m 1
 56 580 l 1
 7 580 l 1x4b
 7 675 l 1x57
 54 675 72 686 83 705 c 1
 182 705 l 1x4b
 182 283 l 1
 56 283 l 1
543 0 m 1
 543 77 l 1
 342 77 l 1
 342 160 l 1x37
 545 421 l 1
 657 421 l 1
 657 177 l 1
 715 177 l 1x57
 715 77 l 1
 657 77 l 1x37
 657 0 l 1
 543 0 l 1
543 177 m 1x57
 543 278 l 1
 467 177 l 1
 543 177 l 1x57
EndSplineSet
EndChar

StartChar: uni00B9
Encoding: 271 185 15
Width: 238
Flags: MW
HStem: 741 125<10 185 10 185>
VStem: 59 126<444 741 741 741>
LayerCount: 2
Fore
SplineSet
59 444 m 1
 59 741 l 1
 10 741 l 1
 10 836 l 1
 56 836 77 849 86 866 c 1
 185 866 l 1
 185 444 l 1
 59 444 l 1
EndSplineSet
EndChar

StartChar: threequarters
Encoding: 272 190 16
Width: 853
Flags: MW
HStem: -12 21G<132 132 132 273> 0 177<582 659 582 773> 77 100<582 659 582 659 773 830> 277 109<160 184.5 160 224.5> 450 100<116 157 157 158 116 157> 603 109<154.5 174.5>
VStem: 116 8 193 120<570.5 584.5> 207 120<410 429> 659 114<0 77 0 77 177 278 278 278>
LayerCount: 2
Fore
SplineSet
173 277 m 0x5ec0
 93 277 38 323 12 400 c 1
 124 428 l 1
 132 398 147 386 173 386 c 0
 196 386 207 402 207 418 c 0
 207 440 194 450 158 450 c 2x5ec0
 116 450 l 1
 116 550 l 1
 157 550 l 2
 186 550 193 562 193 577 c 0
 193 592 184 603 165 603 c 0x5f40
 144 603 133 594 124 574 c 1
 25 611 l 1
 51 677 110 712 178 712 c 0
 263 712 313 654 313 594 c 0
 313 547 285 514 258 501 c 1
 300 489 327 458 327 406 c 0
 327 332 276 277 173 277 c 0x5ec0
132 -12 m 1x9ec0
 610 712 l 1
 751 712 l 1
 273 -12 l 1
 132 -12 l 1x9ec0
659 0 m 1x5ec0
 659 77 l 1
 458 77 l 1
 458 160 l 1x3ec0
 660 421 l 1
 773 421 l 1
 773 177 l 1
 830 177 l 1x5ec0
 830 77 l 1
 773 77 l 1x3ec0
 773 0 l 1
 659 0 l 1x5ec0
659 177 m 1x5ec0
 659 278 l 1
 582 177 l 1
 659 177 l 1x5ec0
EndSplineSet
EndChar

StartChar: uni00B3
Encoding: 273 179 17
Width: 360
Flags: MW
HStem: 438 109<160 184.5 160 224.5> 618 87<124 157 157 158 124 157> 764 109<154.5 174.5>
VStem: 124 189<589 786 618 786 705 786 735 735> 207 120<571 590>
LayerCount: 2
Fore
SplineSet
173 438 m 0xe8
 93 438 38 484 12 561 c 1
 124 589 l 1
 132 561 147 547 173 547 c 0
 196 547 207 563 207 579 c 0
 207 601 194 618 158 618 c 2xe8
 124 618 l 1
 124 705 l 1
 157 705 l 2
 186 705 193 723 193 738 c 0
 193 753 184 764 165 764 c 0
 144 764 133 755 124 735 c 1
 25 772 l 1
 51 838 110 873 178 873 c 0
 263 873 313 817 313 755 c 0xf0
 313 709 287 677 258 662 c 1
 300 650 327 619 327 567 c 0
 327 493 276 438 173 438 c 0xe8
EndSplineSet
EndChar

StartChar: uni00B2
Encoding: 274 178 18
Width: 378
Flags: MW
HStem: 444 116<172 339 172 339> 761 112<169.5 192>
VStem: 211 129<726.5 743>
LayerCount: 2
Fore
SplineSet
23 444 m 1
 23 580 84 653 170 697 c 0
 190 708 211 718 211 735 c 0
 211 751 201 761 183 761 c 0
 156 761 144 748 135 721 c 1
 26 747 l 1
 51 824 107 873 191 873 c 0
 278 873 340 821 340 742 c 0
 340 672 304 648 257 617 c 0
 222 593 183 577 172 560 c 1
 339 560 l 1
 339 444 l 1
 23 444 l 1
EndSplineSet
EndChar

StartChar: brokenbar
Encoding: 275 166 19
Width: 315
Flags: MW
HStem: -225 1050<85 230 85 230>
VStem: 85 145<-225 234 -225 234 366 825>
LayerCount: 2
Fore
SplineSet
85 366 m 1
 85 825 l 1
 230 825 l 1
 230 366 l 1
 85 366 l 1
85 -225 m 1
 85 234 l 1
 230 234 l 1
 230 -225 l 1
 85 -225 l 1
EndSplineSet
EndChar

StartChar: minus
Encoding: 276 8722 20
Width: 630
Flags: MW
HStem: 273 141<80 550 80 550>
VStem: 80 470<273 414 273 414>
LayerCount: 2
Fore
SplineSet
80 273 m 1
 80 414 l 1
 550 414 l 1
 550 273 l 1
 80 273 l 1
EndSplineSet
EndChar

StartChar: multiply
Encoding: 277 215 21
Width: 630
Flags: MW
HStem: 97 492<174 455>
VStem: 69 492<203 485>
LayerCount: 2
Fore
SplineSet
316 241 m 1
 174 97 l 1
 69 203 l 1
 211 344 l 1
 70 487 l 1
 172 588 l 1
 314 447 l 1
 455 589 l 1
 561 485 l 1
 418 342 l 1
 560 201 l 1
 457 98 l 1
 316 241 l 1
EndSplineSet
EndChar

StartChar: exclam
Encoding: 33 33 23
Width: 314
Flags: MW
HStem: -12 21G<128 182> -12 185<128 182> 692 20G<83 228 228 228>
VStem: 63 187<54.5 106> 83 145<484 712 484 712>
LayerCount: 2
Fore
SplineSet
111 193 m 1xa8
 83 484 l 1
 83 712 l 1
 228 712 l 1
 228 484 l 1
 200 193 l 1
 111 193 l 1xa8
155 -12 m 0xb0
 101 -12 63 29 63 80 c 0
 63 132 101 173 155 173 c 0x70
 209 173 250 132 250 80 c 0
 250 29 209 -12 155 -12 c 0xb0
EndSplineSet
EndChar

StartChar: quotedbl
Encoding: 34 34 24
Width: 464
Flags: MW
HStem: 403 297<71 190 71 71 274 274 274 393>
VStem: 45 374<700 700>
LayerCount: 2
Fore
SplineSet
45 700 m 1
 216 700 l 1
 190 403 l 1
 71 403 l 1
 45 700 l 1
249 700 m 1
 419 700 l 1
 393 403 l 1
 274 403 l 1
 249 700 l 1
EndSplineSet
EndChar

StartChar: numbersign
Encoding: 35 35 25
Width: 711
Flags: MW
HStem: 0 21G<118 118 118 246 357 357 357 485> 169 127<60 144 42 163 60 272 291 382 530 612> 423 126<98 182 80 203 98 310 329 420 568 652> 680 20G<223 352 352 352 464 590 590 590>
VStem: 42 627<169 549>
LayerCount: 2
Fore
SplineSet
118 0 m 1
 144 169 l 1
 42 169 l 1
 60 296 l 1
 163 296 l 1
 182 423 l 1
 80 423 l 1
 98 549 l 1
 203 549 l 1
 223 700 l 1
 352 700 l 1
 329 549 l 1
 440 549 l 1
 464 700 l 1
 590 700 l 1
 568 549 l 1
 669 549 l 1
 652 423 l 1
 549 423 l 1
 530 296 l 1
 631 296 l 1
 612 169 l 1
 511 169 l 1
 485 0 l 1
 357 0 l 1
 382 169 l 1
 272 169 l 1
 246 0 l 1
 118 0 l 1
291 296 m 1
 402 296 l 1
 420 423 l 1
 310 423 l 1
 291 296 l 1
EndSplineSet
EndChar

StartChar: dollar
Encoding: 36 36 26
Width: 611
Flags: MW
HStem: -89 221<231 338.5 287.5 338.5 287.5 378> -5 21G<378 378> -1 21G<231 231> 568 215<277.5 322> 683 20G<378 378> 684 20G<231 231>
VStem: 80 156<500.5 536 500.5 562> 231 147<-89 -5 -89 -1 -89 -1 704 783> 396 155<181 230.5>
LayerCount: 2
Fore
SplineSet
231 -89 m 1x85
 231 -1 l 1x25
 141 26 83 93 50 189 c 1
 187 240 l 1
 214 178 261 132 314 132 c 0
 363 132 396 158 396 204 c 0
 396 257 341 278 277 303 c 0
 188 338 80 380 80 520 c 0x8680
 80 604 133 681 231 704 c 1x25
 231 783 l 1
 378 783 l 1x31
 378 703 l 1x29
 459 679 505 616 528 539 c 1
 393 495 l 1
 377 535 347 568 297 568 c 0
 258 568 236 552 236 520 c 0
 236 481 284 462 344 439 c 0
 433 405 551 360 551 205 c 0x5280
 551 90 475 15 378 -5 c 1x45
 378 -89 l 1
 231 -89 l 1x85
EndSplineSet
EndChar

StartChar: percent
Encoding: 37 37 27
Width: 840
Flags: MW
HStem: -12 124<606 637.5 606 686.5> 236 124<606.5 637> 341 124<203.5 234.5 203.5 283.5> 588 124<203 234>
VStem: 45 128<508 542.5 508 566> 264 128<510 544.5> 449 127<156 190 156 214> 668 127<158 192.5>
LayerCount: 2
Fore
SplineSet
219 341 m 0xbf
 93 341 45 441 45 526 c 0
 45 606 92 712 219 712 c 0
 345 712 392 612 392 526 c 0
 392 446 348 341 219 341 c 0xbf
256 -12 m 1
 108 -12 l 1
 584 712 l 1
 733 712 l 1
 256 -12 l 1
219 465 m 0
 250 465 264 494 264 526 c 0
 264 563 249 588 219 588 c 0
 187 588 173 559 173 526 c 0
 173 490 188 465 219 465 c 0
622 -12 m 0
 494 -12 449 87 449 174 c 0
 449 254 494 360 622 360 c 0xdf
 748 360 795 261 795 174 c 0
 795 91 751 -12 622 -12 c 0
622 112 m 0
 653 112 668 142 668 174 c 0
 668 211 652 236 622 236 c 0xdf
 591 236 576 206 576 174 c 0
 576 138 590 112 622 112 c 0
EndSplineSet
EndChar

StartChar: ampersand
Encoding: 38 38 28
Width: 730
Flags: MW
HStem: -12 140<263.5 308.5 263.5 317> 0 21G<520 701 520 520> 608 104<309.5 332.5>
VStem: 60 148<176.5 215.5 176.5 242> 142 135<541 572.5 541 598> 366 135<528.5 569> 456 143<346 356>
LayerCount: 2
Fore
SplineSet
276 -12 m 0xb4
 143 -12 60 68 60 193 c 0xb4
 60 291 125 351 205 392 c 1
 156 447 142 493 142 545 c 0
 142 651 222 712 320 712 c 0
 428 712 501 651 501 549 c 0xac
 501 464 454 412 395 372 c 1
 454 302 l 1
 455 317 456 336 456 356 c 1
 599 356 l 1
 599 289 581 215 556 181 c 1
 701 0 l 1
 520 0 l 1x72
 469 63 l 1
 420 12 358 -12 276 -12 c 0xb4
321 608 m 0xac
 298 608 277 588 277 557 c 0
 277 525 289 496 320 462 c 1
 349 480 366 509 366 548 c 0
 366 590 344 608 321 608 c 0xac
290 128 m 0xb4
 327 128 359 140 389 162 c 1
 281 296 l 1
 225 267 208 235 208 196 c 0
 208 157 237 128 290 128 c 0xb4
EndSplineSet
EndChar

StartChar: quotesingle
Encoding: 39 39 29
Width: 261
Flags: MW
HStem: 403 297<71 190 71 71> 680 20G<45 216 216 216>
VStem: 45 171<700 700>
LayerCount: 2
Fore
SplineSet
45 700 m 1x60
 216 700 l 1
 190 403 l 1
 71 403 l 1xa0
 45 700 l 1x60
EndSplineSet
EndChar

StartChar: parenleft
Encoding: 40 40 30
Width: 387
Flags: MW
HStem: 692 20G<203 347 347 347>
VStem: 70 146<187.5 376.5>
LayerCount: 2
Fore
SplineSet
192 -130 m 1
 131 -50 70 93 70 282 c 0
 70 471 136 630 203 712 c 1
 347 712 l 1
 303 656 216 492 216 282 c 0
 216 79 298 -78 336 -130 c 1
 192 -130 l 1
EndSplineSet
EndChar

StartChar: parenright
Encoding: 41 41 31
Width: 387
Flags: MW
HStem: 692 20G<40 184 184 184>
VStem: 171 146<187.5 376.5 187.5 387>
LayerCount: 2
Fore
SplineSet
51 -130 m 1
 89 -76 171 77 171 282 c 0
 171 492 85 656 40 712 c 1
 184 712 l 1
 251 630 317 471 317 282 c 0
 317 93 256 -50 195 -130 c 1
 51 -130 l 1
EndSplineSet
EndChar

StartChar: asterisk
Encoding: 42 42 32
Width: 561
Flags: MW
HStem: 273 452<198 350 212 363> 463.5 261.5
VStem: 212 138<607 725 607 725>
LayerCount: 2
Fore
SplineSet
290 372 m 1xa0
 281 418 l 1
 272 372 l 1
 198 273 l 1
 89 352 l 1
 162 451 l 1
 203 463 l 1
 158 464 l 1
 50 500 l 1
 92 631 l 1
 201 595 l 1
 231 570 l 1
 212 607 l 1
 212 725 l 1
 350 725 l 1
 350 607 l 1
 331 571 l 1
 361 595 l 1
 470 631 l 1
 511 500 l 1
 404 464 l 1
 361 463 l 1
 399 451 l 1x60
 473 352 l 1
 363 273 l 1
 290 372 l 1xa0
EndSplineSet
EndChar

StartChar: plus
Encoding: 43 43 33
Width: 630
Flags: MW
HStem: 273 141<80 243 80 243 388 550>
VStem: 243 145<108 273 108 273 414 578>
LayerCount: 2
Fore
SplineSet
388 273 m 1
 388 108 l 1
 243 108 l 1
 243 273 l 1
 80 273 l 1
 80 414 l 1
 243 414 l 1
 243 578 l 1
 388 578 l 1
 388 414 l 1
 550 414 l 1
 550 273 l 1
 388 273 l 1
EndSplineSet
EndChar

StartChar: comma
Encoding: 44 44 34
Width: 261
Flags: MW
HStem: -6 21G
VStem: 48 178<56 96 26 103>
LayerCount: 2
Fore
SplineSet
32 -91 m 1
 50 -75 85 -31 99 -6 c 1
 69 10 48 35 48 77 c 0
 48 129 91 164 138 164 c 0
 187 164 226 127 226 65 c 0
 226 -13 162 -100 96 -141 c 1
 32 -91 l 1
EndSplineSet
EndChar

StartChar: hyphen
Encoding: 45 45 35
Width: 422
Flags: MW
HStem: 226 138<75 347 75 347>
VStem: 75 272<226 364 226 364>
LayerCount: 2
Fore
SplineSet
75 226 m 1
 75 364 l 1
 347 364 l 1
 347 226 l 1
 75 226 l 1
EndSplineSet
EndChar

StartChar: period
Encoding: 46 46 36
Width: 252
Flags: MW
HStem: -12 176<99.5 150.5>
VStem: 36 180<50 99.5>
LayerCount: 2
Fore
SplineSet
125 -12 m 0
 74 -12 36 25 36 75 c 0
 36 124 74 164 125 164 c 0
 176 164 216 124 216 75 c 0
 216 25 176 -12 125 -12 c 0
EndSplineSet
EndChar

StartChar: slash
Encoding: 47 47 37
Width: 539
Flags: MW
HStem: 692 20G<378 529 529 529>
VStem: -15 544
LayerCount: 2
Fore
SplineSet
-15 -130 m 1
 378 712 l 1
 529 712 l 1
 136 -130 l 1
 -15 -130 l 1
EndSplineSet
Substitution2: "'frac' Diagonal Fractions in Latin lookup 14 subtable" fraction
Substitution2: "'aalt' Access All Alternates in Latin lookup 0 subtable" fraction
EndChar

StartChar: zero
Encoding: 48 48 38
Width: 667
Flags: MW
HStem: -12 144<291 376 291 435> 568 144<292 376.5>
VStem: 71 150<295.5 407 295.5 440> 446 150<293 405>
LayerCount: 2
Fore
SplineSet
334 -12 m 0
 128 -12 71 179 71 350 c 0
 71 530 131 712 334 712 c 0
 539 712 596 527 596 350 c 0
 596 172 536 -12 334 -12 c 0
334 132 m 0
 418 132 446 236 446 350 c 0
 446 460 419 568 334 568 c 0
 250 568 221 464 221 350 c 0
 221 241 248 132 334 132 c 0
EndSplineSet
Substitution2: "'frac' Diagonal Fractions in Latin lookup 15 subtable" zero.numr
Substitution2: "'dnom' Denominators in Latin lookup 13 subtable" zero.dnom
Substitution2: "'numr' Numerators in Latin lookup 12 subtable" zero.numr
AlternateSubs2: "'aalt' Access All Alternates in Latin lookup 1 subtable" zero.numr zero.dnom
EndChar

StartChar: one
Encoding: 49 49 39
Width: 416
Flags: MW
HStem: 0 21G<134 134 134 286> 504 124<31 64.5 31 134 31 64.5> 680 20G<162 286 286 286>
VStem: 134 152<0 504 504 504>
LayerCount: 2
Fore
SplineSet
134 0 m 1
 134 504 l 1
 31 504 l 1
 31 628 l 1
 98 628 144 645 162 700 c 1
 286 700 l 1
 286 0 l 1
 134 0 l 1
EndSplineSet
Substitution2: "'frac' Diagonal Fractions in Latin lookup 15 subtable" one.numr
Substitution2: "'dnom' Denominators in Latin lookup 13 subtable" one.dnom
Substitution2: "'numr' Numerators in Latin lookup 12 subtable" one.numr
Substitution2: "'sups' Superscript in Latin lookup 11 subtable" uni00B9
AlternateSubs2: "'aalt' Access All Alternates in Latin lookup 1 subtable" uni00B9 one.numr one.dnom
EndChar

StartChar: two
Encoding: 50 50 40
Width: 611
Flags: MW
HStem: 0 146<239 547 239 547> 568 144<292.5 340>
VStem: 391 150<475 523>
LayerCount: 2
Fore
SplineSet
61 0 m 1
 61 215 165 323 301 398 c 0
 347 423 391 451 391 499 c 0
 391 547 363 568 317 568 c 0
 268 568 231 542 208 498 c 1
 72 559 l 1
 115 655 211 712 312 712 c 0
 458 712 541 619 541 505 c 0
 541 384 479 333 393 283 c 0
 299 227 262 198 239 146 c 1
 547 146 l 1
 547 0 l 1
 61 0 l 1
EndSplineSet
Substitution2: "'frac' Diagonal Fractions in Latin lookup 15 subtable" two.numr
Substitution2: "'dnom' Denominators in Latin lookup 13 subtable" two.dnom
Substitution2: "'numr' Numerators in Latin lookup 12 subtable" two.numr
Substitution2: "'sups' Superscript in Latin lookup 11 subtable" uni00B2
AlternateSubs2: "'aalt' Access All Alternates in Latin lookup 1 subtable" uni00B2 two.numr two.dnom
EndChar

StartChar: three
Encoding: 51 51 41
Width: 599
Flags: MW
HStem: -12 144<275.5 325.5 275.5 370> 278 146<218 294 218 294> 568 144<272.5 315.5>
VStem: 365 150<475.5 517> 387 150<184 225>
LayerCount: 2
Fore
SplineSet
299 -12 m 0xe8
 176 -12 85 52 45 154 c 1
 181 209 l 1
 213 153 252 132 299 132 c 0
 352 132 387 160 387 208 c 0
 387 242 359 278 294 278 c 2xe8
 218 278 l 1
 218 424 l 1
 294 424 l 2
 337 424 365 450 365 498 c 0
 365 536 339 568 292 568 c 0
 253 568 224 547 203 513 c 1
 67 566 l 1
 111 653 189 712 294 712 c 0
 426 712 515 630 515 511 c 0xf0
 515 440 480 387 433 356 c 1
 487 335 537 277 537 187 c 0
 537 73 441 -12 299 -12 c 0xe8
EndSplineSet
Substitution2: "'frac' Diagonal Fractions in Latin lookup 15 subtable" three.numr
Substitution2: "'dnom' Denominators in Latin lookup 13 subtable" three.dnom
Substitution2: "'numr' Numerators in Latin lookup 12 subtable" three.numr
Substitution2: "'sups' Superscript in Latin lookup 11 subtable" uni00B3
AlternateSubs2: "'aalt' Access All Alternates in Latin lookup 1 subtable" uni00B3 three.numr three.dnom
EndChar

StartChar: four
Encoding: 52 52 42
Width: 656
Flags: MW
HStem: 0 21G<371 371 371 518> 130 141<208 371 208 371 518 600> 680 20G<369 518 518 518>
VStem: 371 147<0 130 0 130 271 493 493 493>
LayerCount: 2
Fore
SplineSet
371 0 m 1
 371 130 l 1
 11 130 l 1
 11 226 l 1
 369 700 l 1
 518 700 l 1
 518 271 l 1
 600 271 l 1
 600 130 l 1
 518 130 l 1
 518 0 l 1
 371 0 l 1
371 271 m 1
 371 493 l 1
 208 271 l 1
 371 271 l 1
EndSplineSet
Substitution2: "'frac' Diagonal Fractions in Latin lookup 15 subtable" four.numr
Substitution2: "'dnom' Denominators in Latin lookup 13 subtable" four.dnom
Substitution2: "'numr' Numerators in Latin lookup 12 subtable" four.numr
AlternateSubs2: "'aalt' Access All Alternates in Latin lookup 1 subtable" four.numr four.dnom
EndChar

StartChar: five
Encoding: 53 53 43
Width: 604
Flags: MW
HStem: -12 144<245.5 310.5 245.5 352> 326 144<297 339.5> 554 146<231 501 231 231>
VStem: 83.5 145.5 394 151<202.5 263>
LayerCount: 2
Fore
SplineSet
275 -12 m 0
 173 -12 100 23 56 57 c 1
 135 176 l 1
 170 154 216 132 275 132 c 0
 346 132 394 168 394 237 c 0
 394 289 367 326 312 326 c 0
 264 326 236 308 208 276 c 1
 76 345 l 1
 91 700 l 1
 501 700 l 1
 501 554 l 1
 231 554 l 1
 227 455 l 1
 256 464 281 470 313 470 c 0
 466 470 545 366 545 235 c 0
 545 81 429 -12 275 -12 c 0
EndSplineSet
Substitution2: "'frac' Diagonal Fractions in Latin lookup 15 subtable" five.numr
Substitution2: "'dnom' Denominators in Latin lookup 13 subtable" five.dnom
Substitution2: "'numr' Numerators in Latin lookup 12 subtable" five.numr
AlternateSubs2: "'aalt' Access All Alternates in Latin lookup 1 subtable" five.numr five.dnom
EndChar

StartChar: six
Encoding: 54 54 44
Width: 623
Flags: MW
HStem: -12 144<292.5 352.5 292.5 397.5> 303 143<321 352.5> 692 20G<486 486>
VStem: 61 157<190 242 190 368.5> 427 151<190 243>
LayerCount: 2
Fore
SplineSet
323 -12 m 0
 153 -12 61 104 61 257 c 0
 61 480 183 665 486 712 c 1
 486 568 l 1
 392 554 285 513 243 420 c 1
 267 435 300 446 342 446 c 0
 478 446 578 353 578 217 c 0
 578 81 472 -12 323 -12 c 0
323 132 m 0
 382 132 427 163 427 217 c 0
 427 269 382 303 323 303 c 0
 262 303 218 267 218 217 c 0
 218 163 262 132 323 132 c 0
EndSplineSet
Substitution2: "'frac' Diagonal Fractions in Latin lookup 15 subtable" six.numr
Substitution2: "'dnom' Denominators in Latin lookup 13 subtable" six.dnom
Substitution2: "'numr' Numerators in Latin lookup 12 subtable" six.numr
AlternateSubs2: "'aalt' Access All Alternates in Latin lookup 1 subtable" six.numr six.dnom
EndChar

StartChar: seven
Encoding: 55 55 45
Width: 545
Flags: MW
HStem: 0 21G<160 160 160 310> 554 146<21 329 21 509>
VStem: 160 150<0 72>
LayerCount: 2
Fore
SplineSet
160 0 m 1
 162 228 216 397 329 554 c 1
 21 554 l 1
 21 700 l 1
 509 700 l 1
 509 578 l 1
 368 421 310 144 310 0 c 1
 160 0 l 1
EndSplineSet
Substitution2: "'frac' Diagonal Fractions in Latin lookup 15 subtable" seven.numr
Substitution2: "'dnom' Denominators in Latin lookup 13 subtable" seven.dnom
Substitution2: "'numr' Numerators in Latin lookup 12 subtable" seven.numr
AlternateSubs2: "'aalt' Access All Alternates in Latin lookup 1 subtable" seven.numr seven.dnom
EndChar

StartChar: eight
Encoding: 56 56 46
Width: 638
Flags: MW
HStem: -12 135<286.5 350 286.5 400> 309 137<292.5 343 292.5 350> 581 131<292.5 343>
VStem: 61 150<189 244.5 189 254> 88 150<495 533.5 495 582> 401 149<495 533.5> 427 151<189 244.5>
LayerCount: 2
Fore
SplineSet
319 -12 m 0xf2
 158 -12 61 77 61 215 c 0xf2
 61 293 104 351 177 383 c 1
 137 403 88 450 88 526 c 0
 88 638 172 712 319 712 c 0
 465 712 550 638 550 526 c 0xec
 550 453 500 404 461 385 c 1
 530 354 578 291 578 215 c 0
 578 77 481 -12 319 -12 c 0xf2
319 446 m 0xec
 367 446 401 475 401 515 c 0
 401 552 367 581 319 581 c 0
 266 581 238 552 238 515 c 0
 238 475 266 446 319 446 c 0xec
319 123 m 0xf2
 381 123 427 162 427 216 c 0
 427 273 381 309 319 309 c 0
 254 309 211 273 211 216 c 0
 211 162 254 123 319 123 c 0xf2
EndSplineSet
Substitution2: "'frac' Diagonal Fractions in Latin lookup 15 subtable" eight.numr
Substitution2: "'dnom' Denominators in Latin lookup 13 subtable" eight.dnom
Substitution2: "'numr' Numerators in Latin lookup 12 subtable" eight.numr
AlternateSubs2: "'aalt' Access All Alternates in Latin lookup 1 subtable" eight.numr eight.dnom
EndChar

StartChar: nine
Encoding: 57 57 47
Width: 623
Flags: MW
HStem: -12 141<156 156> 260 141<270 310> 575 137<270 334>
VStem: 46 149<460 514.5 460 556.5> 404 165<458.5 514>
LayerCount: 2
Fore
SplineSet
156 -12 m 1
 156 129 l 1
 251 130 355 164 396 291 c 1
 369 272 332 260 288 260 c 0
 148 260 46 341 46 487 c 0
 46 626 153 712 305 712 c 0
 487 712 569 599 569 441 c 0
 569 167 438 -6 156 -12 c 1
304 401 m 0
 363 401 404 429 404 488 c 0
 404 540 363 575 305 575 c 0
 235 575 195 540 195 489 c 0
 195 431 236 401 304 401 c 0
EndSplineSet
Substitution2: "'frac' Diagonal Fractions in Latin lookup 15 subtable" nine.numr
Substitution2: "'dnom' Denominators in Latin lookup 13 subtable" nine.dnom
Substitution2: "'numr' Numerators in Latin lookup 12 subtable" nine.numr
AlternateSubs2: "'aalt' Access All Alternates in Latin lookup 1 subtable" nine.numr nine.dnom
EndChar

StartChar: colon
Encoding: 58 58 48
Width: 252
Flags: MW
HStem: -12 176<99.5 150.5> 312 176<99.5 150.5>
VStem: 36 180<50 99.5 374 423.5>
LayerCount: 2
Fore
SplineSet
125 312 m 0
 74 312 36 349 36 399 c 0
 36 448 74 488 125 488 c 0
 176 488 216 448 216 399 c 0
 216 349 176 312 125 312 c 0
125 -12 m 0
 74 -12 36 25 36 75 c 0
 36 124 74 164 125 164 c 0
 176 164 216 124 216 75 c 0
 216 25 176 -12 125 -12 c 0
EndSplineSet
EndChar

StartChar: semicolon
Encoding: 59 59 49
Width: 252
Flags: MW
HStem: -6 21G 312 176<106.5 157.5>
VStem: 43 178<56 96 21 103>
LayerCount: 2
Fore
SplineSet
132 312 m 0
 81 312 43 349 43 399 c 0
 43 448 81 488 132 488 c 0
 183 488 222 448 222 399 c 0
 222 349 183 312 132 312 c 0
27 -91 m 1
 47 -75 81 -41 94 -6 c 1
 64 10 43 35 43 77 c 0
 43 129 86 164 132 164 c 0
 182 164 221 127 221 65 c 0
 221 -23 158 -100 91 -141 c 1
 27 -91 l 1
EndSplineSet
EndChar

StartChar: less
Encoding: 60 60 50
Width: 630
Flags: MW
HStem: 93 501<550 550>
VStem: 80 470<93 401 93 401>
LayerCount: 2
Fore
SplineSet
550 93 m 1
 80 285 l 1
 80 401 l 1
 550 594 l 1
 550 440 l 1
 303 343 l 1
 550 244 l 1
 550 93 l 1
EndSplineSet
EndChar

StartChar: equal
Encoding: 61 61 51
Width: 630
Flags: MW
HStem: 154 140<80 550 80 550> 392 140<80 550 80 550>
VStem: 80 470<154 294 154 294 392 532 154 532>
LayerCount: 2
Fore
SplineSet
80 392 m 1
 80 532 l 1
 550 532 l 1
 550 392 l 1
 80 392 l 1
80 154 m 1
 80 294 l 1
 550 294 l 1
 550 154 l 1
 80 154 l 1
EndSplineSet
EndChar

StartChar: greater
Encoding: 62 62 52
Width: 630
Flags: MW
HStem: 93 501<80 80>
VStem: 80 470<93 285 246 285 285 594 285 594>
LayerCount: 2
Fore
SplineSet
550 285 m 1
 80 93 l 1
 80 246 l 1
 327 343 l 1
 80 442 l 1
 80 594 l 1
 550 401 l 1
 550 285 l 1
EndSplineSet
EndChar

StartChar: question
Encoding: 63 63 53
Width: 507
Flags: MW
HStem: -12 176<222.5 273.5> 572 140<224 278>
VStem: 20 145<464 498.5 464 545> 159 179<50 99.5> 174 144<188 232 188 233 188 324.5> 328 144<460.5 525>
LayerCount: 2
Fore
SplineSet
174 188 m 1xc8
 174 233 l 2xc8
 174 416 328 415 328 506 c 0
 328 544 302 572 254 572 c 0
 194 572 165 533 165 464 c 1
 20 464 l 1
 20 626 116 712 254 712 c 0xec
 396 712 472 623 472 506 c 0
 472 341 318 349 318 232 c 2
 318 188 l 1
 174 188 l 1xc8
248 -12 m 0xd0
 197 -12 159 25 159 75 c 0
 159 124 197 164 248 164 c 0
 299 164 338 124 338 75 c 0
 338 25 299 -12 248 -12 c 0xd0
EndSplineSet
EndChar

StartChar: at
Encoding: 64 64 54
Width: 848
Flags: MW
HStem: -12 107<356 450> 156 98<576 607.5 576 627> 158 105<383 404.5> 431 92<405.5 611> 431 105<405.5 445> 605 107<364 530>
VStem: 60 111<258 417.5 258 448> 242 109<307 354.5 307 380> 681 107<357 463>
LayerCount: 2
Fore
SplineSet
432 -12 m 0xd780
 207 -12 60 114 60 339 c 0
 60 557 228 712 440 712 c 0
 652 712 788 578 788 413 c 0
 788 264 693 156 561 156 c 0xd780
 534 156 489 168 476 204 c 1
 455 167 423 158 386 158 c 0
 302 158 242 224 242 329 c 0
 242 431 316 536 431 536 c 0
 469 536 495 517 504 505 c 1xaf80
 507 523 l 1
 611 523 l 1
 578 340 l 2
 570 302 565 271 565 267 c 0
 565 260 570 254 582 254 c 0
 633 254 681 304 681 410 c 0
 681 516 614 605 446 605 c 0
 282 605 171 497 171 338 c 0
 171 178 276 95 436 95 c 0
 478 95 525 104 581 117 c 1
 547 -3 l 1
 504 -8 468 -12 432 -12 c 0xd780
397 263 m 0xb780
 447 263 476 320 476 369 c 0
 476 408 460 431 430 431 c 0
 381 431 351 383 351 326 c 0
 351 288 369 263 397 263 c 0xb780
EndSplineSet
EndChar

StartChar: A
Encoding: 65 65 55
Width: 737
GlyphClass: 2
Flags: MW
HStem: 0 21G<19 185 19 19 552 718 552 552> 136 140<287 449 287 500 237 449> 680 20G<295 441 441 441>
VStem: 19 699<0 0>
AnchorPoint: "Anchor-0" 369 0 basechar 0
LayerCount: 2
Fore
SplineSet
552 0 m 1
 500 136 l 1
 237 136 l 1
 185 0 l 1
 19 0 l 1
 295 700 l 1
 441 700 l 1
 718 0 l 1
 552 0 l 1
449 276 m 1
 389 427 l 2
 382 444 373 468 368 486 c 1
 364 468 354 444 347 427 c 2
 287 276 l 1
 449 276 l 1
EndSplineSet
Substitution2: "Single Substitution lookup 21 subtable" ordfeminine
Substitution2: "'aalt' Access All Alternates in Latin lookup 0 subtable" ordfeminine
Position2: "'cpsp' Capital Spacing in Latin lookup 0 subtable" dx=5 dy=0 dh=10 dv=0
EndChar

StartChar: B
Encoding: 66 66 56
Width: 708
GlyphClass: 2
Flags: MW
HStem: 0 143<227 418> 290 137<227 390 390 398 227 390> 558 142<227 405 405 406 227 227>
VStem: 75 152<143 290 427 558> 481 155<479.5 508.5> 505 154<197.5 231.5>
AnchorPoint: "Anchor-0" 355 0 basechar 0
LayerCount: 2
Fore
SplineSet
75 700 m 1xf4
 405 700 l 2
 578 700 636 605 636 510 c 0xf8
 636 449 616 393 557 365 c 1
 631 337 659 266 659 210 c 0
 659 108 596 0 418 0 c 2
 75 0 l 1
 75 700 l 1xf4
390 427 m 2
 453 427 481 453 481 493 c 0
 481 524 470 558 406 558 c 2
 227 558 l 1
 227 427 l 1
 390 427 l 2
425 143 m 2xf4
 486 143 505 182 505 213 c 0
 505 250 487 290 398 290 c 2
 227 290 l 1
 227 143 l 1
 425 143 l 2xf4
EndSplineSet
Position2: "'cpsp' Capital Spacing in Latin lookup 0 subtable" dx=5 dy=0 dh=10 dv=0
EndChar

StartChar: C
Encoding: 67 67 57
Width: 635
GlyphClass: 2
Flags: MW
HStem: -10 146<297 370.5 297 409.5> 564 146<293 372.5>
VStem: 50 158<300.5 398 300.5 429.5>
AnchorPoint: "Anchor-0" 345 0 basechar 0
LayerCount: 2
Fore
SplineSet
345 -10 m 0
 125 -10 50 177 50 350 c 0
 50 509 127 710 345 710 c 0
 480 710 568 627 602 542 c 1
 466 481 l 1
 431 534 400 564 345 564 c 0
 241 564 208 446 208 350 c 0
 208 251 249 136 345 136 c 0
 396 136 432 173 464 226 c 1
 603 174 l 1
 553 66 474 -10 345 -10 c 0
EndSplineSet
Position2: "'cpsp' Capital Spacing in Latin lookup 0 subtable" dx=5 dy=0 dh=10 dv=0
EndChar

StartChar: D
Encoding: 68 68 58
Width: 724
GlyphClass: 2
Flags: MW
HStem: 0 145<227 329> 556 144<227 333 333 356 227 227>
VStem: 75 152<145 556 145 700 145 700> 517 158<302.5 399.5>
AnchorPoint: "Anchor-0" 362 0 basechar 0
LayerCount: 2
Fore
SplineSet
75 700 m 1
 333 700 l 2
 578 700 675 525 675 350 c 0
 675 191 586 0 329 0 c 2
 75 0 l 1
 75 700 l 1
345 145 m 2
 470 145 517 255 517 350 c 0
 517 449 467 556 356 556 c 2
 227 556 l 1
 227 145 l 1
 345 145 l 2
EndSplineSet
Position2: "'cpsp' Capital Spacing in Latin lookup 0 subtable" dx=5 dy=0 dh=10 dv=0
EndChar

StartChar: E
Encoding: 69 69 59
Width: 637
GlyphClass: 2
Flags: MW
HStem: 0 145<227 598 227 598> 289 144<227 423 227 423> 556 144<227 578 227 227>
VStem: 75 152<145 289 433 556>
AnchorPoint: "Anchor-0" 318 0 basechar 0
LayerCount: 2
Fore
SplineSet
75 0 m 1
 75 700 l 1
 578 700 l 1
 578 556 l 1
 227 556 l 1
 227 433 l 1
 423 433 l 1
 423 289 l 1
 227 289 l 1
 227 145 l 1
 598 145 l 1
 598 0 l 1
 75 0 l 1
EndSplineSet
Position2: "'cpsp' Capital Spacing in Latin lookup 0 subtable" dx=5 dy=0 dh=10 dv=0
EndChar

StartChar: F
Encoding: 70 70 60
Width: 581
GlyphClass: 2
Flags: MW
HStem: 0 21G<75 75 75 227> 289 144<227 438 227 438> 556 144<227 563 227 227>
VStem: 75 152<0 289 433 556>
AnchorPoint: "Anchor-0" 291 0 basechar 0
LayerCount: 2
Fore
SplineSet
75 0 m 1
 75 700 l 1
 563 700 l 1
 563 556 l 1
 227 556 l 1
 227 433 l 1
 438 433 l 1
 438 289 l 1
 227 289 l 1
 227 0 l 1
 75 0 l 1
EndSplineSet
Position2: "'cpsp' Capital Spacing in Latin lookup 0 subtable" dx=5 dy=0 dh=10 dv=0
EndChar

StartChar: G
Encoding: 71 71 61
Width: 663
GlyphClass: 2
Flags: MW
HStem: -12 146<304.5 387.5 304.5 433.5> 232 145<352 466 352 622> 566 146<301 386.5>
VStem: 50 158<295.5 397.5 295.5 434.5> 466 156<227 232 232 232>
AnchorPoint: "Anchor-0" 353 0 basechar 0
LayerCount: 2
Fore
SplineSet
359 -12 m 0
 143 -12 50 167 50 350 c 0
 50 519 147 712 359 712 c 0
 496 712 566 634 617 552 c 1
 484 477 l 1
 454 525 414 566 359 566 c 0
 243 566 208 445 208 350 c 0
 208 241 250 134 359 134 c 0
 416 134 466 177 466 227 c 2
 466 232 l 1
 352 232 l 1
 352 377 l 1
 622 377 l 1
 622 267 l 2
 622 87 508 -12 359 -12 c 0
EndSplineSet
Position2: "'cpsp' Capital Spacing in Latin lookup 0 subtable" dx=5 dy=0 dh=10 dv=0
EndChar

StartChar: H
Encoding: 72 72 62
Width: 732
GlyphClass: 2
Flags: MW
HStem: 0 21G<75 227 75 75 505 658 505 505> 287 145<227 505 227 505> 680 20G<75 227 227 227 505 658 658 658>
VStem: 75 152<0 287 0 432 432 700> 505 153<0 287 287 287 432 700 0 700>
AnchorPoint: "Anchor-0" 367 0 basechar 0
LayerCount: 2
Fore
SplineSet
505 0 m 1
 505 287 l 1
 227 287 l 1
 227 0 l 1
 75 0 l 1
 75 700 l 1
 227 700 l 1
 227 432 l 1
 505 432 l 1
 505 700 l 1
 658 700 l 1
 658 0 l 1
 505 0 l 1
EndSplineSet
Position2: "'cpsp' Capital Spacing in Latin lookup 0 subtable" dx=5 dy=0 dh=10 dv=0
EndChar

StartChar: I
Encoding: 73 73 63
Width: 311
GlyphClass: 2
Flags: MW
HStem: 0 21G<80 80 80 232> 680 20G<80 232 232 232>
VStem: 80 152<0 700 0 700>
AnchorPoint: "Anchor-0" 157 0 basechar 0
LayerCount: 2
Fore
SplineSet
80 0 m 1
 80 700 l 1
 232 700 l 1
 232 0 l 1
 80 0 l 1
EndSplineSet
Position2: "'cpsp' Capital Spacing in Latin lookup 0 subtable" dx=5 dy=0 dh=10 dv=0
EndChar

StartChar: J
Encoding: 74 74 64
Width: 565
GlyphClass: 2
Flags: MW
HStem: -12 147<228.5 275.5 228.5 306.5> 680 20G<343 496 496 496>
VStem: 343 153<259 700>
AnchorPoint: "Anchor-0" 283 0 basechar 0
LayerCount: 2
Fore
SplineSet
252 -12 m 0
 152 -12 57 50 10 155 c 1
 144 216 l 1
 171 166 205 135 252 135 c 0
 299 135 343 159 343 259 c 2
 343 700 l 1
 496 700 l 1
 496 248 l 2
 496 45 361 -12 252 -12 c 0
EndSplineSet
Substitution2: "Single Substitution lookup 19 subtable" Jacute
Substitution2: "'aalt' Access All Alternates in Latin lookup 0 subtable" Jacute
Position2: "'cpsp' Capital Spacing in Latin lookup 0 subtable" dx=5 dy=0 dh=10 dv=0
EndChar

StartChar: K
Encoding: 75 75 65
Width: 733
GlyphClass: 2
Flags: MW
HStem: 0 21G<75 227 75 75 531 709 531 531> 680 20G<75 227 227 227 489 672 672 672>
VStem: 75 152<0 152 369 700>
AnchorPoint: "Anchor-0" 368 0 basechar 0
LayerCount: 2
Fore
SplineSet
531 0 m 1
 360 318 l 1
 227 152 l 1
 227 0 l 1
 75 0 l 1
 75 700 l 1
 227 700 l 1
 227 369 l 1
 489 700 l 1
 672 700 l 1
 463 446 l 1
 709 0 l 1
 531 0 l 1
EndSplineSet
Position2: "'cpsp' Capital Spacing in Latin lookup 0 subtable" dx=5 dy=0 dh=10 dv=0
EndChar

StartChar: L
Encoding: 76 76 66
Width: 570
GlyphClass: 2
Flags: MW
HStem: 0 147<227 563 227 563> 680 20G<75 227 227 227>
VStem: 75 152<147 700 147 700 147 700>
AnchorPoint: "Anchor-0" 315 0 basechar 0
LayerCount: 2
Fore
SplineSet
75 0 m 1
 75 700 l 1
 227 700 l 1
 227 147 l 1
 563 147 l 1
 563 0 l 1
 75 0 l 1
EndSplineSet
Position2: "'cpsp' Capital Spacing in Latin lookup 0 subtable" dx=5 dy=0 dh=10 dv=0
EndChar

StartChar: M
Encoding: 77 77 67
Width: 812
GlyphClass: 2
Flags: MW
HStem: -12 21G<407 407> 0 21G<75 227 75 75 585 737 585 585> 680 20G<75 230 230 230 595 737 737 737>
VStem: 75 152<0 347 347 369 0 700> 585 152<0 347 347 349>
AnchorPoint: "Anchor-0" 407 0 basechar 0
LayerCount: 2
Fore
SplineSet
737 0 m 1x78
 585 0 l 1x78
 585 347 l 2
 585 351 585 357 586 369 c 1
 581 357 580 355 577 349 c 2
 407 -12 l 1xb8
 235 347 l 2
 232 354 231 357 227 369 c 1
 227 347 l 1
 227 0 l 1
 75 0 l 1
 75 700 l 1
 230 700 l 1
 393 343 l 2
 400 327 405 313 410 299 c 1
 415 313 420 327 427 343 c 2
 595 700 l 1
 737 700 l 1
 737 0 l 1x78
EndSplineSet
Position2: "'cpsp' Capital Spacing in Latin lookup 0 subtable" dx=5 dy=0 dh=10 dv=0
EndChar

StartChar: N
Encoding: 78 78 68
Width: 723
GlyphClass: 2
Flags: MW
HStem: 0 21G<75 225 75 75 516 649 516 516> 680 20G<75 214 214 214 497 649 649 649>
VStem: 75 150<0 371 0 700> 497 152<334 700>
AnchorPoint: "Anchor-0" 361 0 basechar 0
LayerCount: 2
Fore
SplineSet
649 0 m 1
 516 0 l 1
 252 371 l 2
 245 380 230 408 222 424 c 1
 225 407 225 384 225 371 c 2
 225 0 l 1
 75 0 l 1
 75 700 l 1
 214 700 l 1
 471 333 l 2
 478 323 494 296 500 281 c 1
 498 295 497 323 497 334 c 2
 497 700 l 1
 649 700 l 1
 649 0 l 1
EndSplineSet
Position2: "'cpsp' Capital Spacing in Latin lookup 0 subtable" dx=5 dy=0 dh=10 dv=0
EndChar

StartChar: O
Encoding: 79 79 69
Width: 720
GlyphClass: 2
Flags: MW
HStem: -12 147<303.5 416.5 303.5 474> 566 146<303 418.5>
VStem: 50 158<301.5 397 301.5 436.5> 513 158<303.5 399.5>
AnchorPoint: "Anchor-0" 361 0 basechar 0
LayerCount: 2
Fore
SplineSet
361 -12 m 0
 134 -12 50 177 50 350 c 0
 50 523 134 712 361 712 c 0
 587 712 671 523 671 350 c 0
 671 177 587 -12 361 -12 c 0
361 135 m 0
 472 135 513 257 513 350 c 0
 513 449 476 566 361 566 c 0
 245 566 208 444 208 350 c 0
 208 253 246 135 361 135 c 0
EndSplineSet
Substitution2: "Single Substitution lookup 21 subtable" ordmasculine
Substitution2: "'aalt' Access All Alternates in Latin lookup 0 subtable" ordmasculine
Position2: "'cpsp' Capital Spacing in Latin lookup 0 subtable" dx=5 dy=0 dh=10 dv=0
EndChar

StartChar: P
Encoding: 80 80 70
Width: 643
GlyphClass: 2
Flags: MW
HStem: 0 21G<75 75 75 227> 251 143<227 385 227 391> 556 144<227 385 385 391 227 227>
VStem: 75 152<0 251 0 394 394 556> 471 158<456 492.5>
AnchorPoint: "Anchor-0" 327 0 basechar 0
LayerCount: 2
Fore
SplineSet
75 0 m 1
 75 700 l 1
 385 700 l 2
 565 700 629 587 629 475 c 0
 629 371 559 251 385 251 c 2
 227 251 l 1
 227 0 l 1
 75 0 l 1
391 394 m 2
 449 394 471 437 471 475 c 0
 471 510 452 556 391 556 c 2
 227 556 l 1
 227 394 l 1
 391 394 l 2
EndSplineSet
Position2: "'cpsp' Capital Spacing in Latin lookup 0 subtable" dx=5 dy=0 dh=10 dv=0
EndChar

StartChar: Q
Encoding: 81 81 71
Width: 720
GlyphClass: 2
Flags: MW
HStem: -12 147<303.5 361.5 303.5 379.5> -9 21G<626 626> 566 146<303 418.5>
VStem: 50 158<301.5 397 301.5 436.5> 513 158<327.5 399.5>
AnchorPoint: "Anchor-0" 361 0 basechar 0
LayerCount: 2
Fore
SplineSet
361 -12 m 0xb8
 134 -12 50 177 50 350 c 0
 50 523 134 712 361 712 c 0
 587 712 671 523 671 350 c 0
 671 247 641 142 572 70 c 1
 626 -9 l 1
 514 -81 l 1x78
 458 1 l 1
 429 -7 398 -12 361 -12 c 0xb8
361 135 m 0
 362 135 365 136 369 136 c 2
 312 219 l 1
 425 292 l 1
 481 208 l 1
 504 247 513 305 513 350 c 0
 513 449 476 566 361 566 c 0
 245 566 208 444 208 350 c 0
 208 253 246 135 361 135 c 0
EndSplineSet
Position2: "'cpsp' Capital Spacing in Latin lookup 0 subtable" dx=5 dy=0 dh=10 dv=0
EndChar

StartChar: R
Encoding: 82 82 72
Width: 703
GlyphClass: 2
Flags: MW
HStem: 0 21G<75 75 75 227 489 489 489 659> 247 144<227 362 227 418> 556 144<227 416 416 418 227 227>
VStem: 75 152<0 247 391 556> 497 158<452 494.5>
AnchorPoint: "Anchor-0" 352 0 basechar 0
LayerCount: 2
Fore
SplineSet
75 0 m 1
 75 700 l 1
 416 700 l 2
 595 700 655 595 655 474 c 0
 655 397 610 304 528 270 c 1
 659 0 l 1
 489 0 l 1
 362 247 l 1
 227 247 l 1
 227 0 l 1
 75 0 l 1
227 391 m 1
 418 391 l 2
 478 391 497 430 497 474 c 0
 497 515 479 556 418 556 c 2
 227 556 l 1
 227 391 l 1
EndSplineSet
Position2: "'cpsp' Capital Spacing in Latin lookup 0 subtable" dx=5 dy=0 dh=10 dv=0
EndChar

StartChar: S
Encoding: 83 83 73
Width: 621
GlyphClass: 2
Flags: MW
HStem: -12 144<288 351.5 288 389> 568 144<272.5 331.5>
VStem: 63 152<493 529.5 493 568> 425 152<180 228.5>
AnchorPoint: "Anchor-0" 312 0 basechar 0
LayerCount: 2
Fore
SplineSet
316 -12 m 0
 180 -12 77 65 35 193 c 1
 171 244 l 1
 202 178 256 132 320 132 c 0
 383 132 425 156 425 204 c 0
 425 253 365 272 292 295 c 0
 187 329 63 368 63 514 c 0
 63 622 152 712 308 712 c 0
 437 712 524 636 551 537 c 1
 415 493 l 1
 396 536 363 568 300 568 c 0
 245 568 215 548 215 511 c 0
 215 475 269 458 334 436 c 0
 440 402 577 358 577 203 c 0
 577 67 462 -12 316 -12 c 0
EndSplineSet
Position2: "'cpsp' Capital Spacing in Latin lookup 0 subtable" dx=5 dy=0 dh=10 dv=0
EndChar

StartChar: T
Encoding: 84 84 74
Width: 613
GlyphClass: 2
Flags: MW
HStem: 0 21G<231 383 231 231> 554 146<30 231 30 584 383 584 383 383>
VStem: 231 152<0 554 0 554>
AnchorPoint: "Anchor-0" 308 0 basechar 0
LayerCount: 2
Fore
SplineSet
383 554 m 1
 383 0 l 1
 231 0 l 1
 231 554 l 1
 30 554 l 1
 30 700 l 1
 584 700 l 1
 584 554 l 1
 383 554 l 1
EndSplineSet
Position2: "'cpsp' Capital Spacing in Latin lookup 0 subtable" dx=5 dy=0 dh=10 dv=0
EndChar

StartChar: U
Encoding: 85 85 75
Width: 724
GlyphClass: 2
Flags: MW
HStem: -12 147<315.5 407 315.5 434> 680 20G<70 222 222 222 502 654 654 654>
VStem: 70 152<270 700> 502 152<270 700>
AnchorPoint: "Anchor-0" 362 0 basechar 0
LayerCount: 2
Fore
SplineSet
362 -12 m 0
 222 -12 70 57 70 270 c 2
 70 700 l 1
 222 700 l 1
 222 270 l 2
 222 167 269 135 362 135 c 0
 452 135 502 167 502 270 c 2
 502 700 l 1
 654 700 l 1
 654 270 l 2
 654 61 506 -12 362 -12 c 0
EndSplineSet
Position2: "'cpsp' Capital Spacing in Latin lookup 0 subtable" dx=5 dy=0 dh=10 dv=0
EndChar

StartChar: V
Encoding: 86 86 76
Width: 698
GlyphClass: 2
Flags: MW
HStem: 0 21G<277 277 277 422> 680 20G<25 190 190 190 510 673 673 673>
VStem: 25 648<700 700>
AnchorPoint: "Anchor-0" 349 0 basechar 0
LayerCount: 2
Fore
SplineSet
277 0 m 1
 25 700 l 1
 190 700 l 1
 341 259 l 2
 346 247 348 235 350 229 c 1
 351 235 354 245 359 259 c 2
 510 700 l 1
 673 700 l 1
 422 0 l 1
 277 0 l 1
EndSplineSet
Position2: "'cpsp' Capital Spacing in Latin lookup 0 subtable" dx=5 dy=0 dh=10 dv=0
EndChar

StartChar: W
Encoding: 87 87 77
Width: 853
GlyphClass: 2
Flags: MW
HStem: 0 21G<180 180 180 324 528 528 528 672> 680 20G<30 187 187 187 359 492 492 492 666 823 823 823>
VStem: 30 793<700 700>
AnchorPoint: "Anchor-0" 426 0 basechar 0
LayerCount: 2
Fore
SplineSet
180 0 m 1
 30 700 l 1
 187 700 l 1
 260 327 l 2
 263 314 263 303 265 292 c 1
 267 303 267 314 270 329 c 2
 359 700 l 1
 492 700 l 1
 582 328 l 2
 585 313 586 302 588 290 c 1
 590 302 591 312 594 326 c 2
 666 700 l 1
 823 700 l 1
 672 0 l 1
 528 0 l 1
 430 389 l 2
 428 397 426 412 424 428 c 1
 422 412 421 397 418 390 c 2
 324 0 l 1
 180 0 l 1
EndSplineSet
Position2: "'cpsp' Capital Spacing in Latin lookup 0 subtable" dx=5 dy=0 dh=10 dv=0
EndChar

StartChar: X
Encoding: 88 88 78
Width: 716
GlyphClass: 2
Flags: MW
HStem: 0 21G<35 214 35 35 502 681 502 502> 680 20G<48 227 227 227 488 668 668 668>
VStem: 35 646<0 0>
AnchorPoint: "Anchor-0" 358 0 basechar 0
LayerCount: 2
Fore
SplineSet
502 0 m 1
 358 221 l 1
 214 0 l 1
 35 0 l 1
 269 360 l 1
 48 700 l 1
 227 700 l 1
 358 499 l 1
 488 700 l 1
 668 700 l 1
 448 360 l 1
 681 0 l 1
 502 0 l 1
EndSplineSet
Position2: "'cpsp' Capital Spacing in Latin lookup 0 subtable" dx=5 dy=0 dh=10 dv=0
EndChar

StartChar: Y
Encoding: 89 89 79
Width: 707
GlyphClass: 2
Flags: MW
HStem: 0 21G<278 278 278 429> 680 20G<12 184 184 184 523 695 695 695>
VStem: 278 151<0 272 0 272>
AnchorPoint: "Anchor-0" 354 0 basechar 0
LayerCount: 2
Fore
SplineSet
278 0 m 1
 278 272 l 1
 12 700 l 1
 184 700 l 1
 354 434 l 1
 523 700 l 1
 695 700 l 1
 429 272 l 1
 429 0 l 1
 278 0 l 1
EndSplineSet
Position2: "'cpsp' Capital Spacing in Latin lookup 0 subtable" dx=5 dy=0 dh=10 dv=0
EndChar

StartChar: Z
Encoding: 90 90 80
Width: 635
GlyphClass: 2
Flags: MW
HStem: 0 144<238 586 238 586> 556 144<61 384 61 586>
VStem: 40 546<0 114 114 114>
AnchorPoint: "Anchor-0" 319 0 basechar 0
LayerCount: 2
Fore
SplineSet
40 0 m 1
 40 114 l 1
 384 556 l 1
 61 556 l 1
 61 700 l 1
 586 700 l 1
 586 587 l 1
 238 144 l 1
 586 144 l 1
 586 0 l 1
 40 0 l 1
EndSplineSet
Position2: "'cpsp' Capital Spacing in Latin lookup 0 subtable" dx=5 dy=0 dh=10 dv=0
EndChar

StartChar: bracketleft
Encoding: 91 91 81
Width: 401
Flags: MW
HStem: -130 140<245 361 245 361> 572 140<245 361 245 245>
VStem: 100 145<10 572 10 712 10 712>
LayerCount: 2
Fore
SplineSet
100 -130 m 1
 100 712 l 1
 361 712 l 1
 361 572 l 1
 245 572 l 1
 245 10 l 1
 361 10 l 1
 361 -130 l 1
 100 -130 l 1
EndSplineSet
EndChar

StartChar: backslash
Encoding: 92 92 82
Width: 539
Flags: MW
HStem: 692 20G<-15 136 136 136>
VStem: -15 544
LayerCount: 2
Fore
SplineSet
378 -130 m 1
 -15 712 l 1
 136 712 l 1
 529 -130 l 1
 378 -130 l 1
EndSplineSet
EndChar

StartChar: bracketright
Encoding: 93 93 83
Width: 401
Flags: MW
HStem: -130 140<40 154 40 301 40 154> 572 140<40 154 40 301>
VStem: 154 147<10 572 572 572>
LayerCount: 2
Fore
SplineSet
301 -130 m 1
 40 -130 l 1
 40 10 l 1
 154 10 l 1
 154 572 l 1
 40 572 l 1
 40 712 l 1
 301 712 l 1
 301 -130 l 1
EndSplineSet
EndChar

StartChar: asciicircum
Encoding: 94 94 84
Width: 630
Flags: MW
HStem: 692 20G<263 367 367 367>
VStem: 51 528<335 335>
LayerCount: 2
Fore
SplineSet
428 335 m 1
 315 522 l 1
 202 335 l 1
 51 335 l 1
 263 712 l 1
 367 712 l 1
 579 335 l 1
 428 335 l 1
EndSplineSet
EndChar

StartChar: underscore
Encoding: 95 95 85
Width: 500
Flags: MW
HStem: -177 105<-5 505 -5 505>
VStem: -5 510<-177 -72 -177 -72>
LayerCount: 2
Fore
SplineSet
-5 -177 m 1
 -5 -72 l 1
 505 -72 l 1
 505 -177 l 1
 -5 -177 l 1
EndSplineSet
EndChar

StartChar: grave
Encoding: 96 96 86
Width: 517
Flags: MW
HStem: 576 156<84 262 84 399>
VStem: 84 315<576 732>
LayerCount: 2
Fore
SplineSet
262 576 m 1
 84 732 l 1
 257 732 l 1
 399 576 l 1
 262 576 l 1
EndSplineSet
EndChar

StartChar: a
Encoding: 97 97 87
Width: 573
GlyphClass: 2
Flags: MW
HStem: -12 122<240 270> 0 110<240 364 240 508> 204 116<252 277 201.5 293> 402 121<252.5 306>
VStem: 45 142<141 173.5 141 212> 364 144<0 38 38 38 146 192 192 192 302 323 0 330 0 354>
AnchorPoint: "Anchor-0" 238 0 basechar 0
LayerCount: 2
Fore
SplineSet
364 0 m 1x7c
 364 38 l 1
 339 11 303 -12 237 -12 c 0xbc
 129 -12 45 44 45 156 c 0
 45 268 151 320 252 320 c 0
 302 320 335 315 364 302 c 1
 364 330 l 2
 364 378 331 402 281 402 c 0
 224 402 171 384 117 348 c 1
 72 459 l 1
 125 495 201 523 291 523 c 0
 386 523 508 499 508 323 c 2
 508 0 l 1
 364 0 l 1x7c
265 110 m 0
 309 110 340 127 364 146 c 1
 364 192 l 1
 337 200 309 204 277 204 c 0
 227 204 187 192 187 155 c 0
 187 127 215 110 265 110 c 0
EndSplineSet
Substitution2: "Single Substitution lookup 21 subtable" ordfeminine
Substitution2: "'aalt' Access All Alternates in Latin lookup 0 subtable" ordfeminine
EndChar

StartChar: b
Encoding: 98 98 88
Width: 584
GlyphClass: 2
Flags: MW
HStem: -12 140<292.5 328 277.5 381> 0 128<75 328> 383 140<298 327>
VStem: 75 145<0 39 0 160 160 350 474 657 657 657> 389 145<216.5 297>
AnchorPoint: "Anchor-0" 292 0 basechar 0
LayerCount: 2
Fore
SplineSet
314 -12 m 0xb8
 271 -12 242 2 220 39 c 1xb8
 220 0 l 1
 75 0 l 1x78
 75 657 l 1
 220 722 l 1
 220 474 l 1
 241 503 274 523 322 523 c 0
 442 523 534 420 534 256 c 0
 534 83 448 -12 314 -12 c 0xb8
298 128 m 0
 358 128 389 177 389 256 c 0
 389 338 356 383 298 383 c 0
 257 383 233 366 220 350 c 1
 220 160 l 1
 237 138 257 128 298 128 c 0
EndSplineSet
EndChar

StartChar: c
Encoding: 99 99 89
Width: 564
GlyphClass: 2
Flags: MW
HStem: -12 139<263 310 263 347> 384 139<264 311>
VStem: 50 147<216.5 293 216.5 337.5>
AnchorPoint: "Anchor-0" 285 0 basechar 0
LayerCount: 2
Fore
SplineSet
289 -12 m 0
 146 -12 50 87 50 255 c 0
 50 420 146 523 289 523 c 0
 398 523 478 474 513 363 c 1
 375 318 l 1
 360 357 331 384 291 384 c 0
 237 384 197 331 197 255 c 0
 197 178 237 127 289 127 c 0
 331 127 360 153 375 201 c 1
 514 161 l 1
 480 45 405 -12 289 -12 c 0
EndSplineSet
EndChar

StartChar: d
Encoding: 100 100 90
Width: 584
GlyphClass: 2
Flags: MW
HStem: -12 140<254 285> 0 128<254 509 254 364> 383 140<256.5 286 202 305.5>
VStem: 50 145<215 297 215 338> 364 145<0 42 42 42 160 349 349 349 472 657 657 657>
AnchorPoint: "Anchor-0" 292 0 basechar 0
LayerCount: 2
Fore
SplineSet
260 -12 m 0xb8
 133 -12 50 80 50 256 c 0
 50 420 142 523 262 523 c 0
 310 523 343 502 364 472 c 1
 364 657 l 1
 509 722 l 1
 509 0 l 1
 364 0 l 1x78
 364 42 l 1
 345 6 310 -12 260 -12 c 0xb8
285 128 m 0
 327 128 348 138 364 160 c 1
 364 349 l 1
 352 364 326 383 285 383 c 0
 228 383 195 338 195 256 c 0
 195 174 223 128 285 128 c 0
EndSplineSet
EndChar

StartChar: e
Encoding: 101 101 91
Width: 568
GlyphClass: 2
Flags: MW
HStem: -12 123<266 318.5 266 337> 206 109<193 384 193 519 192 384> 400 123<261.5 317>
VStem: 50 142<206 206 206 338> 384 139<315 315>
AnchorPoint: "Anchor-0" 293 0 basechar 0
LayerCount: 2
Fore
SplineSet
293 -12 m 0
 142 -12 50 88 50 256 c 0
 50 420 144 523 293 523 c 0
 422 523 523 445 523 281 c 0
 523 262 523 232 519 206 c 1
 192 206 l 1
 195 138 239 111 293 111 c 0
 344 111 376 127 408 165 c 1
 492 81 l 1
 445 24 381 -12 293 -12 c 0
193 315 m 1
 384 315 l 1
 377 369 347 400 287 400 c 0
 236 400 200 369 193 315 c 1
EndSplineSet
EndChar

StartChar: f
Encoding: 102 102 92
Width: 376
GlyphClass: 2
Flags: MW
HStem: 0 21G<103 248 103 103> 384 127<35 103 35 103 248 355> 586 126<202 286.5>
VStem: 103 145<0 384 0 384 511 557>
AnchorPoint: "Anchor-0" 189 0 basechar 0
LayerCount: 2
Fore
SplineSet
248 384 m 1
 248 0 l 1
 103 0 l 1
 103 384 l 1
 35 384 l 1
 35 511 l 1
 103 511 l 1
 103 587 l 2
 103 692 170 712 234 712 c 0
 276 712 314 708 355 686 c 1
 355 569 l 1
 313 586 291 586 282 586 c 0
 265 586 248 580 248 557 c 2
 248 511 l 1
 355 511 l 1
 355 384 l 1
 248 384 l 1
EndSplineSet
EndChar

StartChar: g
Encoding: 103 103 93
Width: 584
GlyphClass: 2
Flags: MW
HStem: -12 140<251.5 278> 383 128<256 509> 383 140<256 281.5 199.5 310.5>
VStem: 50 145<219.5 297 219.5 338> 364 145<159 350 350 350 489 511>
AnchorPoint: "Anchor-0" 292 0 basechar 0
LayerCount: 2
Fore
SplineSet
364 511 m 1xd8
 509 511 l 1xd8
 509 89 l 2
 509 -95 481 -183 268 -200 c 1
 185 -76 l 1
 314 -65 363 -58 364 20 c 1
 333 -9 294 -12 262 -12 c 0
 137 -12 50 78 50 256 c 0
 50 420 137 523 262 523 c 0
 301 523 334 517 364 489 c 1xb8
 364 511 l 1xd8
364 159 m 1
 364 350 l 1
 351 361 337 383 284 383 c 0xb8
 228 383 195 338 195 256 c 0
 195 183 219 128 284 128 c 0
 327 128 346 138 364 159 c 1
EndSplineSet
EndChar

StartChar: h
Encoding: 104 104 94
Width: 606
GlyphClass: 2
Flags: MW
HStem: 0 21G<75 75 75 220 391 391 391 536> 383 140<328 339.5>
VStem: 75 145<0 276 464 655 655 655> 391 145<0 274 274 311.5>
AnchorPoint: "Anchor-0" 304 0 basechar 0
LayerCount: 2
Fore
SplineSet
75 0 m 1
 75 655 l 1
 220 722 l 1
 220 464 l 1
 251 501 297 523 359 523 c 0
 437 523 536 481 536 332 c 2
 536 0 l 1
 391 0 l 1
 391 274 l 2
 391 349 369 383 310 383 c 0
 254 383 220 351 220 276 c 2
 220 0 l 1
 75 0 l 1
EndSplineSet
EndChar

StartChar: i
Encoding: 105 105 95
Width: 297
GlyphClass: 2
Flags: MW
HStem: 0 21G<76 76 76 221> 491 20G<76 221 221 221> 560 165<126 172.5>
VStem: 65 167<620.5 666> 76 145<0 511 0 511>
AnchorPoint: "Anchor-0" 149 0 basechar 0
LayerCount: 2
Fore
SplineSet
149 560 m 0xf0
 103 560 65 598 65 643 c 0
 65 689 103 725 149 725 c 0
 196 725 232 689 232 643 c 0
 232 598 196 560 149 560 c 0xf0
76 0 m 1xe8
 76 511 l 1
 221 511 l 1
 221 0 l 1
 76 0 l 1xe8
EndSplineSet
Substitution2: "'locl' Localized Forms in Latin lookup 10 subtable" i.TRK
Substitution2: "'locl' Localized Forms in Latin lookup 9 subtable" i.TRK
Substitution2: "'locl' Localized Forms in Latin lookup 8 subtable" i.TRK
Substitution2: "'locl' Localized Forms in Latin lookup 7 subtable" i.TRK
Substitution2: "'locl' Localized Forms in Latin lookup 6 subtable" i.TRK
Substitution2: "'aalt' Access All Alternates in Latin lookup 0 subtable" i.TRK
EndChar

StartChar: j
Encoding: 106 106 96
Width: 297
Flags: MW
HStem: 491 20G<76 221 221 221> 560 165<126 172.5>
VStem: 65 167<620.5 666> 76 145<1 30 30 511>
LayerCount: 2
Fore
SplineSet
149 560 m 0xe0
 103 560 65 598 65 643 c 0
 65 689 103 725 149 725 c 0
 196 725 232 689 232 643 c 0
 232 598 196 560 149 560 c 0xe0
6 -214 m 1
 -69 -97 l 1
 38 -72 76 -50 76 0 c 2
 76 511 l 1
 221 511 l 1
 221 30 l 2
 221 -28 213 -87 170 -132 c 0xd0
 121 -184 57 -202 6 -214 c 1
EndSplineSet
Substitution2: "Single Substitution lookup 19 subtable" jacute
Substitution2: "'aalt' Access All Alternates in Latin lookup 0 subtable" jacute
EndChar

StartChar: k
Encoding: 107 107 97
Width: 575
GlyphClass: 2
Flags: MW
HStem: 0 21G<75 220 75 75 393 551 393 393> 360 151<365 365> 491 20G<349 521 521 521>
VStem: 75 145<0 222 383 654 654 654>
AnchorPoint: "Anchor-0" 288 0 basechar 0
LayerCount: 2
Fore
SplineSet
551 0 m 1xb0
 393 0 l 1
 258 257 l 1
 220 222 l 1
 220 0 l 1
 75 0 l 1
 75 654 l 1
 220 722 l 1
 220 383 l 1
 349 511 l 1
 521 511 l 1
 365 360 l 1xd0
 551 0 l 1xb0
EndSplineSet
EndChar

StartChar: l
Encoding: 108 108 98
Width: 305
GlyphClass: 2
Flags: MW
HStem: 0 21G<80 80 80 225>
VStem: 80 145<0 654 654 654>
AnchorPoint: "Anchor-0" 153 0 basechar 0
LayerCount: 2
Fore
SplineSet
80 0 m 1
 80 654 l 1
 225 722 l 1
 225 0 l 1
 80 0 l 1
EndSplineSet
EndChar

StartChar: m
Encoding: 109 109 99
Width: 890
GlyphClass: 2
Flags: MW
HStem: 0 21G<75 220 75 75 375 520 375 375 675 820 675 675> 383 128<75 329.5> 383 140<308 329.5 594 629.5>
VStem: 75 145<0 268 464 511> 375 145<0 264 264 268 0 308.5> 675 145<0 264 264 308.5>
AnchorPoint: "Anchor-0" 446 0 basechar 0
LayerCount: 2
Fore
SplineSet
675 0 m 1xbc
 675 264 l 2
 675 353 657 383 602 383 c 0
 538 383 520 352 520 268 c 2
 520 0 l 1
 375 0 l 1
 375 264 l 2
 375 353 357 383 302 383 c 0xbc
 239 383 220 352 220 268 c 2
 220 0 l 1
 75 0 l 1
 75 511 l 1
 220 511 l 1xdc
 220 464 l 1
 247 497 279 523 337 523 c 0
 406 523 444 496 465 452 c 1
 503 504 563 523 625 523 c 0
 737 523 820 479 820 316 c 2
 820 0 l 1
 675 0 l 1xbc
EndSplineSet
EndChar

StartChar: n
Encoding: 110 110 100
Width: 606
GlyphClass: 2
Flags: MW
HStem: 0 21G<75 220 75 75 391 536 391 391> 383 128<75 340> 383 140<328 340>
VStem: 75 145<0 268 464 511> 391 145<0 266 266 306.5>
AnchorPoint: "Anchor-0" 304 0 basechar 0
LayerCount: 2
Fore
SplineSet
391 0 m 1xd8
 391 266 l 2
 391 347 370 383 310 383 c 0
 246 383 220 345 220 268 c 2
 220 0 l 1
 75 0 l 1
 75 511 l 1
 220 511 l 1xd8
 220 464 l 1
 251 501 297 523 359 523 c 0xb8
 437 523 536 481 536 332 c 2
 536 0 l 1
 391 0 l 1xd8
EndSplineSet
Substitution2: "'sups' Superscript in Latin lookup 11 subtable" uni207F
Substitution2: "'aalt' Access All Alternates in Latin lookup 0 subtable" uni207F
EndChar

StartChar: o
Encoding: 111 111 101
Width: 572
GlyphClass: 2
Flags: MW
HStem: -12 140<259 315.5 259 359> 383 140<259 315.5>
VStem: 50 145<215 295 215 337.5> 377 145<215 295>
AnchorPoint: "Anchor-0" 286 0 basechar 0
LayerCount: 2
Fore
SplineSet
287 -12 m 0
 142 -12 50 87 50 255 c 0
 50 420 142 523 287 523 c 0
 431 523 522 420 522 255 c 0
 522 87 431 -12 287 -12 c 0
287 128 m 0
 344 128 377 175 377 255 c 0
 377 335 344 383 287 383 c 0
 231 383 195 335 195 255 c 0
 195 175 231 128 287 128 c 0
EndSplineSet
Substitution2: "Single Substitution lookup 21 subtable" ordmasculine
Substitution2: "'aalt' Access All Alternates in Latin lookup 0 subtable" ordmasculine
EndChar

StartChar: p
Encoding: 112 112 102
Width: 584
GlyphClass: 2
Flags: MW
HStem: -12 140<298 327 276.5 381> 383 128<75 329> 383 140<299.5 329>
VStem: 75 145<-134 33 -134 161 161 352 476 511> 389 145<215 294.5>
AnchorPoint: "Anchor-0" 292 0 basechar 0
LayerCount: 2
Fore
SplineSet
321 -12 m 0xb8
 275 -12 242 5 220 33 c 1
 220 -134 l 1
 75 -199 l 1
 75 511 l 1
 220 511 l 1xd8
 220 476 l 1
 241 505 276 523 323 523 c 0
 447 523 534 431 534 255 c 0
 534 87 441 -12 321 -12 c 0xb8
298 128 m 0
 356 128 389 175 389 255 c 0
 389 334 360 383 298 383 c 0
 258 383 237 370 220 352 c 1
 220 161 l 1
 227 145 255 128 298 128 c 0
EndSplineSet
EndChar

StartChar: q
Encoding: 113 113 103
Width: 584
GlyphClass: 2
Flags: MW
HStem: -12 140<257 286> 383 128<255.5 509> 383 140<255.5 292.5 206.5 306.5>
VStem: 50 145<215 294.5 215 343> 364 145<-134 33 33 33 161 352 352 352 476 511 -134 511>
AnchorPoint: "Anchor-0" 292 0 basechar 0
LayerCount: 2
Fore
SplineSet
262 -12 m 0xb8
 142 -12 50 87 50 255 c 0
 50 431 143 523 270 523 c 0
 315 523 344 510 364 476 c 1xb8
 364 511 l 1
 509 511 l 1xd8
 509 -134 l 1
 364 -200 l 1
 364 33 l 1
 344 7 310 -12 262 -12 c 0xb8
286 128 m 0
 326 128 355 142 364 161 c 1
 364 352 l 1
 348 369 327 383 286 383 c 0
 225 383 195 334 195 255 c 0
 195 175 228 128 286 128 c 0
EndSplineSet
EndChar

StartChar: r
Encoding: 114 114 104
Width: 431
GlyphClass: 2
Flags: MW
HStem: 0 21G<75 75 75 220> 383 128<75 329> 383 140<290.5 329>
VStem: 75 145<0 277 465 511>
AnchorPoint: "Anchor-0" 147 -5 basechar 0
LayerCount: 2
Fore
SplineSet
75 0 m 1xb0
 75 511 l 1
 220 511 l 1xd0
 220 465 l 1
 230 485 264 523 317 523 c 0
 361 523 393 506 418 480 c 1
 399 348 l 1
 376 367 350 383 308 383 c 0
 262 383 220 359 220 277 c 2
 220 0 l 1
 75 0 l 1xb0
EndSplineSet
EndChar

StartChar: s
Encoding: 115 115 105
Width: 505
GlyphClass: 2
Flags: MW
HStem: -12 119<228.5 275 228.5 312> 404 119<229 263.5>
VStem: 57 130<359.5 382 359.5 424.5> 325 130<132.5 159.5>
AnchorPoint: "Anchor-0" 250 0 basechar 0
LayerCount: 2
Fore
SplineSet
250 -12 m 0
 166 -12 82 26 40 85 c 1
 133 164 l 1
 154 143 203 107 254 107 c 0
 296 107 325 118 325 147 c 0
 325 172 299 184 238 207 c 0
 121 246 57 285 57 378 c 0
 57 471 144 523 247 523 c 0
 337 523 399 483 439 438 c 1
 345 361 l 1
 307 396 280 404 247 404 c 0
 211 404 187 393 187 371 c 0
 187 348 234 328 287 315 c 1
 363 290 455 254 455 147 c 0
 455 45 374 -12 250 -12 c 0
EndSplineSet
EndChar

StartChar: t
Encoding: 116 116 106
Width: 401
GlyphClass: 2
Flags: MW
HStem: -12 21G<183.5 251.5> -12 125<183.5 287> 384 127<30 100 30 100 244 355>
VStem: 100 144<132 142 142 384 511 653 653 653>
AnchorPoint: "Anchor-0" 223 0 basechar 0
LayerCount: 2
Fore
SplineSet
229 -12 m 0xb0
 138 -12 100 38 100 128 c 2
 100 384 l 1
 30 384 l 1
 30 511 l 1
 100 511 l 1
 100 653 l 1
 244 722 l 1
 244 511 l 1
 355 511 l 1
 355 384 l 1
 244 384 l 1
 244 142 l 2
 244 122 259 113 273 113 c 0
 301 113 330 119 361 133 c 1x70
 345 11 l 1
 312 -5 274 -12 229 -12 c 0xb0
EndSplineSet
EndChar

StartChar: u
Encoding: 117 117 107
Width: 606
GlyphClass: 2
Flags: MW
HStem: -12 140<265.5 276.5> 0 128<265.5 386 265.5 531> 491 20G<70 215 215 215 386 531 531 531>
VStem: 70 145<205.5 245 245 511> 386 145<0 47 47 47 243 511 0 511>
AnchorPoint: "Anchor-0" 267 0 basechar 0
LayerCount: 2
Fore
SplineSet
386 0 m 1x78
 386 47 l 1
 357 11 307 -12 246 -12 c 0xb8
 170 -12 70 32 70 179 c 2
 70 511 l 1
 215 511 l 1
 215 245 l 2
 215 166 234 128 297 128 c 0
 359 128 386 164 386 243 c 2
 386 511 l 1
 531 511 l 1
 531 0 l 1
 386 0 l 1x78
EndSplineSet
EndChar

StartChar: v
Encoding: 118 118 108
Width: 581
GlyphClass: 2
Flags: MW
HStem: 0 21G<212 212 212 369> 491 20G<25 176 176 176 405 556 556 556>
VStem: 25 531<511 511>
AnchorPoint: "Anchor-0" 291 0 basechar 0
LayerCount: 2
Fore
SplineSet
212 0 m 1
 25 511 l 1
 176 511 l 1
 277 226 l 2
 282 213 287 194 291 178 c 1
 295 194 300 213 305 226 c 2
 405 511 l 1
 556 511 l 1
 369 0 l 1
 212 0 l 1
EndSplineSet
EndChar

StartChar: w
Encoding: 119 119 109
Width: 765
GlyphClass: 2
Flags: MW
HStem: 0 21G<182 182 182 310 454 454 454 582> 491 20G<35 178 178 178 317 447 447 447 587 730 730 730>
VStem: 35 695<511 511>
AnchorPoint: "Anchor-0" 384 0 basechar 0
LayerCount: 2
Fore
SplineSet
182 0 m 1
 35 511 l 1
 178 511 l 1
 231 301 l 2
 236 284 240 247 246 226 c 1
 251 247 258 283 263 301 c 2
 317 511 l 1
 447 511 l 1
 500 301 l 2
 505 283 511 247 517 226 c 1
 522 247 526 284 531 301 c 2
 587 511 l 1
 730 511 l 1
 582 0 l 1
 454 0 l 1
 400 232 l 2
 398 245 386 287 383 315 c 1
 379 287 367 246 364 232 c 2
 310 0 l 1
 182 0 l 1
EndSplineSet
EndChar

StartChar: x
Encoding: 120 120 110
Width: 608
GlyphClass: 2
Flags: MW
HStem: 0 21G<26 26 26 195 413 413 413 582> 491 20G<39 208 208 208 401 570 570 570>
VStem: 26 556<0 0>
AnchorPoint: "Anchor-0" 305 0 basechar 0
LayerCount: 2
Fore
SplineSet
26 0 m 1
 220 264 l 1
 39 511 l 1
 208 511 l 1
 272 422 l 2
 283 407 299 388 304 375 c 1
 311 388 323 408 334 422 c 2
 401 511 l 1
 570 511 l 1
 389 264 l 1
 582 0 l 1
 413 0 l 1
 334 105 l 2
 323 120 311 140 304 153 c 1
 299 140 283 121 272 105 c 2
 195 0 l 1
 26 0 l 1
EndSplineSet
EndChar

StartChar: y
Encoding: 121 121 111
Width: 588
GlyphClass: 2
Flags: MW
HStem: 491 20G<25 175 175 175 414 563 563 563>
VStem: 25 538<511 511>
AnchorPoint: "Anchor-0" 295 0 basechar 0
LayerCount: 2
Fore
SplineSet
141 -194 m 1
 218 6 l 1
 25 511 l 1
 175 511 l 1
 279 238 l 2
 284 225 291 206 295 190 c 1
 299 206 306 225 311 238 c 2
 414 511 l 1
 563 511 l 1
 291 -194 l 1
 141 -194 l 1
EndSplineSet
EndChar

StartChar: z
Encoding: 122 122 112
Width: 563
GlyphClass: 2
Flags: MW
HStem: 0 130<244 502 244 502> 382 129<73 315 73 503>
VStem: 55 448<0 511 112 511>
AnchorPoint: "Anchor-0" 281 0 basechar 0
LayerCount: 2
Fore
SplineSet
55 0 m 1
 55 112 l 1
 315 382 l 1
 73 382 l 1
 73 511 l 1
 503 511 l 1
 503 402 l 1
 244 130 l 1
 502 130 l 1
 502 0 l 1
 55 0 l 1
EndSplineSet
EndChar

StartChar: braceleft
Encoding: 123 123 113
Width: 388
Flags: MW
HStem: -130 133<348 348> 225 133<40 78 40 78> 578 134<348 348> 692 20G<348 348>
VStem: 107 145<105 164 62.5 175 62.5 189.5 407 417 417 476 476 493>
LayerCount: 2
Fore
SplineSet
348 -130 m 1xd8
 203 -127 107 -48 107 105 c 2
 107 175 l 2
 107 204 99 225 78 225 c 2
 40 225 l 1
 40 358 l 1
 78 358 l 2
 99 358 107 379 107 407 c 2
 107 476 l 2
 107 630 203 706 348 712 c 1
 348 578 l 1
 284 573 252 545 252 493 c 2xe8
 252 417 l 2
 252 350 229 311 197 291 c 1
 231 272 252 220 252 164 c 2
 252 89 l 2
 252 36 284 6 348 3 c 1
 348 -130 l 1xd8
EndSplineSet
EndChar

StartChar: bar
Encoding: 124 124 114
Width: 315
Flags: MW
HStem: -378 1440<85 230 85 230>
VStem: 85 145<-378 1062 -378 1062>
LayerCount: 2
Fore
SplineSet
85 -378 m 1
 85 1062 l 1
 230 1062 l 1
 230 -378 l 1
 85 -378 l 1
EndSplineSet
EndChar

StartChar: braceright
Encoding: 125 125 115
Width: 388
Flags: MW
HStem: -130 133<40 40> 225 133<301 348 309 348> 578 134<40 40> 692 20G<40 40>
VStem: 136 145<89 105 105 164 164 175 28.5 192 417 476>
LayerCount: 2
Fore
SplineSet
40 -130 m 1xd8
 40 3 l 1
 105 6 136 36 136 89 c 2
 136 164 l 2
 136 220 158 272 190 291 c 1
 160 311 136 350 136 417 c 2
 136 493 l 2
 136 545 105 573 40 578 c 1xe8
 40 712 l 1
 186 706 281 630 281 476 c 2
 281 407 l 2
 281 379 293 358 309 358 c 2
 348 358 l 1
 348 225 l 1
 309 225 l 2
 293 225 281 204 281 175 c 2
 281 105 l 2
 281 -48 186 -127 40 -130 c 1xd8
EndSplineSet
EndChar

StartChar: asciitilde
Encoding: 126 126 116
Width: 630
Flags: MW
HStem: 247 194<172.5 196 77 267 433 459> 299 142<220 256>
VStem: 77 119<247 298> 433 119<390 441>
LayerCount: 2
Fore
SplineSet
405 247 m 0xb0
 320 247 278 299 234 299 c 0x70
 206 299 200 277 196 247 c 1
 77 247 l 1xb0
 77 349 121 441 224 441 c 0x70
 310 441 343 389 395 389 c 0
 423 389 430 410 433 441 c 1
 552 441 l 1
 552 339 513 247 405 247 c 0xb0
EndSplineSet
EndChar

StartChar: Adieresis
Encoding: 278 196 117
Width: 737
GlyphClass: 2
Flags: MW
HStem: 0 21G<19 185 19 19 552 718 552 552> 136 140<287 449 287 500 237 449> 680 20G<295 441 441 441> 765 157<248 293.5 444 489>
VStem: 193 157<820 865.5> 388 157<820 865.5>
AnchorPoint: "Anchor-0" 369 0 basechar 0
LayerCount: 2
Fore
SplineSet
271 765 m 0
 225 765 193 797 193 843 c 0
 193 888 225 922 271 922 c 0
 316 922 350 888 350 843 c 0
 350 797 316 765 271 765 c 0
467 765 m 0
 421 765 388 797 388 843 c 0
 388 888 421 922 467 922 c 0
 511 922 545 888 545 843 c 0
 545 797 511 765 467 765 c 0
552 0 m 1
 500 136 l 1
 237 136 l 1
 185 0 l 1
 19 0 l 1
 295 700 l 1
 441 700 l 1
 718 0 l 1
 552 0 l 1
449 276 m 1
 389 427 l 2
 382 444 373 468 368 486 c 1
 364 468 354 444 347 427 c 2
 287 276 l 1
 449 276 l 1
EndSplineSet
Position2: "'cpsp' Capital Spacing in Latin lookup 0 subtable" dx=5 dy=0 dh=10 dv=0
EndChar

StartChar: Aring
Encoding: 279 197 118
Width: 737
Flags: MW
HStem: 0 21G<19 19 19 185 552 552 552 718> 136 140<287 449 287 500 237 449> 785 96<357.5 378>
VStem: 235 98<738.5 759.5 738.5 785.5> 404 98<738.5 759.5>
LayerCount: 2
Fore
SplineSet
19 0 m 1
 278 653 l 1
 252 676 235 712 235 749 c 0
 235 822 295 881 369 881 c 0
 440 881 502 822 502 749 c 0
 502 712 487 676 460 652 c 1
 718 0 l 1
 552 0 l 1
 500 136 l 1
 237 136 l 1
 185 0 l 1
 19 0 l 1
369 713 m 0
 387 713 404 728 404 749 c 0
 404 770 387 785 369 785 c 0
 346 785 333 770 333 749 c 0
 333 728 346 713 369 713 c 0
287 276 m 1
 449 276 l 1
 389 427 l 2
 382 444 373 468 368 486 c 1
 364 468 354 444 347 427 c 2
 287 276 l 1
EndSplineSet
Position2: "'cpsp' Capital Spacing in Latin lookup 0 subtable" dx=5 dy=0 dh=10 dv=0
EndChar

StartChar: Ccedilla
Encoding: 280 199 119
Width: 635
Flags: MW
HStem: -247 76<314.5 339.5 314.5 384.5> -98 54<316 405> -8 21G<306 306 388 388> 564 146<293 372.5>
VStem: 50 158<300.5 398 300.5 429.5> 371 109<-146.5 -123.5>
LayerCount: 2
Fore
SplineSet
338 -247 m 0
 278 -247 243 -225 223 -195 c 1
 282 -150 l 1
 290 -162 305 -171 324 -171 c 0
 355 -171 371 -158 371 -135 c 0
 371 -112 355 -98 324 -98 c 0
 308 -98 294 -105 280 -115 c 1
 249 -77 l 1
 306 -8 l 1
 117 14 50 187 50 350 c 0
 50 509 127 710 345 710 c 0
 480 710 568 627 602 542 c 1
 466 481 l 1
 431 534 400 564 345 564 c 0
 241 564 208 446 208 350 c 0
 208 251 249 136 345 136 c 0
 396 136 432 173 464 226 c 1
 603 174 l 1
 561 74 492 7 388 -8 c 1
 366 -44 l 1
 444 -44 480 -82 480 -136 c 0
 480 -201 431 -247 338 -247 c 0
EndSplineSet
Position2: "'cpsp' Capital Spacing in Latin lookup 0 subtable" dx=5 dy=0 dh=10 dv=0
EndChar

StartChar: Eacute
Encoding: 281 201 120
Width: 637
GlyphClass: 2
Flags: MW
HStem: 0 145<227 598 227 598> 289 144<227 423 227 423> 556 144<227 578 227 227> 765 156<214 529 214 529>
VStem: 75 152<145 289 433 556>
AnchorPoint: "Anchor-0" 318 0 basechar 0
LayerCount: 2
Fore
SplineSet
214 765 m 1
 356 921 l 1
 529 921 l 1
 351 765 l 1
 214 765 l 1
75 0 m 1
 75 700 l 1
 578 700 l 1
 578 556 l 1
 227 556 l 1
 227 433 l 1
 423 433 l 1
 423 289 l 1
 227 289 l 1
 227 145 l 1
 598 145 l 1
 598 0 l 1
 75 0 l 1
EndSplineSet
Position2: "'cpsp' Capital Spacing in Latin lookup 0 subtable" dx=5 dy=0 dh=10 dv=0
EndChar

StartChar: Ntilde
Encoding: 282 209 121
Width: 723
GlyphClass: 2
Flags: MW
HStem: 0 21G<75 225 75 75 516 649 516 516> 680 20G<75 214 214 214 497 649 649 649> 770 102<431 469.5 431 495> 815 101<272.5 310>
VStem: 75 150<0 371 0 700> 171 67<774 790 774 814> 497 152<334 700> 504 66<896.5 912>
AnchorPoint: "Anchor-0" 361 0 basechar 0
LayerCount: 2
Fore
SplineSet
450 770 m 0xe9
 379 770 335 815 285 815 c 0
 260 815 238 806 238 774 c 1
 171 774 l 1
 171 854 202 916 292 916 c 0xd6
 365 916 405 872 457 872 c 0
 482 872 504 881 504 912 c 1
 570 912 l 1
 570 834 540 770 450 770 c 0xe9
649 0 m 1xda
 516 0 l 1
 252 371 l 2
 245 380 230 408 222 424 c 1
 225 407 225 384 225 371 c 2
 225 0 l 1
 75 0 l 1
 75 700 l 1
 214 700 l 1
 471 333 l 2
 478 323 494 296 500 281 c 1
 498 295 497 323 497 334 c 2
 497 700 l 1
 649 700 l 1
 649 0 l 1xda
EndSplineSet
Position2: "'cpsp' Capital Spacing in Latin lookup 0 subtable" dx=5 dy=0 dh=10 dv=0
EndChar

StartChar: Odieresis
Encoding: 283 214 122
Width: 720
GlyphClass: 2
Flags: MW
HStem: -12 147<303.5 416.5 303.5 474> 566 146<303 418.5> 765 157<240 285.5 436 481>
VStem: 50 158<301.5 397 301.5 436.5> 185 157<820 865.5> 380 157<820 865.5> 513 158<303.5 399.5>
AnchorPoint: "Anchor-0" 361 0 basechar 0
LayerCount: 2
Fore
SplineSet
263 765 m 0xec
 217 765 185 797 185 843 c 0
 185 888 217 922 263 922 c 0
 308 922 342 888 342 843 c 0
 342 797 308 765 263 765 c 0xec
459 765 m 0
 413 765 380 797 380 843 c 0
 380 888 413 922 459 922 c 0
 503 922 537 888 537 843 c 0
 537 797 503 765 459 765 c 0
361 -12 m 0xf2
 134 -12 50 177 50 350 c 0
 50 523 134 712 361 712 c 0
 587 712 671 523 671 350 c 0
 671 177 587 -12 361 -12 c 0xf2
361 135 m 0
 472 135 513 257 513 350 c 0
 513 449 476 566 361 566 c 0
 245 566 208 444 208 350 c 0
 208 253 246 135 361 135 c 0
EndSplineSet
Position2: "'cpsp' Capital Spacing in Latin lookup 0 subtable" dx=5 dy=0 dh=10 dv=0
EndChar

StartChar: Udieresis
Encoding: 284 220 123
Width: 724
GlyphClass: 2
Flags: MW
HStem: -12 147<315.5 407 315.5 434> 680 20G<70 222 222 222 502 654 654 654> 765 157<241 286.5 437 482>
VStem: 70 152<270 700> 186 157<820 865.5> 381 157<820 865.5> 502 152<270 700>
AnchorPoint: "Anchor-0" 362 0 basechar 0
LayerCount: 2
Fore
SplineSet
264 765 m 0xec
 218 765 186 797 186 843 c 0
 186 888 218 922 264 922 c 0
 309 922 343 888 343 843 c 0
 343 797 309 765 264 765 c 0xec
460 765 m 0
 414 765 381 797 381 843 c 0
 381 888 414 922 460 922 c 0
 504 922 538 888 538 843 c 0
 538 797 504 765 460 765 c 0
362 -12 m 0xf2
 222 -12 70 57 70 270 c 2
 70 700 l 1
 222 700 l 1
 222 270 l 2
 222 167 269 135 362 135 c 0
 452 135 502 167 502 270 c 2
 502 700 l 1
 654 700 l 1
 654 270 l 2
 654 61 506 -12 362 -12 c 0xf2
EndSplineSet
Position2: "'cpsp' Capital Spacing in Latin lookup 0 subtable" dx=5 dy=0 dh=10 dv=0
EndChar

StartChar: aacute
Encoding: 285 225 124
Width: 573
GlyphClass: 2
Flags: MW
HStem: -12 122<240 270> 0 110<240 364 240 508> 204 116<252 277 201.5 293> 402 121<252.5 306> 576 156<175 490 175 490>
VStem: 45 142<141 173.5 141 212> 364 144<0 38 38 38 146 192 192 192 302 323 0 330 0 354>
AnchorPoint: "Anchor-0" 238 0 basechar 0
LayerCount: 2
Fore
SplineSet
175 576 m 1xba
 317 732 l 1
 490 732 l 1
 312 576 l 1
 175 576 l 1xba
364 0 m 1x7e
 364 38 l 1
 339 11 303 -12 237 -12 c 0xbe
 129 -12 45 44 45 156 c 0
 45 268 151 320 252 320 c 0
 302 320 335 315 364 302 c 1
 364 330 l 2
 364 378 331 402 281 402 c 0
 224 402 171 384 117 348 c 1
 72 459 l 1
 125 495 201 523 291 523 c 0
 386 523 508 499 508 323 c 2
 508 0 l 1
 364 0 l 1x7e
265 110 m 0
 309 110 340 127 364 146 c 1
 364 192 l 1
 337 200 309 204 277 204 c 0
 227 204 187 192 187 155 c 0
 187 127 215 110 265 110 c 0
EndSplineSet
EndChar

StartChar: agrave
Encoding: 286 224 125
Width: 573
GlyphClass: 2
Flags: MW
HStem: -12 122<240 270> 0 110<240 364 240 508> 204 116<252 277 201.5 293> 402 121<252.5 306> 576 156<97 275 97 412>
VStem: 45 142<141 173.5 141 212> 364 144<0 38 38 38 146 192 192 192 302 323 0 330 0 354>
AnchorPoint: "Anchor-0" 238 0 basechar 0
LayerCount: 2
Fore
SplineSet
275 576 m 1xba
 97 732 l 1
 270 732 l 1
 412 576 l 1
 275 576 l 1xba
364 0 m 1x7e
 364 38 l 1
 339 11 303 -12 237 -12 c 0xbe
 129 -12 45 44 45 156 c 0
 45 268 151 320 252 320 c 0
 302 320 335 315 364 302 c 1
 364 330 l 2
 364 378 331 402 281 402 c 0
 224 402 171 384 117 348 c 1
 72 459 l 1
 125 495 201 523 291 523 c 0
 386 523 508 499 508 323 c 2
 508 0 l 1
 364 0 l 1x7e
265 110 m 0
 309 110 340 127 364 146 c 1
 364 192 l 1
 337 200 309 204 277 204 c 0
 227 204 187 192 187 155 c 0
 187 127 215 110 265 110 c 0
EndSplineSet
EndChar

StartChar: acircumflex
Encoding: 287 226 126
Width: 573
GlyphClass: 2
Flags: MW
HStem: -12 122<240 270> 0 110<240 364 240 508> 204 116<252 277 201.5 293> 402 121<252.5 306> 576 156<83 361 83 361 225 502 225 371>
VStem: 45 142<141 173.5 141 212> 364 144<0 38 38 38 146 192 192 192 302 323 0 330 0 354>
AnchorPoint: "Anchor-0" 238 0 basechar 0
LayerCount: 2
Fore
SplineSet
371 576 m 1xba
 293 640 l 1
 214 576 l 1
 83 576 l 1
 225 732 l 1
 361 732 l 1
 502 576 l 1
 371 576 l 1xba
364 0 m 1x7e
 364 38 l 1
 339 11 303 -12 237 -12 c 0xbe
 129 -12 45 44 45 156 c 0
 45 268 151 320 252 320 c 0
 302 320 335 315 364 302 c 1
 364 330 l 2
 364 378 331 402 281 402 c 0
 224 402 171 384 117 348 c 1
 72 459 l 1
 125 495 201 523 291 523 c 0
 386 523 508 499 508 323 c 2
 508 0 l 1
 364 0 l 1x7e
265 110 m 0
 309 110 340 127 364 146 c 1
 364 192 l 1
 337 200 309 204 277 204 c 0
 227 204 187 192 187 155 c 0
 187 127 215 110 265 110 c 0
EndSplineSet
EndChar

StartChar: adieresis
Encoding: 288 228 127
Width: 573
GlyphClass: 2
Flags: MW
HStem: -12 122<240 270> 0 110<240 364 240 508> 204 116<252 277 201.5 293> 402 121<252.5 306> 576 157<172 217.5 368 413>
VStem: 45 142<141 173.5 141 212> 117 157<631 676.5> 312 157<631 676.5> 364 144<0 38 38 38 146 192 192 192 302 323 0 330 0 354>
AnchorPoint: "Anchor-0" 238 0 basechar 0
LayerCount: 2
Fore
SplineSet
195 576 m 0xba80
 149 576 117 608 117 654 c 0
 117 699 149 733 195 733 c 0
 240 733 274 699 274 654 c 0
 274 608 240 576 195 576 c 0xba80
391 576 m 0xbb
 345 576 312 608 312 654 c 0
 312 699 345 733 391 733 c 0
 435 733 469 699 469 654 c 0
 469 608 435 576 391 576 c 0xbb
364 0 m 1x7c80
 364 38 l 1
 339 11 303 -12 237 -12 c 0xbc80
 129 -12 45 44 45 156 c 0
 45 268 151 320 252 320 c 0
 302 320 335 315 364 302 c 1
 364 330 l 2
 364 378 331 402 281 402 c 0
 224 402 171 384 117 348 c 1
 72 459 l 1
 125 495 201 523 291 523 c 0
 386 523 508 499 508 323 c 2
 508 0 l 1
 364 0 l 1x7c80
265 110 m 0
 309 110 340 127 364 146 c 1
 364 192 l 1
 337 200 309 204 277 204 c 0
 227 204 187 192 187 155 c 0
 187 127 215 110 265 110 c 0
EndSplineSet
EndChar

StartChar: atilde
Encoding: 289 227 128
Width: 573
GlyphClass: 2
Flags: MW
HStem: -12 122<240 270> 0 110<240 364 240 508> 204 116<252 277 201.5 293> 402 121<252.5 306> 581 102<353 391.5 353 417> 626 101<194.5 232>
VStem: 45 142<141 173.5 141 212> 93 67<585 601 585 625> 364 144<0 38 38 38 146 192 192 192 302 323 0 330 0 354> 426 66<707.5 723>
AnchorPoint: "Anchor-0" 238 0 basechar 0
LayerCount: 2
Fore
SplineSet
372 581 m 0xb840
 301 581 257 626 207 626 c 0
 182 626 160 617 160 585 c 1
 93 585 l 1
 93 665 124 727 214 727 c 0xb580
 287 727 327 683 379 683 c 0
 404 683 426 692 426 723 c 1
 492 723 l 1
 492 645 462 581 372 581 c 0xb840
364 0 m 1x7680
 364 38 l 1
 339 11 303 -12 237 -12 c 0xb680
 129 -12 45 44 45 156 c 0
 45 268 151 320 252 320 c 0
 302 320 335 315 364 302 c 1
 364 330 l 2
 364 378 331 402 281 402 c 0
 224 402 171 384 117 348 c 1
 72 459 l 1
 125 495 201 523 291 523 c 0
 386 523 508 499 508 323 c 2
 508 0 l 1
 364 0 l 1x7680
265 110 m 0
 309 110 340 127 364 146 c 1
 364 192 l 1
 337 200 309 204 277 204 c 0
 227 204 187 192 187 155 c 0
 187 127 215 110 265 110 c 0
EndSplineSet
EndChar

StartChar: aring
Encoding: 290 229 129
Width: 573
GlyphClass: 2
Flags: MW
HStem: -12 122<240 270> 0 110<240 364 240 508> 204 116<252 277 201.5 293> 402 121<252.5 306> 556 97<282 301.5 282 330.5> 725 96<282 301.5>
VStem: 45 142<141 173.5 141 212> 159 98<678.5 699.5 678.5 726.5> 328 99<678.5 699.5> 364 144<0 38 38 38 146 192 192 192 302 323 0 330 0 354>
AnchorPoint: "Anchor-0" 238 0 basechar 0
LayerCount: 2
Fore
SplineSet
293 556 m 0xbd40
 218 556 159 616 159 689 c 0
 159 764 218 821 293 821 c 0
 368 821 427 764 427 689 c 0xbd80
 427 616 368 556 293 556 c 0xbd40
293 653 m 0xbd80
 310 653 328 668 328 689 c 0
 328 710 310 725 293 725 c 0
 271 725 257 710 257 689 c 0
 257 668 271 653 293 653 c 0xbd80
364 0 m 1x7e40
 364 38 l 1
 339 11 303 -12 237 -12 c 0xbe40
 129 -12 45 44 45 156 c 0
 45 268 151 320 252 320 c 0
 302 320 335 315 364 302 c 1
 364 330 l 2
 364 378 331 402 281 402 c 0
 224 402 171 384 117 348 c 1
 72 459 l 1
 125 495 201 523 291 523 c 0
 386 523 508 499 508 323 c 2
 508 0 l 1
 364 0 l 1x7e40
265 110 m 0
 309 110 340 127 364 146 c 1
 364 192 l 1
 337 200 309 204 277 204 c 0
 227 204 187 192 187 155 c 0
 187 127 215 110 265 110 c 0
EndSplineSet
EndChar

StartChar: ccedilla
Encoding: 291 231 130
Width: 564
Flags: MW
HStem: -247 76<244.5 270 244.5 315.5> -98 54<247 335> -7 21G<238 238> 384 139<264 311>
VStem: 50 147<216.5 293 216.5 337.5> 302 109<-146.5 -123.5>
LayerCount: 2
Fore
SplineSet
269 -247 m 0
 208 -247 174 -225 154 -195 c 1
 213 -150 l 1
 221 -162 235 -171 254 -171 c 0
 286 -171 302 -158 302 -135 c 0
 302 -112 286 -98 255 -98 c 0
 239 -98 225 -105 210 -115 c 1
 180 -77 l 1
 238 -7 l 1
 123 12 50 108 50 255 c 0
 50 420 146 523 289 523 c 0
 398 523 478 474 513 363 c 1
 375 318 l 1
 360 357 331 384 291 384 c 0
 237 384 197 331 197 255 c 0
 197 178 237 127 289 127 c 0
 331 127 360 153 375 201 c 1
 514 161 l 1
 484 55 416 -1 317 -11 c 1
 296 -44 l 1
 374 -44 411 -82 411 -136 c 0
 411 -201 362 -247 269 -247 c 0
EndSplineSet
EndChar

StartChar: eacute
Encoding: 292 233 131
Width: 568
GlyphClass: 2
Flags: MW
HStem: -12 123<266 318.5 266 337> 206 109<193 384 193 519 192 384> 400 123<261.5 317> 576 156<152 467 152 467>
VStem: 50 142<206 206 206 338> 384 139<315 315>
AnchorPoint: "Anchor-0" 293 0 basechar 0
LayerCount: 2
Fore
SplineSet
152 576 m 1
 294 732 l 1
 467 732 l 1
 289 576 l 1
 152 576 l 1
293 -12 m 0
 142 -12 50 88 50 256 c 0
 50 420 144 523 293 523 c 0
 422 523 523 445 523 281 c 0
 523 262 523 232 519 206 c 1
 192 206 l 1
 195 138 239 111 293 111 c 0
 344 111 376 127 408 165 c 1
 492 81 l 1
 445 24 381 -12 293 -12 c 0
193 315 m 1
 384 315 l 1
 377 369 347 400 287 400 c 0
 236 400 200 369 193 315 c 1
EndSplineSet
EndChar

StartChar: egrave
Encoding: 293 232 132
Width: 568
GlyphClass: 2
Flags: MW
HStem: -12 123<266 318.5 266 337> 206 109<193 384 193 519 192 384> 400 123<261.5 317> 576 156<119 297 119 434>
VStem: 50 142<206 206 206 338> 384 139<315 315>
AnchorPoint: "Anchor-0" 293 0 basechar 0
LayerCount: 2
Fore
SplineSet
297 576 m 1
 119 732 l 1
 292 732 l 1
 434 576 l 1
 297 576 l 1
293 -12 m 0
 142 -12 50 88 50 256 c 0
 50 420 144 523 293 523 c 0
 422 523 523 445 523 281 c 0
 523 262 523 232 519 206 c 1
 192 206 l 1
 195 138 239 111 293 111 c 0
 344 111 376 127 408 165 c 1
 492 81 l 1
 445 24 381 -12 293 -12 c 0
193 315 m 1
 384 315 l 1
 377 369 347 400 287 400 c 0
 236 400 200 369 193 315 c 1
EndSplineSet
EndChar

StartChar: ecircumflex
Encoding: 294 234 133
Width: 568
GlyphClass: 2
Flags: MW
HStem: -12 123<266 318.5 266 337> 206 109<193 384 193 519 192 384> 400 123<261.5 317> 576 156<83 361 83 361 225 502 225 371>
VStem: 50 142<206 206 206 338> 384 139<315 315>
AnchorPoint: "Anchor-0" 293 0 basechar 0
LayerCount: 2
Fore
SplineSet
371 576 m 1
 293 640 l 1
 214 576 l 1
 83 576 l 1
 225 732 l 1
 361 732 l 1
 502 576 l 1
 371 576 l 1
293 -12 m 0
 142 -12 50 88 50 256 c 0
 50 420 144 523 293 523 c 0
 422 523 523 445 523 281 c 0
 523 262 523 232 519 206 c 1
 192 206 l 1
 195 138 239 111 293 111 c 0
 344 111 376 127 408 165 c 1
 492 81 l 1
 445 24 381 -12 293 -12 c 0
193 315 m 1
 384 315 l 1
 377 369 347 400 287 400 c 0
 236 400 200 369 193 315 c 1
EndSplineSet
EndChar

StartChar: edieresis
Encoding: 295 235 134
Width: 568
GlyphClass: 2
Flags: MW
HStem: -12 123<266 318.5 266 337> 206 109<193 384 193 519 192 384> 400 123<261.5 317> 576 157<172 217.5 368 413>
VStem: 50 142<206 206 206 338> 117 157<631 676.5> 312 157<631 676.5> 384 139<315 315>
AnchorPoint: "Anchor-0" 293 0 basechar 0
LayerCount: 2
Fore
SplineSet
195 576 m 0xf6
 149 576 117 608 117 654 c 0
 117 699 149 733 195 733 c 0
 240 733 274 699 274 654 c 0
 274 608 240 576 195 576 c 0xf6
391 576 m 0
 345 576 312 608 312 654 c 0
 312 699 345 733 391 733 c 0
 435 733 469 699 469 654 c 0
 469 608 435 576 391 576 c 0
293 -12 m 0xe9
 142 -12 50 88 50 256 c 0
 50 420 144 523 293 523 c 0
 422 523 523 445 523 281 c 0
 523 262 523 232 519 206 c 1
 192 206 l 1
 195 138 239 111 293 111 c 0
 344 111 376 127 408 165 c 1
 492 81 l 1
 445 24 381 -12 293 -12 c 0xe9
193 315 m 1
 384 315 l 1
 377 369 347 400 287 400 c 0
 236 400 200 369 193 315 c 1
EndSplineSet
EndChar

StartChar: iacute
Encoding: 296 237 135
Width: 297
GlyphClass: 2
Flags: MW
HStem: 0 21G<76 76 76 221> 491 20G<76 221 221 221> 576 156<31 346 31 346>
VStem: 76 145<0 511 0 511>
AnchorPoint: "Anchor-0" 149 0 basechar 0
LayerCount: 2
Fore
SplineSet
31 576 m 1
 173 732 l 1
 346 732 l 1
 168 576 l 1
 31 576 l 1
76 0 m 1
 76 511 l 1
 221 511 l 1
 221 0 l 1
 76 0 l 1
EndSplineSet
EndChar

StartChar: igrave
Encoding: 297 236 136
Width: 297
GlyphClass: 2
Flags: MW
HStem: 0 21G<76 76 76 221> 491 20G<76 221 221 221> 576 156<-50 128 -50 265>
VStem: 76 145<0 511 0 511>
AnchorPoint: "Anchor-0" 149 0 basechar 0
LayerCount: 2
Fore
SplineSet
128 576 m 1
 -50 732 l 1
 123 732 l 1
 265 576 l 1
 128 576 l 1
76 0 m 1
 76 511 l 1
 221 511 l 1
 221 0 l 1
 76 0 l 1
EndSplineSet
EndChar

StartChar: icircumflex
Encoding: 298 238 137
Width: 297
GlyphClass: 2
Flags: MW
HStem: 0 21G<76 76 76 221> 491 20G<76 221 221 221> 576 156<-62 216 -62 216 80 357 80 226>
VStem: 76 145<0 511 0 511>
AnchorPoint: "Anchor-0" 149 0 basechar 0
LayerCount: 2
Fore
SplineSet
226 576 m 1
 148 640 l 1
 69 576 l 1
 -62 576 l 1
 80 732 l 1
 216 732 l 1
 357 576 l 1
 226 576 l 1
76 0 m 1
 76 511 l 1
 221 511 l 1
 221 0 l 1
 76 0 l 1
EndSplineSet
EndChar

StartChar: idieresis
Encoding: 299 239 138
Width: 297
GlyphClass: 2
Flags: MW
HStem: 0 21G<76 76 76 221> 491 20G<76 221 221 221> 576 157<27 72.5 223 268>
VStem: -28 157<631 676.5> 76 145<0 511 0 511> 167 157<631 676.5>
AnchorPoint: "Anchor-0" 149 0 basechar 0
LayerCount: 2
Fore
SplineSet
50 576 m 0xf4
 4 576 -28 608 -28 654 c 0
 -28 699 4 733 50 733 c 0
 95 733 129 699 129 654 c 0
 129 608 95 576 50 576 c 0xf4
246 576 m 0
 200 576 167 608 167 654 c 0
 167 699 200 733 246 733 c 0
 290 733 324 699 324 654 c 0
 324 608 290 576 246 576 c 0
76 0 m 1xe8
 76 511 l 1
 221 511 l 1
 221 0 l 1
 76 0 l 1xe8
EndSplineSet
EndChar

StartChar: ntilde
Encoding: 300 241 139
Width: 606
GlyphClass: 2
Flags: MW
HStem: 0 21G<75 220 75 75 391 536 391 391> 383 128<75 340> 383 140<328 340> 581 102<370 408.5 370 434> 626 101<211.5 249>
VStem: 75 145<0 268 464 511> 110 67<585 601 585 625> 391 145<0 266 266 306.5> 443 66<707.5 723>
AnchorPoint: "Anchor-0" 304 0 basechar 0
LayerCount: 2
Fore
SplineSet
389 581 m 0xd480
 318 581 274 626 224 626 c 0
 199 626 177 617 177 585 c 1
 110 585 l 1
 110 665 141 727 231 727 c 0xcb
 304 727 344 683 396 683 c 0
 421 683 443 692 443 723 c 1
 509 723 l 1
 509 645 479 581 389 581 c 0xd480
391 0 m 1xad
 391 266 l 2
 391 347 370 383 310 383 c 0
 246 383 220 345 220 268 c 2
 220 0 l 1
 75 0 l 1
 75 511 l 1
 220 511 l 1xcd
 220 464 l 1
 251 501 297 523 359 523 c 0
 437 523 536 481 536 332 c 2
 536 0 l 1
 391 0 l 1xad
EndSplineSet
EndChar

StartChar: oacute
Encoding: 301 243 140
Width: 572
GlyphClass: 2
Flags: MW
HStem: -12 140<259 315.5 259 359> 383 140<259 315.5> 576 156<145 460 145 460>
VStem: 50 145<215 295 215 337.5> 377 145<215 295>
AnchorPoint: "Anchor-0" 286 0 basechar 0
LayerCount: 2
Fore
SplineSet
145 576 m 1
 287 732 l 1
 460 732 l 1
 282 576 l 1
 145 576 l 1
287 -12 m 0
 142 -12 50 87 50 255 c 0
 50 420 142 523 287 523 c 0
 431 523 522 420 522 255 c 0
 522 87 431 -12 287 -12 c 0
287 128 m 0
 344 128 377 175 377 255 c 0
 377 335 344 383 287 383 c 0
 231 383 195 335 195 255 c 0
 195 175 231 128 287 128 c 0
EndSplineSet
EndChar

StartChar: ograve
Encoding: 302 242 141
Width: 572
GlyphClass: 2
Flags: MW
HStem: -12 140<259 315.5 259 359> 383 140<259 315.5> 576 156<107 285 107 422>
VStem: 50 145<215 295 215 337.5> 377 145<215 295>
AnchorPoint: "Anchor-0" 286 0 basechar 0
LayerCount: 2
Fore
SplineSet
285 576 m 1
 107 732 l 1
 280 732 l 1
 422 576 l 1
 285 576 l 1
287 -12 m 0
 142 -12 50 87 50 255 c 0
 50 420 142 523 287 523 c 0
 431 523 522 420 522 255 c 0
 522 87 431 -12 287 -12 c 0
287 128 m 0
 344 128 377 175 377 255 c 0
 377 335 344 383 287 383 c 0
 231 383 195 335 195 255 c 0
 195 175 231 128 287 128 c 0
EndSplineSet
EndChar

StartChar: ocircumflex
Encoding: 303 244 142
Width: 572
GlyphClass: 2
Flags: MW
HStem: -12 140<259 315.5 259 359> 383 140<259 315.5> 576 156<76 354 76 354 218 495 218 364>
VStem: 50 145<215 295 215 337.5> 377 145<215 295>
AnchorPoint: "Anchor-0" 286 0 basechar 0
LayerCount: 2
Fore
SplineSet
364 576 m 1
 286 640 l 1
 207 576 l 1
 76 576 l 1
 218 732 l 1
 354 732 l 1
 495 576 l 1
 364 576 l 1
287 -12 m 0
 142 -12 50 87 50 255 c 0
 50 420 142 523 287 523 c 0
 431 523 522 420 522 255 c 0
 522 87 431 -12 287 -12 c 0
287 128 m 0
 344 128 377 175 377 255 c 0
 377 335 344 383 287 383 c 0
 231 383 195 335 195 255 c 0
 195 175 231 128 287 128 c 0
EndSplineSet
EndChar

StartChar: odieresis
Encoding: 304 246 143
Width: 572
GlyphClass: 2
Flags: MW
HStem: -12 140<259 315.5 259 359> 383 140<259 315.5> 576 157<165 210.5 361 406>
VStem: 50 145<215 295 215 337.5> 110 157<631 676.5> 305 157<631 676.5> 377 145<215 295>
AnchorPoint: "Anchor-0" 286 0 basechar 0
LayerCount: 2
Fore
SplineSet
188 576 m 0xec
 142 576 110 608 110 654 c 0
 110 699 142 733 188 733 c 0
 233 733 267 699 267 654 c 0
 267 608 233 576 188 576 c 0xec
384 576 m 0
 338 576 305 608 305 654 c 0
 305 699 338 733 384 733 c 0
 428 733 462 699 462 654 c 0
 462 608 428 576 384 576 c 0
287 -12 m 0xf2
 142 -12 50 87 50 255 c 0
 50 420 142 523 287 523 c 0
 431 523 522 420 522 255 c 0
 522 87 431 -12 287 -12 c 0xf2
287 128 m 0
 344 128 377 175 377 255 c 0
 377 335 344 383 287 383 c 0
 231 383 195 335 195 255 c 0
 195 175 231 128 287 128 c 0
EndSplineSet
EndChar

StartChar: otilde
Encoding: 305 245 144
Width: 572
GlyphClass: 2
Flags: MW
HStem: -12 140<259 315.5 259 359> 383 140<259 315.5> 581 102<346 384.5 346 410> 626 101<187.5 225>
VStem: 50 145<215 295 215 337.5> 86 67<585 601 585 625> 377 145<215 295> 419 66<707.5 723>
AnchorPoint: "Anchor-0" 286 0 basechar 0
LayerCount: 2
Fore
SplineSet
365 581 m 0xe9
 294 581 250 626 200 626 c 0
 175 626 153 617 153 585 c 1
 86 585 l 1
 86 665 117 727 207 727 c 0xd6
 280 727 320 683 372 683 c 0
 397 683 419 692 419 723 c 1
 485 723 l 1
 485 645 455 581 365 581 c 0xe9
287 -12 m 0xda
 142 -12 50 87 50 255 c 0
 50 420 142 523 287 523 c 0
 431 523 522 420 522 255 c 0
 522 87 431 -12 287 -12 c 0xda
287 128 m 0
 344 128 377 175 377 255 c 0
 377 335 344 383 287 383 c 0
 231 383 195 335 195 255 c 0
 195 175 231 128 287 128 c 0
EndSplineSet
EndChar

StartChar: uacute
Encoding: 306 250 145
Width: 606
GlyphClass: 2
Flags: MW
HStem: -12 140<265.5 276.5> 0 128<265.5 386 265.5 531> 491 20G<70 215 215 215 386 531 531 531> 576 156<154 469 154 469>
VStem: 70 145<205.5 245 245 511> 386 145<0 47 47 47 243 511 0 511>
AnchorPoint: "Anchor-0" 267 0 basechar 0
LayerCount: 2
Fore
SplineSet
154 576 m 1x7c
 296 732 l 1
 469 732 l 1
 291 576 l 1
 154 576 l 1x7c
386 0 m 1
 386 47 l 1
 357 11 307 -12 246 -12 c 0xbc
 170 -12 70 32 70 179 c 2
 70 511 l 1
 215 511 l 1
 215 245 l 2
 215 166 234 128 297 128 c 0
 359 128 386 164 386 243 c 2
 386 511 l 1
 531 511 l 1
 531 0 l 1
 386 0 l 1
EndSplineSet
EndChar

StartChar: ugrave
Encoding: 307 249 146
Width: 606
GlyphClass: 2
Flags: MW
HStem: -12 140<265.5 276.5> 0 128<265.5 386 265.5 531> 491 20G<70 215 215 215 386 531 531 531> 576 156<121 299 121 436>
VStem: 70 145<205.5 245 245 511> 386 145<0 47 47 47 243 511 0 511>
AnchorPoint: "Anchor-0" 267 0 basechar 0
LayerCount: 2
Fore
SplineSet
299 576 m 1x7c
 121 732 l 1
 294 732 l 1
 436 576 l 1
 299 576 l 1x7c
386 0 m 1
 386 47 l 1
 357 11 307 -12 246 -12 c 0xbc
 170 -12 70 32 70 179 c 2
 70 511 l 1
 215 511 l 1
 215 245 l 2
 215 166 234 128 297 128 c 0
 359 128 386 164 386 243 c 2
 386 511 l 1
 531 511 l 1
 531 0 l 1
 386 0 l 1
EndSplineSet
EndChar

StartChar: ucircumflex
Encoding: 308 251 147
Width: 606
GlyphClass: 2
Flags: MW
HStem: -12 140<265.5 276.5> 0 128<265.5 386 265.5 531> 491 20G<70 215 215 215 386 531 531 531> 576 156<85 363 85 363 227 504 227 373>
VStem: 70 145<205.5 245 245 511> 386 145<0 47 47 47 243 511 0 511>
AnchorPoint: "Anchor-0" 267 0 basechar 0
LayerCount: 2
Fore
SplineSet
373 576 m 1x7c
 295 640 l 1
 216 576 l 1
 85 576 l 1
 227 732 l 1
 363 732 l 1
 504 576 l 1
 373 576 l 1x7c
386 0 m 1
 386 47 l 1
 357 11 307 -12 246 -12 c 0xbc
 170 -12 70 32 70 179 c 2
 70 511 l 1
 215 511 l 1
 215 245 l 2
 215 166 234 128 297 128 c 0
 359 128 386 164 386 243 c 2
 386 511 l 1
 531 511 l 1
 531 0 l 1
 386 0 l 1
EndSplineSet
EndChar

StartChar: udieresis
Encoding: 309 252 148
Width: 606
GlyphClass: 2
Flags: MW
HStem: -12 140<265.5 276.5> 0 128<265.5 386 265.5 531> 491 20G<70 215 215 215 386 531 531 531> 576 157<174 219.5 370 415>
VStem: 70 145<205.5 245 245 511> 119 157<631 676.5> 314 157<631 676.5> 386 145<0 47 47 47 243 511 0 511>
AnchorPoint: "Anchor-0" 267 0 basechar 0
LayerCount: 2
Fore
SplineSet
197 576 m 0x76
 151 576 119 608 119 654 c 0
 119 699 151 733 197 733 c 0
 242 733 276 699 276 654 c 0
 276 608 242 576 197 576 c 0x76
393 576 m 0
 347 576 314 608 314 654 c 0
 314 699 347 733 393 733 c 0
 437 733 471 699 471 654 c 0
 471 608 437 576 393 576 c 0
386 0 m 1x79
 386 47 l 1
 357 11 307 -12 246 -12 c 0xb9
 170 -12 70 32 70 179 c 2
 70 511 l 1
 215 511 l 1
 215 245 l 2
 215 166 234 128 297 128 c 0
 359 128 386 164 386 243 c 2
 386 511 l 1
 531 511 l 1
 531 0 l 1
 386 0 l 1x79
EndSplineSet
EndChar

StartChar: dagger
Encoding: 310 8224 149
Width: 598
Flags: MW
HStem: 404 140<65 143 65 143 454 533> 692 20G<226 371 371 371>
VStem: 226 145<333 333 587 712> 230 137.5
LayerCount: 2
Fore
SplineSet
364 416 m 1xd0
 371 333 l 1
 340 -141 l 1
 257 -141 l 1
 226 333 l 1
 234 416 l 1
 143 404 l 1xd0
 65 404 l 1
 65 544 l 1
 143 544 l 1
 234 531 l 1
 226 587 l 1
 226 712 l 1
 371 712 l 1
 371 587 l 1
 364 531 l 1
 454 544 l 1xe0
 533 544 l 1
 533 404 l 1
 454 404 l 1
 364 416 l 1xd0
EndSplineSet
EndChar

StartChar: degree
Encoding: 311 176 150
Width: 419
Flags: MW
HStem: 444 121<193.5 226 193.5 261> 685 123<193.5 226>
VStem: 26 129<610 643.5 610 678.5> 265 129<610 643.5>
LayerCount: 2
Fore
SplineSet
210 444 m 0
 107 444 26 525 26 627 c 0
 26 730 107 808 210 808 c 0
 312 808 394 730 394 627 c 0
 394 525 312 444 210 444 c 0
210 565 m 0
 242 565 265 593 265 627 c 0
 265 660 242 685 210 685 c 0
 177 685 155 660 155 627 c 0
 155 593 177 565 210 565 c 0
EndSplineSet
EndChar

StartChar: cent
Encoding: 312 162 151
Width: 564
Flags: MW
HStem: -12 21G<208 208 208 347> -12 234<208 310 263 310 263 347> 479 233<264 311> 692 20G<208 347 347 347>
VStem: 50 147<311.5 389.5 311.5 416> 208 139<-12 90 -12 96 -12 96 613 712>
LayerCount: 2
Fore
SplineSet
208 -12 m 1x94
 208 96 l 1x94
 107 127 50 216 50 350 c 0x9c
 50 482 109 576 208 607 c 1
 208 712 l 1
 347 712 l 1
 347 613 l 1x94
 428 600 486 547 513 458 c 1
 375 413 l 1
 360 452 331 479 291 479 c 0
 237 479 197 429 197 350 c 0
 197 273 237 222 289 222 c 0
 331 222 360 248 375 296 c 1
 514 256 l 1x6c
 490 162 429 107 347 90 c 1
 347 -12 l 1
 208 -12 l 1x94
EndSplineSet
EndChar

StartChar: sterling
Encoding: 313 163 152
Width: 606
Flags: MW
HStem: 0 142<270 576 270 576> 262 135<75 122 75 156 75 122 304 304 304 455> 570 142<309.5 384>
VStem: 102 149<494.5 519 494.5 552.5>
LayerCount: 2
Fore
SplineSet
78 0 m 1
 78 135 l 1
 123 154 144 199 153 239 c 0
 154 247 156 255 156 262 c 1
 75 262 l 1
 75 397 l 1
 122 397 l 1
 112 423 102 465 102 500 c 0
 102 605 175 712 343 712 c 0
 440 712 505 685 575 636 c 1
 519 498 l 1
 481 527 425 570 343 570 c 0
 276 570 251 536 251 502 c 0
 251 487 253 464 284 397 c 1
 455 397 l 1
 455 262 l 1
 304 262 l 1
 304 254 303 247 302 239 c 0
 296 206 286 175 270 142 c 1
 576 142 l 1
 576 0 l 1
 78 0 l 1
EndSplineSet
EndChar

StartChar: section
Encoding: 253 167 153
Width: 534
Flags: MW
HStem: -120 139<247 288 247 338> 573 139<248.5 283>
VStem: 60 151<313 330.5 313 331 528 548> 334 150<44.5 71 274.5 293.5>
LayerCount: 2
Fore
SplineSet
270 -120 m 0
 179 -120 102 -87 50 -19 c 1
 155 69 l 1
 182 45 222 19 272 19 c 0
 304 19 334 30 334 59 c 0
 334 83 296 101 208 142 c 0
 134 175 60 209 60 308 c 0
 60 354 83 390 118 416 c 1
 82 449 60 486 60 534 c 0
 60 647 145 712 264 712 c 0
 352 712 419 678 464 622 c 1
 355 534 l 1
 334 555 302 573 264 573 c 0
 233 573 211 557 211 539 c 0
 211 517 261 494 323 469 c 0
 404 437 484 400 484 294 c 0
 484 245 467 212 432 183 c 1
 468 150 484 114 484 62 c 0
 484 -53 406 -120 270 -120 c 0
324 253 m 1
 331 256 334 269 334 280 c 0
 334 307 288 329 232 348 c 1
 216 346 211 336 211 325 c 0
 211 301 245 285 324 253 c 1
EndSplineSet
EndChar

StartChar: bullet
Encoding: 314 8226 154
Width: 429
Flags: MW
HStem: 201 299<170 256>
VStem: 60 309<309 391>
LayerCount: 2
Fore
SplineSet
213 201 m 0
 127 201 60 268 60 350 c 0
 60 432 127 500 213 500 c 0
 299 500 369 432 369 350 c 0
 369 268 299 201 213 201 c 0
EndSplineSet
EndChar

StartChar: paragraph
Encoding: 315 182 155
Width: 658
Flags: MW
HStem: 561 139<368 433 368 368>
VStem: 223 145<-134 273 273 273> 433 145<-36 561 561 561>
LayerCount: 2
Fore
SplineSet
223 -200 m 1
 223 273 l 1
 81 281 20 390 20 484 c 0
 20 590 81 700 255 700 c 2
 578 700 l 1
 578 -36 l 1
 433 -102 l 1
 433 561 l 1
 368 561 l 1
 368 -134 l 1
 223 -200 l 1
EndSplineSet
EndChar

StartChar: germandbls
Encoding: 316 223 156
Width: 585
Flags: MW
HStem: -12 121<316.5 345 316.5 393.5> 320 121<251 297 251 297> 591 121<266.5 317>
VStem: 65 145<-132 467 467 468 -132 555.5> 364 145<499 536> 400 145<182 237.5>
LayerCount: 2
Fore
SplineSet
65 -200 m 1xf8
 65 467 l 2
 65 644 176 712 294 712 c 0
 422 712 509 639 509 527 c 0xf8
 509 463 480 414 417 385 c 1
 494 362 545 302 545 213 c 0
 545 62 450 -12 337 -12 c 0
 285 -12 248 -3 224 15 c 1
 285 115 l 1
 301 109 309 109 324 109 c 0
 366 109 400 152 400 212 c 0xf4
 400 263 367 320 297 320 c 2
 251 320 l 1
 251 441 l 1
 297 441 l 2
 333 441 364 479 364 519 c 0
 364 553 339 591 295 591 c 0
 238 591 210 557 210 468 c 2
 210 -132 l 1
 65 -200 l 1xf8
EndSplineSet
EndChar

StartChar: registered
Encoding: 317 174 157
Width: 844
Flags: MW
HStem: -12 86<343.5 500.5 343.5 524.5> 297 93<373 404 373 444> 468 93<373 444 373 373> 626 86<343.5 500.5>
VStem: 60 92<271.5 428.5 271.5 452.5> 271 102<139 297 390 468> 485 104<420 437> 692 92<271.5 428.5>
LayerCount: 2
Fore
SplineSet
422 -12 m 0
 217 -12 60 145 60 350 c 0
 60 555 217 712 422 712 c 0
 627 712 784 555 784 350 c 0
 784 145 627 -12 422 -12 c 0
422 74 m 0
 579 74 692 193 692 350 c 0
 692 507 579 626 422 626 c 0
 265 626 152 507 152 350 c 0
 152 193 265 74 422 74 c 0
271 139 m 1
 271 561 l 1
 450 561 l 2
 559 561 589 495 589 429 c 0
 589 381 565 330 502 309 c 1
 599 139 l 1
 491 139 l 1
 404 297 l 1
 373 297 l 1
 373 139 l 1
 271 139 l 1
373 390 m 1
 444 390 l 2
 474 390 485 411 485 429 c 0
 485 445 476 468 444 468 c 2
 373 468 l 1
 373 390 l 1
EndSplineSet
EndChar

StartChar: copyright
Encoding: 318 169 158
Width: 844
Flags: MW
HStem: -12 86<343.5 500.5 343.5 524.5> 132 98<399 438.5 399 461.5> 470 98<396.5 439> 626 86<343.5 500.5>
VStem: 60 92<271.5 428.5 271.5 452.5> 244 105<322 376 322 399> 692 92<271.5 428.5>
LayerCount: 2
Fore
SplineSet
422 -12 m 0
 217 -12 60 145 60 350 c 0
 60 555 217 712 422 712 c 0
 627 712 784 555 784 350 c 0
 784 145 627 -12 422 -12 c 0
422 74 m 0
 579 74 692 193 692 350 c 0
 692 507 579 626 422 626 c 0
 265 626 152 507 152 350 c 0
 152 193 265 74 422 74 c 0
425 132 m 0
 288 132 244 244 244 350 c 0
 244 448 292 568 425 568 c 0
 500 568 550 530 576 475 c 1
 485 432 l 1
 470 457 453 470 425 470 c 0
 368 470 349 402 349 350 c 0
 349 294 373 230 425 230 c 0
 452 230 472 245 485 268 c 1
 577 236 l 1
 546 168 498 132 425 132 c 0
EndSplineSet
EndChar

StartChar: trademark
Encoding: 319 8482 159
Width: 870
Flags: MW
HStem: 601 99<16 119 16 330 228 228 228 330>
VStem: 119 109<278 601 278 601> 356 109<278 487 278 700> 695 109<278 487 487 487>
LayerCount: 2
Fore
SplineSet
119 278 m 1
 119 601 l 1
 16 601 l 1
 16 700 l 1
 330 700 l 1
 330 601 l 1
 228 601 l 1
 228 278 l 1
 119 278 l 1
804 278 m 1
 695 278 l 1
 695 487 l 1
 686 468 l 1
 581 276 l 1
 475 468 l 1
 465 487 l 1
 465 278 l 1
 356 278 l 1
 356 700 l 1
 463 700 l 1
 569 495 l 1
 581 469 l 1
 592 495 l 1
 698 700 l 1
 804 700 l 1
 804 278 l 1
EndSplineSet
EndChar

StartChar: acute
Encoding: 320 180 160
Width: 517
Flags: MW
HStem: 576 156<117 432 117 432>
VStem: 117 315<576 732>
LayerCount: 2
Fore
SplineSet
117 576 m 1
 259 732 l 1
 432 732 l 1
 254 576 l 1
 117 576 l 1
EndSplineSet
EndChar

StartChar: dieresis
Encoding: 321 168 161
Width: 517
Flags: MW
HStem: 576 157<137 182.5 333 378>
VStem: 82 157<631 676.5> 277 157<631 676.5>
LayerCount: 2
Fore
SplineSet
160 576 m 0
 114 576 82 608 82 654 c 0
 82 699 114 733 160 733 c 0
 205 733 239 699 239 654 c 0
 239 608 205 576 160 576 c 0
356 576 m 0
 310 576 277 608 277 654 c 0
 277 699 310 733 356 733 c 0
 400 733 434 699 434 654 c 0
 434 608 400 576 356 576 c 0
EndSplineSet
EndChar

StartChar: notequal
Encoding: 322 8800 162
Width: 630
Flags: MW
HStem: 155 139<61 142 61 199 359 536 61 300> 393 139<61 241 61 300 61 399 459 536>
VStem: 61 475<155 294 155 294 393 532 155 532>
LayerCount: 2
Fore
SplineSet
300 155 m 1
 273 88 l 1
 114 88 l 1
 142 155 l 1
 61 155 l 1
 61 294 l 1
 199 294 l 1
 241 393 l 1
 61 393 l 1
 61 532 l 1
 300 532 l 1
 335 617 l 1
 493 617 l 1
 459 532 l 1
 536 532 l 1
 536 393 l 1
 399 393 l 1
 359 294 l 1
 536 294 l 1
 536 155 l 1
 300 155 l 1
EndSplineSet
EndChar

StartChar: AE
Encoding: 323 198 163
Width: 904
GlyphClass: 2
Flags: MW
HStem: 0 145<522 857 522 857> 136 140<291 370 291 370 208 370> 289 144<522 682 522 682> 556 144<522 837 522 522>
VStem: 370 152<0 289 136 289 276 289 145 425 145 425>
AnchorPoint: "Anchor-0" 453 0 basechar 0
LayerCount: 2
Fore
SplineSet
-33 0 m 1xb8
 374 700 l 1
 837 700 l 1
 837 556 l 1
 522 556 l 1
 522 433 l 1
 682 433 l 1
 682 289 l 1
 522 289 l 1
 522 145 l 1
 857 145 l 1
 857 0 l 1
 370 0 l 1xb8
 370 136 l 1
 208 136 l 1x78
 131 0 l 1
 -33 0 l 1xb8
291 276 m 1x78
 370 276 l 1
 370 425 l 2
 367 413 364 406 355 390 c 2
 291 276 l 1x78
EndSplineSet
Position2: "'cpsp' Capital Spacing in Latin lookup 0 subtable" dx=5 dy=0 dh=10 dv=0
EndChar

StartChar: Oslash
Encoding: 324 216 164
Width: 726
Flags: MW
HStem: -12 147<350.5 419 350.5 476.5> 566 146<305.5 375.5> 599 113<601 601>
VStem: 52 158<333.5 397 333.5 436.5> 516 158<303.5 367>
LayerCount: 2
Fore
SplineSet
50 -12 m 1xd8
 125 102 l 1
 74 173 52 262 52 350 c 0
 52 523 137 712 363 712 c 0
 421 712 469 700 512 678 c 1
 535 712 l 1
 676 712 l 1xd8
 601 599 l 1xb8
 652 528 674 439 674 350 c 0
 674 177 590 -12 363 -12 c 0
 303 -12 254 1 214 22 c 1
 191 -12 l 1
 50 -12 l 1xd8
224 249 m 1
 426 551 l 1
 409 560 388 566 363 566 c 0
 248 566 210 444 210 350 c 0
 210 317 214 283 224 249 c 1
363 135 m 0
 475 135 516 257 516 350 c 0
 516 384 512 418 502 452 c 1
 299 150 l 1
 317 141 338 135 363 135 c 0
EndSplineSet
Position2: "'cpsp' Capital Spacing in Latin lookup 0 subtable" dx=5 dy=0 dh=10 dv=0
EndChar

StartChar: infinity
Encoding: 325 8734 165
Width: 1019
Flags: MW
HStem: 106 140<260 323 260 340.5 695 758.5> 435 140<260 322.5 695.5 758.5>
VStem: 35 145<310 371.5 310 415.5> 840 144<310 371.5>
LayerCount: 2
Fore
SplineSet
729 106 m 0
 633 106 556 154 510 209 c 1
 459 148 392 106 289 106 c 0
 148 106 35 191 35 341 c 0
 35 490 148 575 289 575 c 0
 392 575 459 533 510 472 c 1
 556 524 631 575 727 575 c 0
 871 575 984 490 984 341 c 0
 984 191 871 106 729 106 c 0
291 246 m 0
 355 246 404 289 441 341 c 1
 406 394 354 435 291 435 c 0
 229 435 180 402 180 341 c 0
 180 279 229 246 291 246 c 0
727 246 m 0
 790 246 840 279 840 341 c 0
 840 402 790 435 727 435 c 0
 664 435 614 396 578 341 c 1
 615 287 663 246 727 246 c 0
EndSplineSet
EndChar

StartChar: plusminus
Encoding: 326 177 166
Width: 630
Flags: MW
HStem: 0 141<80 550 80 550> 328 141<80 243 80 243 388 550>
VStem: 243 145<189 328 189 328 469 608>
LayerCount: 2
Fore
SplineSet
388 328 m 1
 388 189 l 1
 243 189 l 1
 243 328 l 1
 80 328 l 1
 80 469 l 1
 243 469 l 1
 243 608 l 1
 388 608 l 1
 388 469 l 1
 550 469 l 1
 550 328 l 1
 388 328 l 1
80 0 m 1
 80 141 l 1
 550 141 l 1
 550 0 l 1
 80 0 l 1
EndSplineSet
EndChar

StartChar: lessequal
Encoding: 327 8804 167
Width: 630
Flags: MW
HStem: 0 141<80 550 80 550>
VStem: 80 472<0 147 141 147 147 431 147 431>
LayerCount: 2
Fore
SplineSet
552 147 m 1
 80 320 l 1
 80 431 l 1
 552 602 l 1
 552 464 l 1
 286 375 l 1
 552 285 l 1
 552 147 l 1
80 0 m 1
 80 141 l 1
 550 141 l 1
 550 0 l 1
 80 0 l 1
EndSplineSet
EndChar

StartChar: greaterequal
Encoding: 328 8805 168
Width: 630
Flags: MW
HStem: 0 141<80 550 80 550>
VStem: 80 472<0 431 141 431 147 431 285 431 320 602 320 602>
LayerCount: 2
Fore
SplineSet
80 147 m 1
 80 285 l 1
 346 375 l 1
 80 464 l 1
 80 602 l 1
 552 431 l 1
 552 320 l 1
 80 147 l 1
80 0 m 1
 80 141 l 1
 550 141 l 1
 550 0 l 1
 80 0 l 1
EndSplineSet
EndChar

StartChar: yen
Encoding: 329 165 169
Width: 628
Flags: MW
HStem: 0 186<114 386 114 242> 83 103<114 242 114 242 386 517> 250 102<114 217 114 242 114 217 410 517> 680 20G<15 183 183 183 443 613 613 613>
VStem: 242 144<0 83 0 83 186 250>
LayerCount: 2
Fore
SplineSet
410 352 m 1xb8
 517 352 l 1
 517 250 l 1
 386 250 l 1
 386 186 l 1
 517 186 l 1xb8
 517 83 l 1
 386 83 l 1x78
 386 0 l 1
 242 0 l 1xb8
 242 83 l 1
 114 83 l 1x78
 114 186 l 1
 242 186 l 1
 242 250 l 1
 114 250 l 1
 114 352 l 1
 217 352 l 1
 15 700 l 1
 183 700 l 1
 315 466 l 1
 443 700 l 1
 613 700 l 1
 410 352 l 1xb8
EndSplineSet
EndChar

StartChar: uni00B5
Encoding: 330 181 170
Width: 613
Flags: MW
HStem: -12 140<279 322> 0 128<274.5 394 274.5 538> 491 20G<78 222 222 222 394 538 538 538>
VStem: 78 144<207.5 245 245 511> 394 144<0 46 46 46 243 511 0 511>
LayerCount: 2
Fore
SplineSet
394 0 m 1x78
 394 46 l 1
 383 15 349 -12 295 -12 c 0
 263 -12 236 -1 224 4 c 1xb8
 224 -132 l 1
 78 -200 l 1
 78 511 l 1
 222 511 l 1
 222 245 l 2
 222 170 244 128 305 128 c 0
 367 128 394 164 394 243 c 2
 394 511 l 1
 538 511 l 1
 538 0 l 1
 394 0 l 1x78
EndSplineSet
EndChar

StartChar: partialdiff
Encoding: 331 8706 171
Width: 604
Flags: MW
HStem: -12 139<244.5 306.5 244.5 366.5> 307 139<259 307 211.5 319> 692 20G<209 209>
VStem: 30 148<180.5 232 180.5 284.5> 384 165<244 250.5>
LayerCount: 2
Fore
SplineSet
262 -12 m 0
 122 -12 30 64 30 217 c 0
 30 352 146 446 277 446 c 0
 337 446 372 433 399 415 c 1
 396 423 394 431 392 438 c 0
 355 533 265 567 174 572 c 1
 209 712 l 1
 454 687 549 557 549 333 c 0
 549 155 471 -12 262 -12 c 0
275 127 m 0
 338 127 384 174 384 224 c 0
 384 277 346 307 292 307 c 0
 226 307 178 258 178 206 c 0
 178 155 214 127 275 127 c 0
EndSplineSet
EndChar

StartChar: summation
Encoding: 332 8721 172
Width: 626
Flags: MW
HStem: -138 139<231 591 231 591> 563 139<240 574 240 240>
VStem: 45 546<-138 -1 -1 -1>
LayerCount: 2
Fore
SplineSet
45 -138 m 1
 45 -1 l 1
 260 292 l 1
 59 564 l 1
 59 702 l 1
 574 702 l 1
 574 563 l 1
 240 563 l 1
 443 290 l 1
 231 1 l 1
 591 1 l 1
 591 -138 l 1
 45 -138 l 1
EndSplineSet
EndChar

StartChar: product
Encoding: 333 8719 173
Width: 748
Flags: MW
HStem: 561 139<235 514 235 235>
VStem: 90 145<-140 561 -140 700 -140 700> 514 144<-140 561 561 561>
LayerCount: 2
Fore
SplineSet
514 -140 m 1
 514 561 l 1
 235 561 l 1
 235 -140 l 1
 90 -140 l 1
 90 700 l 1
 658 700 l 1
 658 -140 l 1
 514 -140 l 1
EndSplineSet
EndChar

StartChar: pi
Encoding: 334 960 174
Width: 670
Flags: MW
HStem: -12 21G<473 541> -12 125<473 576> 361 150<63 147 63 640 286 390 286 286 534 534 534 640>
VStem: 147 139<317 354 354 361 269 361> 390 144<133.5 144 144 361>
LayerCount: 2
Fore
SplineSet
519 -12 m 0xb8
 427 -12 390 38 390 128 c 2
 390 361 l 1
 286 361 l 1
 286 354 l 2
 286 184 267 46 137 -26 c 1
 15 72 l 1
 82 111 147 163 147 317 c 2
 147 361 l 1
 63 361 l 1
 63 511 l 1
 640 511 l 1
 640 361 l 1
 534 361 l 1
 534 144 l 2
 534 123 549 113 562 113 c 0
 590 113 617 120 651 135 c 1x78
 636 11 l 1
 606 -5 563 -12 519 -12 c 0xb8
EndSplineSet
EndChar

StartChar: integral
Encoding: 335 8747 175
Width: 436
Flags: MW
HStem: -140 127<109 189.5> 585 127<245.5 327.5>
VStem: 146 145<17 556>
LayerCount: 2
Fore
SplineSet
159 -140 m 0
 119 -140 81 -133 40 -114 c 1
 40 5 l 1
 85 -12 105 -13 113 -13 c 0
 127 -13 146 -7 146 17 c 2
 146 587 l 2
 146 692 214 712 277 712 c 0
 316 712 355 708 396 686 c 1
 396 567 l 1
 354 584 332 585 323 585 c 0
 306 585 291 579 291 556 c 2
 291 -15 l 2
 291 -120 220 -140 159 -140 c 0
EndSplineSet
EndChar

StartChar: ordfeminine
Encoding: 336 170 176
Width: 443
Flags: MW
HStem: 273 102<185 202.5> 451 100<193 207.5 150 223> 612 100<190 231>
VStem: 35 112<400.5 426 400.5 459.5> 274 114<283 313 313 313 407 440 440 440 531 550 283 554 283 573>
LayerCount: 2
Fore
SplineSet
274 283 m 1
 274 313 l 1
 260 293 229 273 176 273 c 0
 101 273 35 321 35 411 c 0
 35 508 112 551 188 551 c 0
 227 551 252 544 274 531 c 1
 274 554 l 2
 274 592 250 612 212 612 c 0
 168 612 130 598 92 567 c 1
 55 660 l 1
 97 690 153 712 225 712 c 0
 297 712 388 692 388 550 c 2
 388 283 l 1
 274 283 l 1
204 375 m 0
 239 375 259 388 274 407 c 1
 274 440 l 1
 257 447 234 451 212 451 c 0
 174 451 147 441 147 411 c 0
 147 390 166 375 204 375 c 0
EndSplineSet
EndChar

StartChar: ordmasculine
Encoding: 337 186 177
Width: 466
Flags: MW
HStem: 273 114<209.5 258 209.5 293.5> 600 112<209.5 258>
VStem: 40 117<458.5 525 458.5 560> 312 114<458.5 525>
LayerCount: 2
Fore
SplineSet
235 273 m 0
 118 273 40 356 40 492 c 0
 40 628 118 712 235 712 c 0
 352 712 426 628 426 492 c 0
 426 356 352 273 235 273 c 0
235 387 m 0
 281 387 312 425 312 492 c 0
 312 558 281 600 235 600 c 0
 184 600 157 558 157 492 c 0
 157 425 184 387 235 387 c 0
EndSplineSet
EndChar

StartChar: uni03A9
Encoding: 338 937 178
Width: 747
Flags: MW
HStem: 0 147<65 161 65 344 65 161 585 683> 566 146<315.5 431.5>
VStem: 65 158<341 432 334 465> 404 279<0 116 116 116> 524 158<341 431.5>
LayerCount: 2
Fore
SplineSet
404 0 m 1xf0
 404 116 l 1
 486 203 524 280 524 389 c 0
 524 474 490 566 373 566 c 0
 258 566 223 476 223 388 c 0
 223 280 263 201 344 116 c 1
 344 0 l 1
 65 0 l 1
 65 147 l 1
 161 147 l 1
 108 208 65 292 65 390 c 0
 65 540 143 712 373 712 c 0
 603 712 682 540 682 390 c 0
 682 292 636 208 585 147 c 1xe8
 683 147 l 1
 683 0 l 1
 404 0 l 1xf0
EndSplineSet
Position2: "'cpsp' Capital Spacing in Latin lookup 0 subtable" dx=5 dy=0 dh=10 dv=0
EndChar

StartChar: ae
Encoding: 339 230 179
Width: 855
Flags: MW
HStem: -12 127<230 253.5 552.5 603.5> 198 123<479 669 479 801 477 669> 204 124<241.5 255.5 186.5 275> 397 126<236 283.5 549.5 605>
VStem: 45 142<144 173 144 217.5>
LayerCount: 2
Fore
SplineSet
218 -12 m 0xd8
 123 -12 45 44 45 156 c 0
 45 279 141 328 232 328 c 0
 279 328 306 320 333 308 c 1xb8
 333 330 l 2
 333 374 305 397 262 397 c 0
 210 397 164 379 117 343 c 1
 72 459 l 1
 123 493 192 523 276 523 c 0
 329 523 389 513 428 473 c 1
 461 505 517 523 579 523 c 0
 708 523 810 445 810 281 c 0
 810 262 808 233 801 198 c 1
 477 198 l 1
 484 143 526 115 579 115 c 0
 628 115 660 129 691 168 c 1
 778 81 l 1
 731 24 667 -12 579 -12 c 0
 499 -12 436 17 397 71 c 1
 346 13 289 -12 218 -12 c 0xd8
479 321 m 1
 669 321 l 1
 658 363 631 397 579 397 c 0
 520 397 488 369 479 321 c 1
251 115 m 0
 289 115 315 130 333 149 c 1
 333 192 l 1
 312 200 288 204 262 204 c 0xb8
 221 204 187 190 187 156 c 0
 187 132 209 115 251 115 c 0
EndSplineSet
EndChar

StartChar: oslash
Encoding: 340 248 180
Width: 572
GlyphClass: 2
Flags: MW
HStem: -12 140<50 315.5 284 315.5 284 359> 383 140<259 290> 438 85<469 469>
VStem: 50 145<248.5 295 248.5 337.5> 377 145<215 261.5>
AnchorPoint: "Anchor-0" 286 0 basechar 0
LayerCount: 2
Fore
SplineSet
523 523 m 1xd8
 469 438 l 1xb8
 503 393 522 330 522 255 c 0
 522 87 431 -12 287 -12 c 0
 252 -12 219 -6 191 5 c 1
 180 -12 l 1
 50 -12 l 1
 104 71 l 1
 69 116 50 179 50 255 c 0
 50 420 142 523 287 523 c 0
 322 523 354 517 383 505 c 1
 394 523 l 1
 523 523 l 1xd8
195 255 m 0
 195 242 196 229 198 218 c 1
 303 382 l 1
 298 383 293 383 287 383 c 0xd8
 231 383 195 335 195 255 c 0
377 255 m 0
 377 268 376 280 374 291 c 1
 271 129 l 1
 276 128 281 128 287 128 c 0xd8
 344 128 377 175 377 255 c 0
EndSplineSet
EndChar

StartChar: questiondown
Encoding: 341 191 181
Width: 507
Flags: MW
HStem: -200 140<229.5 283.5 229.5 322.5> 348 175<234 286>
VStem: 35 145<-12.5 51.5 -12.5 89> 169 179<413 461> 189 145<280 324 188 324> 343 144<12.5 48>
LayerCount: 2
Fore
SplineSet
259 348 m 0xd0
 209 348 169 389 169 437 c 0
 169 485 209 523 259 523 c 0
 313 523 348 485 348 437 c 0
 348 389 313 348 259 348 c 0xd0
254 -200 m 0xec
 112 -200 35 -111 35 6 c 0
 35 172 189 162 189 280 c 2
 189 324 l 1
 334 324 l 1
 334 279 l 2xc8
 334 97 180 97 180 6 c 0
 180 -31 205 -60 254 -60 c 0
 313 -60 343 -23 343 48 c 1
 487 48 l 1
 487 -114 391 -200 254 -200 c 0xec
EndSplineSet
EndChar

StartChar: exclamdown
Encoding: 342 161 182
Width: 314
Flags: MW
HStem: 339 184<132.5 185> 503 20G<132.5 185>
VStem: 63 187<406.5 457.5> 86 145<-200 29>
LayerCount: 2
Fore
SplineSet
159 339 m 0xa0
 106 339 63 381 63 432 c 0
 63 483 106 523 159 523 c 0
 211 523 250 483 250 432 c 0
 250 381 211 339 159 339 c 0xa0
231 -200 m 1x50
 86 -200 l 1
 86 29 l 1
 113 320 l 1
 203 320 l 1
 231 29 l 1
 231 -200 l 1x50
EndSplineSet
EndChar

StartChar: logicalnot
Encoding: 343 172 183
Width: 630
Flags: MW
HStem: 344 140<80 406 80 550>
VStem: 406 144<157 344 344 344>
LayerCount: 2
Fore
SplineSet
406 157 m 1
 406 344 l 1
 80 344 l 1
 80 484 l 1
 550 484 l 1
 550 157 l 1
 406 157 l 1
EndSplineSet
EndChar

StartChar: radical
Encoding: 344 8730 184
Width: 591
Flags: MW
HStem: 0 21G<238 346 238 238> 680 20G<411 561 561 561>
VStem: 45 516<359 700>
LayerCount: 2
Fore
SplineSet
561 700 m 1
 346 0 l 1
 238 0 l 1
 45 359 l 1
 203 359 l 1
 274 223 l 1
 411 700 l 1
 561 700 l 1
EndSplineSet
EndChar

StartChar: florin
Encoding: 345 402 185
Width: 398
Flags: MW
HStem: 381 130<58 126 58 126 271 378> 586 126<226 309.5>
VStem: 126 145<-39 -5 -5 381 511 557>
LayerCount: 2
Fore
SplineSet
56 -244 m 1
 -17 -130 l 1
 88 -105 126 -89 126 -39 c 2
 126 381 l 1
 58 381 l 1
 58 511 l 1
 126 511 l 1
 126 587 l 2
 126 692 195 712 257 712 c 0
 299 712 337 708 378 686 c 1
 378 568 l 1
 336 586 314 586 305 586 c 0
 288 586 271 580 271 557 c 2
 271 511 l 1
 378 511 l 1
 378 381 l 1
 271 381 l 1
 271 -5 l 2
 271 -150 194 -212 56 -244 c 1
EndSplineSet
EndChar

StartChar: approxequal
Encoding: 346 8776 186
Width: 630
Flags: MW
HStem: 126 194<172.5 196 77 267 433 459> 178 142<220 256> 367 194<172.5 196 77 267 433 459> 419 142<220 256>
VStem: 77 119<126 177> 433 119<269 320>
LayerCount: 2
Fore
SplineSet
405 367 m 0xac
 320 367 278 419 234 419 c 0x9c
 206 419 200 398 196 367 c 1
 77 367 l 1xac
 77 469 121 561 224 561 c 0x9c
 310 561 343 509 395 509 c 0
 423 509 430 530 433 561 c 1
 552 561 l 1
 552 459 513 367 405 367 c 0xac
405 126 m 0
 320 126 278 178 234 178 c 0x6c
 206 178 200 157 196 126 c 1
 77 126 l 1xac
 77 228 121 320 224 320 c 0x6c
 310 320 343 268 395 268 c 0
 423 268 430 290 433 320 c 1
 552 320 l 1
 552 218 513 126 405 126 c 0
EndSplineSet
EndChar

StartChar: uni2206
Encoding: 347 8710 187
Width: 610
Flags: MW
HStem: 0 142<196 416 196 618> 680 20G<239 373 373 373>
VStem: -8 626<0 0>
LayerCount: 2
Fore
SplineSet
-8 0 m 1
 239 700 l 1
 373 700 l 1
 618 0 l 1
 -8 0 l 1
196 142 m 1
 416 142 l 1
 325 427 l 2
 320 445 312 459 307 481 c 1
 303 459 294 444 289 427 c 2
 196 142 l 1
EndSplineSet
EndChar

StartChar: guillemotleft
Encoding: 348 171 188
Width: 584
Flags: MW
HStem: 0 21G<182 182 182 337 413 569 413 413> 0 256<30 182 30 185 30 261 30 337> 491 20G<182 337 337 337 413 569 569 569>
VStem: 30 539<0 256>
LayerCount: 2
Fore
SplineSet
182 0 m 1xb0
 30 256 l 1
 182 511 l 1
 337 511 l 1
 185 256 l 1x70
 337 0 l 1
 182 0 l 1xb0
413 0 m 1
 261 256 l 1
 413 511 l 1
 569 511 l 1
 417 256 l 1
 569 0 l 1
 413 0 l 1
EndSplineSet
EndChar

StartChar: guillemotright
Encoding: 349 187 189
Width: 584
Flags: MW
HStem: 0 21G<15 15 15 170 246 402 246 246> 0 256<15 167 167 167 167 170 167 322 167 398 167 402 167 246> 491 20G<15 170 170 170 246 402 402 402>
VStem: 15 539<0 256 256 511>
LayerCount: 2
Fore
SplineSet
15 0 m 1xb0
 167 256 l 1
 15 511 l 1
 170 511 l 1
 322 256 l 1x70
 170 0 l 1
 15 0 l 1xb0
246 0 m 1
 398 256 l 1
 246 511 l 1
 402 511 l 1
 554 256 l 1
 402 0 l 1
 246 0 l 1
EndSplineSet
EndChar

StartChar: ellipsis
Encoding: 350 8230 190
Width: 1112
Flags: MW
HStem: -12 187<158 212 528 582 898 952.5>
VStem: 90 191<54 107> 461 190<54 107> 831 191<54 107>
LayerCount: 2
Fore
SplineSet
185 -12 m 0
 131 -12 90 27 90 81 c 0
 90 133 131 175 185 175 c 0
 239 175 281 133 281 81 c 0
 281 27 239 -12 185 -12 c 0
555 -12 m 0
 501 -12 461 27 461 81 c 0
 461 133 501 175 555 175 c 0
 609 175 651 133 651 81 c 0
 651 27 609 -12 555 -12 c 0
925 -12 m 0
 871 -12 831 27 831 81 c 0
 831 133 871 175 925 175 c 0
 980 175 1022 133 1022 81 c 0
 1022 27 980 -12 925 -12 c 0
EndSplineSet
EndChar

StartChar: Agrave
Encoding: 351 192 191
Width: 737
GlyphClass: 2
Flags: MW
HStem: 0 21G<19 185 19 19 552 718 552 552> 136 140<287 449 287 500 237 449> 680 20G<295 441 441 441> 765 156<195 373 195 510>
VStem: 19 699<0 0>
AnchorPoint: "Anchor-0" 369 0 basechar 0
LayerCount: 2
Fore
SplineSet
373 765 m 1
 195 921 l 1
 368 921 l 1
 510 765 l 1
 373 765 l 1
552 0 m 1
 500 136 l 1
 237 136 l 1
 185 0 l 1
 19 0 l 1
 295 700 l 1
 441 700 l 1
 718 0 l 1
 552 0 l 1
449 276 m 1
 389 427 l 2
 382 444 373 468 368 486 c 1
 364 468 354 444 347 427 c 2
 287 276 l 1
 449 276 l 1
EndSplineSet
Position2: "'cpsp' Capital Spacing in Latin lookup 0 subtable" dx=5 dy=0 dh=10 dv=0
EndChar

StartChar: Atilde
Encoding: 352 195 192
Width: 737
GlyphClass: 2
Flags: MW
HStem: 0 21G<19 185 19 19 552 718 552 552> 136 140<287 449 287 500 237 449> 680 20G<295 441 441 441> 770 102<429 467.5 429 493> 815 101<270.5 308>
VStem: 169 67<774 790 774 814> 502 66<896.5 912>
AnchorPoint: "Anchor-0" 369 0 basechar 0
LayerCount: 2
Fore
SplineSet
448 770 m 0xf6
 377 770 333 815 283 815 c 0
 258 815 236 806 236 774 c 1
 169 774 l 1
 169 854 200 916 290 916 c 0xee
 363 916 403 872 455 872 c 0
 480 872 502 881 502 912 c 1
 568 912 l 1
 568 834 538 770 448 770 c 0xf6
552 0 m 1
 500 136 l 1
 237 136 l 1
 185 0 l 1
 19 0 l 1
 295 700 l 1
 441 700 l 1
 718 0 l 1
 552 0 l 1
449 276 m 1
 389 427 l 2
 382 444 373 468 368 486 c 1
 364 468 354 444 347 427 c 2
 287 276 l 1
 449 276 l 1
EndSplineSet
Position2: "'cpsp' Capital Spacing in Latin lookup 0 subtable" dx=5 dy=0 dh=10 dv=0
EndChar

StartChar: Otilde
Encoding: 353 213 193
Width: 720
GlyphClass: 2
Flags: MW
HStem: -12 147<303.5 416.5 303.5 474> 566 146<303 418.5> 770 102<421 459.5 421 485> 815 101<262.5 300>
VStem: 50 158<301.5 397 301.5 436.5> 161 67<774 790 774 814> 494 66<896.5 912> 513 158<303.5 399.5>
AnchorPoint: "Anchor-0" 361 0 basechar 0
LayerCount: 2
Fore
SplineSet
440 770 m 0xea
 369 770 325 815 275 815 c 0
 250 815 228 806 228 774 c 1
 161 774 l 1
 161 854 192 916 282 916 c 0xd5
 355 916 395 872 447 872 c 0
 472 872 494 881 494 912 c 1
 560 912 l 1
 560 834 530 770 440 770 c 0xea
361 -12 m 0xd9
 134 -12 50 177 50 350 c 0
 50 523 134 712 361 712 c 0
 587 712 671 523 671 350 c 0
 671 177 587 -12 361 -12 c 0xd9
361 135 m 0
 472 135 513 257 513 350 c 0
 513 449 476 566 361 566 c 0
 245 566 208 444 208 350 c 0
 208 253 246 135 361 135 c 0
EndSplineSet
Position2: "'cpsp' Capital Spacing in Latin lookup 0 subtable" dx=5 dy=0 dh=10 dv=0
EndChar

StartChar: OE
Encoding: 354 338 194
Width: 1024
Flags: MW
HStem: -12 147<303.5 377> 0 145<620 961 620 961> 289 144<620 786 620 786> 556 144<620 940 620 620> 566 146<303 381 249.5 385>
VStem: 50 158<300.5 397.5 300.5 440> 467 153<0 289 5 289 185 289 433 518 518 518>
LayerCount: 2
Fore
SplineSet
467 0 m 1x76
 467 5 l 1x76
 421 -10 393 -12 361 -12 c 0
 134 -12 50 177 50 350 c 0
 50 530 138 712 361 712 c 0xae
 401 712 438 705 467 695 c 1
 467 700 l 1
 940 700 l 1
 940 556 l 1
 620 556 l 1
 620 433 l 1
 786 433 l 1
 786 289 l 1
 620 289 l 1
 620 145 l 1
 961 145 l 1
 961 0 l 1
 467 0 l 1x76
361 135 m 0xae
 405 135 442 154 467 185 c 1
 467 518 l 1
 441 547 409 566 361 566 c 0
 245 566 208 445 208 350 c 0
 208 251 246 135 361 135 c 0xae
EndSplineSet
Position2: "'cpsp' Capital Spacing in Latin lookup 0 subtable" dx=5 dy=0 dh=10 dv=0
EndChar

StartChar: oe
Encoding: 355 339 195
Width: 899
Flags: MW
HStem: -12 127<596.5 647.5 596.5 667> -12 140<259 315.5 259 320> 198 125<523 713 523 845 521 713> 383 140<259 315.5> 397 126<593.5 648>
VStem: 50 145<215 295 215 337.5>
LayerCount: 2
Fore
SplineSet
287 -12 m 0x6c
 144 -12 50 87 50 255 c 0
 50 420 144 523 287 523 c 0
 353 523 406 504 447 461 c 1
 487 501 560 523 623 523 c 0
 752 523 854 445 854 281 c 0
 854 262 851 233 845 198 c 1
 521 198 l 1
 528 143 570 115 623 115 c 0
 672 115 704 129 735 168 c 1xac
 822 81 l 1
 775 24 711 -12 623 -12 c 0
 560 -12 486 8 447 50 c 1
 406 9 353 -12 287 -12 c 0x6c
523 323 m 1
 713 323 l 1
 701 363 673 397 623 397 c 0
 564 397 533 369 523 323 c 1
287 128 m 0
 344 128 377 175 377 255 c 0
 377 335 344 383 287 383 c 0x74
 231 383 195 335 195 255 c 0
 195 175 231 128 287 128 c 0
EndSplineSet
EndChar

StartChar: endash
Encoding: 356 8211 196
Width: 495
Flags: MW
HStem: 223 128<50 445 50 445>
VStem: 50 395<223 351 223 351>
LayerCount: 2
Fore
SplineSet
50 223 m 1
 50 351 l 1
 445 351 l 1
 445 223 l 1
 50 223 l 1
EndSplineSet
EndChar

StartChar: emdash
Encoding: 357 8212 197
Width: 575
Flags: MW
HStem: 223 128<-5 580 -5 580>
VStem: -5 585<223 351 223 351>
LayerCount: 2
Fore
SplineSet
-5 223 m 1
 -5 351 l 1
 580 351 l 1
 580 223 l 1
 -5 223 l 1
EndSplineSet
EndChar

StartChar: quotedblleft
Encoding: 358 8220 198
Width: 509
Flags: MW
HStem: 692 20G<165 165 413 413>
VStem: 35 178<476.5 515 468 547.5> 283 178<476.5 515 468 546.5>
LayerCount: 2
Fore
SplineSet
124 408 m 0
 76 408 35 446 35 507 c 0
 35 588 97 666 165 712 c 1
 229 662 l 1
 212 648 174 600 162 577 c 1
 192 561 213 536 213 494 c 0
 213 442 170 408 124 408 c 0
372 408 m 0
 322 408 283 446 283 507 c 0
 283 586 346 667 413 712 c 1
 477 662 l 1
 459 646 423 602 410 577 c 1
 440 561 461 536 461 494 c 0
 461 442 418 408 372 408 c 0
EndSplineSet
EndChar

StartChar: quotedblright
Encoding: 359 8221 199
Width: 509
Flags: MW
HStem: 692 20G<114.5 162.5 362.5 411.5>
VStem: 48 178<604.5 644.5 574.5 651.5> 296 178<604.5 644.5 574.5 651.5>
LayerCount: 2
Fore
SplineSet
32 458 m 1
 50 474 85 518 99 543 c 1
 69 558 48 584 48 625 c 0
 48 678 91 712 138 712 c 0
 187 712 226 676 226 613 c 0
 226 536 162 449 96 408 c 1
 32 458 l 1
280 458 m 1
 298 474 333 518 347 543 c 1
 317 558 296 584 296 625 c 0
 296 678 339 712 386 712 c 0
 437 712 474 676 474 613 c 0
 474 536 412 447 344 408 c 1
 280 458 l 1
EndSplineSet
EndChar

StartChar: quoteleft
Encoding: 360 8216 200
Width: 261
Flags: MW
HStem: 692 20G<165 165>
VStem: 35 178<476.5 515 468 547.5>
LayerCount: 2
Fore
SplineSet
124 408 m 0
 76 408 35 446 35 507 c 0
 35 588 97 666 165 712 c 1
 229 662 l 1
 212 648 174 600 162 577 c 1
 192 561 213 536 213 494 c 0
 213 442 170 408 124 408 c 0
EndSplineSet
EndChar

StartChar: quoteright
Encoding: 361 8217 201
Width: 261
Flags: MW
HStem: 692 20G<114.5 162.5>
VStem: 48 178<604.5 644.5 574.5 651.5>
LayerCount: 2
Fore
SplineSet
32 458 m 1
 50 474 85 518 99 543 c 1
 69 558 48 584 48 625 c 0
 48 678 91 712 138 712 c 0
 187 712 226 676 226 613 c 0
 226 536 162 449 96 408 c 1
 32 458 l 1
EndSplineSet
EndChar

StartChar: divide
Encoding: 362 247 202
Width: 630
Flags: MW
HStem: 88 166<292 340> 273 141<80 550 80 550> 432 166<292 340>
VStem: 230 171<149 195.5 492.5 538>
LayerCount: 2
Fore
SplineSet
316 432 m 0
 268 432 230 470 230 515 c 0
 230 561 268 598 316 598 c 0
 364 598 401 561 401 515 c 0
 401 470 364 432 316 432 c 0
80 273 m 1x50
 80 414 l 1
 550 414 l 1
 550 273 l 1
 80 273 l 1x50
316 88 m 0xd0
 268 88 230 126 230 172 c 0
 230 219 268 254 316 254 c 0
 364 254 401 219 401 172 c 0
 401 126 364 88 316 88 c 0xd0
EndSplineSet
EndChar

StartChar: lozenge
Encoding: 363 9674 203
Width: 613
Flags: MW
HStem: -12 21G<258 258 258 355> 692 20G<258 355 355 355>
VStem: 55 503<350 350>
LayerCount: 2
Fore
SplineSet
258 -12 m 1
 55 350 l 1
 258 712 l 1
 355 712 l 1
 558 350 l 1
 355 -12 l 1
 258 -12 l 1
306 518 m 1
 214 350 l 1
 306 183 l 1
 399 350 l 1
 306 518 l 1
EndSplineSet
EndChar

StartChar: ydieresis
Encoding: 364 255 204
Width: 588
GlyphClass: 2
Flags: MW
HStem: 491 20G<25 175 175 175 414 563 563 563> 576 157<174 219.5 370 415>
VStem: 119 157<631 676.5> 314 157<631 676.5>
AnchorPoint: "Anchor-0" 295 0 basechar 0
LayerCount: 2
Fore
SplineSet
197 576 m 0
 151 576 119 608 119 654 c 0
 119 699 151 733 197 733 c 0
 242 733 276 699 276 654 c 0
 276 608 242 576 197 576 c 0
393 576 m 0
 347 576 314 608 314 654 c 0
 314 699 347 733 393 733 c 0
 437 733 471 699 471 654 c 0
 471 608 437 576 393 576 c 0
141 -194 m 1
 218 6 l 1
 25 511 l 1
 175 511 l 1
 279 238 l 2
 284 225 291 206 295 190 c 1
 299 206 306 225 311 238 c 2
 414 511 l 1
 563 511 l 1
 291 -194 l 1
 141 -194 l 1
EndSplineSet
EndChar

StartChar: Ydieresis
Encoding: 365 376 205
Width: 707
GlyphClass: 2
Flags: MW
HStem: 0 21G<278 278 278 429> 680 20G<12 184 184 184 523 695 695 695> 765 157<233 278.5 429 474>
VStem: 178 157<820 865.5> 278 151<0 272 0 272> 373 157<820 865.5>
AnchorPoint: "Anchor-0" 354 0 basechar 0
LayerCount: 2
Fore
SplineSet
256 765 m 0xf4
 210 765 178 797 178 843 c 0
 178 888 210 922 256 922 c 0
 301 922 335 888 335 843 c 0
 335 797 301 765 256 765 c 0xf4
452 765 m 0
 406 765 373 797 373 843 c 0
 373 888 406 922 452 922 c 0
 496 922 530 888 530 843 c 0
 530 797 496 765 452 765 c 0
278 0 m 1xe8
 278 272 l 1
 12 700 l 1
 184 700 l 1
 354 434 l 1
 523 700 l 1
 695 700 l 1
 429 272 l 1
 429 0 l 1
 278 0 l 1xe8
EndSplineSet
Position2: "'cpsp' Capital Spacing in Latin lookup 0 subtable" dx=5 dy=0 dh=10 dv=0
EndChar

StartChar: fraction
Encoding: 366 8260 206
Width: 380
Flags: MW
HStem: -12 21G<-120 -120 -120 22> 692 20G<358 500 500 500>
VStem: -120 620
LayerCount: 2
Fore
SplineSet
-120 -12 m 1
 358 712 l 1
 500 712 l 1
 22 -12 l 1
 -120 -12 l 1
EndSplineSet
EndChar

StartChar: Euro
Encoding: 367 8364 207
Width: 644
Flags: MW
HStem: -12 139<359.5 403.5 359.5 428.5> 214 104<289 417 289 289> 369 104<270 520 287 478> 573 139<365 421 315 422>
VStem: 120 149<318 350 350 369>
LayerCount: 2
Fore
SplineSet
491 198 m 1
 604 128 l 1
 554 45 476 -12 381 -12 c 0
 232 -12 158 81 135 217 c 1
 39 217 l 1
 84 318 l 1
 120 318 l 1
 119 330 119 343 119 344 c 0
 119 346 119 353 120 369 c 1
 38 369 l 1
 83 471 l 1
 135 471 l 1
 161 605 239 712 391 712 c 0
 451 712 516 693 587 641 c 1
 535 513 l 1
 494 548 453 573 391 573 c 0
 339 573 305 535 287 473 c 1
 520 473 l 1
 478 369 l 1
 270 369 l 1
 269 350 l 1
 269 350 269 326 270 318 c 1
 459 318 l 1
 417 214 l 1
 289 214 l 1
 302 156 338 127 381 127 c 0
 426 127 459 152 491 198 c 1
EndSplineSet
EndChar

StartChar: guilsinglleft
Encoding: 368 8249 208
Width: 352
Flags: MW
HStem: 0 21G<182 182 182 337> 491 20G<182 337 337 337>
VStem: 30 307<0 256>
LayerCount: 2
Fore
SplineSet
182 0 m 1
 30 256 l 1
 182 511 l 1
 337 511 l 1
 185 256 l 1
 337 0 l 1
 182 0 l 1
EndSplineSet
EndChar

StartChar: guilsinglright
Encoding: 369 8250 209
Width: 352
Flags: MW
HStem: 0 21G<15 15 15 170> 491 20G<15 170 170 170>
VStem: 15 307<0 256 256 511>
LayerCount: 2
Fore
SplineSet
15 0 m 1
 167 256 l 1
 15 511 l 1
 170 511 l 1
 322 256 l 1
 170 0 l 1
 15 0 l 1
EndSplineSet
EndChar

StartChar: fi
Encoding: 370 64257 210
Width: 673
LigCaretCntFixed: 1
Flags: MW
HStem: 0 21G<80 225 80 80 457 602 457 457> 384 127<12 80 12 80 225 332> 560 165<507 553.5> 586 126<179 263.5>
VStem: 80 145<0 384 0 384 511 557> 446 167<620.5 666> 457 145<0 511 0 511>
LayerCount: 2
Fore
SplineSet
530 560 m 0xec
 484 560 446 598 446 643 c 0
 446 689 484 725 530 725 c 0
 577 725 613 689 613 643 c 0
 613 598 577 560 530 560 c 0xec
225 384 m 1
 225 0 l 1
 80 0 l 1
 80 384 l 1
 12 384 l 1
 12 511 l 1
 80 511 l 1
 80 587 l 2
 80 692 147 712 211 712 c 0
 253 712 291 708 332 686 c 1
 332 569 l 1
 290 586 268 586 259 586 c 0
 242 586 225 580 225 557 c 2xda
 225 511 l 1
 332 511 l 1
 332 384 l 1
 225 384 l 1
457 0 m 1
 457 511 l 1
 602 511 l 1
 602 0 l 1
 457 0 l 1
EndSplineSet
Ligature2: "'liga' Standard Ligatures in Latin lookup 18 subtable" f i
LCarets2: 1 381
EndChar

StartChar: fl
Encoding: 371 64258 211
Width: 681
LigCaretCntFixed: 1
Flags: MW
HStem: 0 21G<80 225 80 80 456 456 456 601> 384 127<12 80 12 80 225 332> 586 126<179 263.5>
VStem: 80 145<0 384 0 384 511 557> 456 145<0 654 654 654>
LayerCount: 2
Fore
SplineSet
456 0 m 1
 456 654 l 1
 601 722 l 1
 601 0 l 1
 456 0 l 1
225 384 m 1
 225 0 l 1
 80 0 l 1
 80 384 l 1
 12 384 l 1
 12 511 l 1
 80 511 l 1
 80 587 l 2
 80 692 147 712 211 712 c 0
 253 712 291 708 332 686 c 1
 332 569 l 1
 290 586 268 586 259 586 c 0
 242 586 225 580 225 557 c 2
 225 511 l 1
 332 511 l 1
 332 384 l 1
 225 384 l 1
EndSplineSet
Ligature2: "'liga' Standard Ligatures in Latin lookup 18 subtable" f l
LCarets2: 1 376
EndChar

StartChar: daggerdbl
Encoding: 372 8225 212
Width: 598
Flags: MW
HStem: 28 139<65 143 65 143 454 533> 404 140<65 143 65 143 454 533> 692 20G<226 371 371 371>
VStem: 226 145<-141 -16 -141 -16 239 333 587 712>
LayerCount: 2
Fore
SplineSet
533 28 m 1
 454 28 l 1
 364 40 l 1
 371 -16 l 1
 371 -141 l 1
 226 -141 l 1
 226 -16 l 1
 234 40 l 1
 143 28 l 1
 65 28 l 1
 65 167 l 1
 143 167 l 1
 234 155 l 1
 226 239 l 1
 226 333 l 1
 234 416 l 1
 143 404 l 1
 65 404 l 1
 65 544 l 1
 143 544 l 1
 234 531 l 1
 226 587 l 1
 226 712 l 1
 371 712 l 1
 371 587 l 1
 364 531 l 1
 454 544 l 1
 533 544 l 1
 533 404 l 1
 454 404 l 1
 364 416 l 1
 371 333 l 1
 371 239 l 1
 364 155 l 1
 454 167 l 1
 533 167 l 1
 533 28 l 1
EndSplineSet
EndChar

StartChar: periodcentered
Encoding: 373 183 213
Width: 252
Flags: MW
HStem: 262 175<99.5 150.5>
VStem: 36 180<325 373>
LayerCount: 2
Fore
SplineSet
125 262 m 0
 74 262 36 301 36 349 c 0
 36 397 74 437 125 437 c 0
 176 437 216 397 216 349 c 0
 216 301 176 262 125 262 c 0
EndSplineSet
EndChar

StartChar: quotesinglbase
Encoding: 374 8218 214
Width: 261
Flags: MW
HStem: -6 21G
VStem: 48 178<56 96 26 103>
LayerCount: 2
Fore
SplineSet
32 -91 m 1
 50 -75 85 -31 99 -6 c 1
 69 10 48 35 48 77 c 0
 48 129 91 164 138 164 c 0
 187 164 226 127 226 65 c 0
 226 -13 162 -100 96 -141 c 1
 32 -91 l 1
EndSplineSet
EndChar

StartChar: quotedblbase
Encoding: 375 8222 215
Width: 509
Flags: MW
HStem: -6 21G
VStem: 48 178<56 96 26 103> 296 178<56 96 26 103>
LayerCount: 2
Fore
SplineSet
32 -91 m 1
 50 -75 85 -31 99 -6 c 1
 69 10 48 35 48 77 c 0
 48 129 91 164 138 164 c 0
 187 164 226 127 226 65 c 0
 226 -13 162 -100 96 -141 c 1
 32 -91 l 1
280 -91 m 1
 298 -75 333 -31 347 -6 c 1
 317 10 296 35 296 77 c 0
 296 129 339 164 386 164 c 0
 437 164 474 127 474 65 c 0
 474 -13 412 -101 344 -141 c 1
 280 -91 l 1
EndSplineSet
EndChar

StartChar: perthousand
Encoding: 376 8240 216
Width: 1239
Flags: MW
HStem: -12 124<606 637.5 606 686.5 1005 1037> 236 124<606.5 637 1005.5 1036.5> 341 124<203.5 234.5 203.5 283.5> 588 124<203 234>
VStem: 45 128<508 542.5 508 566> 264 128<510 544.5> 449 127<156 190 156 214> 668 127<158 192.5> 848 127<156 190 156 214> 1067 127<158 192.5>
LayerCount: 2
Fore
SplineSet
219 341 m 0xbf
 93 341 45 441 45 526 c 0
 45 606 92 712 219 712 c 0
 345 712 392 612 392 526 c 0
 392 446 348 341 219 341 c 0xbf
256 -12 m 1
 108 -12 l 1
 584 712 l 1
 733 712 l 1
 256 -12 l 1
219 465 m 0
 250 465 264 494 264 526 c 0
 264 563 249 588 219 588 c 0
 187 588 173 559 173 526 c 0
 173 490 188 465 219 465 c 0
622 -12 m 0
 494 -12 449 87 449 174 c 0
 449 254 494 360 622 360 c 0x43
 748 360 795 261 795 174 c 0
 795 91 751 -12 622 -12 c 0
1021 -12 m 0xc3c0
 893 -12 848 87 848 174 c 0
 848 254 894 360 1021 360 c 0
 1148 360 1194 261 1194 174 c 0
 1194 91 1151 -12 1021 -12 c 0xc3c0
622 112 m 0
 653 112 668 142 668 174 c 0
 668 211 652 236 622 236 c 0
 591 236 576 206 576 174 c 0
 576 138 590 112 622 112 c 0
1021 112 m 0
 1053 112 1067 142 1067 174 c 0
 1067 211 1052 236 1021 236 c 0
 990 236 975 206 975 174 c 0
 975 138 989 112 1021 112 c 0
EndSplineSet
EndChar

StartChar: Acircumflex
Encoding: 377 194 217
Width: 737
GlyphClass: 2
Flags: MW
HStem: 0 21G<19 185 19 19 552 718 552 552> 136 140<287 449 287 500 237 449> 680 20G<295 441 441 441> 765 156<159 437 159 437 301 578 301 447>
VStem: 19 699<0 0>
AnchorPoint: "Anchor-0" 369 0 basechar 0
LayerCount: 2
Fore
SplineSet
447 765 m 1
 369 829 l 1
 290 765 l 1
 159 765 l 1
 301 921 l 1
 437 921 l 1
 578 765 l 1
 447 765 l 1
552 0 m 1
 500 136 l 1
 237 136 l 1
 185 0 l 1
 19 0 l 1
 295 700 l 1
 441 700 l 1
 718 0 l 1
 552 0 l 1
449 276 m 1
 389 427 l 2
 382 444 373 468 368 486 c 1
 364 468 354 444 347 427 c 2
 287 276 l 1
 449 276 l 1
EndSplineSet
Position2: "'cpsp' Capital Spacing in Latin lookup 0 subtable" dx=5 dy=0 dh=10 dv=0
EndChar

StartChar: Ecircumflex
Encoding: 378 202 218
Width: 637
GlyphClass: 2
Flags: MW
HStem: 0 145<227 598 227 598> 289 144<227 423 227 423> 556 144<227 578 227 227> 765 156<123 401 123 401 265 542 265 411>
VStem: 75 152<145 289 433 556>
AnchorPoint: "Anchor-0" 318 0 basechar 0
LayerCount: 2
Fore
SplineSet
411 765 m 1
 333 829 l 1
 254 765 l 1
 123 765 l 1
 265 921 l 1
 401 921 l 1
 542 765 l 1
 411 765 l 1
75 0 m 1
 75 700 l 1
 578 700 l 1
 578 556 l 1
 227 556 l 1
 227 433 l 1
 423 433 l 1
 423 289 l 1
 227 289 l 1
 227 145 l 1
 598 145 l 1
 598 0 l 1
 75 0 l 1
EndSplineSet
Position2: "'cpsp' Capital Spacing in Latin lookup 0 subtable" dx=5 dy=0 dh=10 dv=0
EndChar

StartChar: Aacute
Encoding: 379 193 219
Width: 737
GlyphClass: 2
Flags: MW
HStem: 0 21G<19 185 19 19 552 718 552 552> 136 140<287 449 287 500 237 449> 680 20G<295 441 441 441> 765 156<228 543 228 543>
VStem: 19 699<0 0>
AnchorPoint: "Anchor-0" 369 0 basechar 0
LayerCount: 2
Fore
SplineSet
228 765 m 1
 370 921 l 1
 543 921 l 1
 365 765 l 1
 228 765 l 1
552 0 m 1
 500 136 l 1
 237 136 l 1
 185 0 l 1
 19 0 l 1
 295 700 l 1
 441 700 l 1
 718 0 l 1
 552 0 l 1
449 276 m 1
 389 427 l 2
 382 444 373 468 368 486 c 1
 364 468 354 444 347 427 c 2
 287 276 l 1
 449 276 l 1
EndSplineSet
Position2: "'cpsp' Capital Spacing in Latin lookup 0 subtable" dx=5 dy=0 dh=10 dv=0
EndChar

StartChar: Edieresis
Encoding: 380 203 220
Width: 637
GlyphClass: 2
Flags: MW
HStem: 0 145<227 598 227 598> 289 144<227 423 227 423> 556 144<227 578 227 227> 765 157<212 257.5 408 453>
VStem: 75 152<145 289 433 556> 157 157<820 865.5> 352 157<820 865.5>
AnchorPoint: "Anchor-0" 318 0 basechar 0
LayerCount: 2
Fore
SplineSet
235 765 m 0xf6
 189 765 157 797 157 843 c 0
 157 888 189 922 235 922 c 0
 280 922 314 888 314 843 c 0
 314 797 280 765 235 765 c 0xf6
431 765 m 0
 385 765 352 797 352 843 c 0
 352 888 385 922 431 922 c 0
 475 922 509 888 509 843 c 0
 509 797 475 765 431 765 c 0
75 0 m 1xe8
 75 700 l 1
 578 700 l 1
 578 556 l 1
 227 556 l 1
 227 433 l 1
 423 433 l 1
 423 289 l 1
 227 289 l 1
 227 145 l 1
 598 145 l 1
 598 0 l 1
 75 0 l 1xe8
EndSplineSet
Position2: "'cpsp' Capital Spacing in Latin lookup 0 subtable" dx=5 dy=0 dh=10 dv=0
EndChar

StartChar: Egrave
Encoding: 381 200 221
Width: 637
GlyphClass: 2
Flags: MW
HStem: 0 145<227 598 227 598> 289 144<227 423 227 423> 556 144<227 578 227 227> 765 156<145 323 145 460>
VStem: 75 152<145 289 433 556>
AnchorPoint: "Anchor-0" 318 0 basechar 0
LayerCount: 2
Fore
SplineSet
323 765 m 1
 145 921 l 1
 318 921 l 1
 460 765 l 1
 323 765 l 1
75 0 m 1
 75 700 l 1
 578 700 l 1
 578 556 l 1
 227 556 l 1
 227 433 l 1
 423 433 l 1
 423 289 l 1
 227 289 l 1
 227 145 l 1
 598 145 l 1
 598 0 l 1
 75 0 l 1
EndSplineSet
Position2: "'cpsp' Capital Spacing in Latin lookup 0 subtable" dx=5 dy=0 dh=10 dv=0
EndChar

StartChar: Iacute
Encoding: 382 205 222
Width: 311
GlyphClass: 2
Flags: MW
HStem: 0 21G<80 80 80 232> 680 20G<80 232 232 232> 765 156<26 341 26 341>
VStem: 80 152<0 700 0 700>
AnchorPoint: "Anchor-0" 157 0 basechar 0
LayerCount: 2
Fore
SplineSet
26 765 m 1
 168 921 l 1
 341 921 l 1
 163 765 l 1
 26 765 l 1
80 0 m 1
 80 700 l 1
 232 700 l 1
 232 0 l 1
 80 0 l 1
EndSplineSet
Position2: "'cpsp' Capital Spacing in Latin lookup 0 subtable" dx=5 dy=0 dh=10 dv=0
EndChar

StartChar: Icircumflex
Encoding: 383 206 223
Width: 311
GlyphClass: 2
Flags: MW
HStem: 0 21G<80 80 80 232> 680 20G<80 232 232 232> 765 156<-53 225 -53 225 89 366 89 235>
VStem: 80 152<0 700 0 700>
AnchorPoint: "Anchor-0" 157 0 basechar 0
LayerCount: 2
Fore
SplineSet
235 765 m 1
 157 829 l 1
 78 765 l 1
 -53 765 l 1
 89 921 l 1
 225 921 l 1
 366 765 l 1
 235 765 l 1
80 0 m 1
 80 700 l 1
 232 700 l 1
 232 0 l 1
 80 0 l 1
EndSplineSet
Position2: "'cpsp' Capital Spacing in Latin lookup 0 subtable" dx=5 dy=0 dh=10 dv=0
EndChar

StartChar: Idieresis
Encoding: 384 207 224
Width: 311
GlyphClass: 2
Flags: MW
HStem: 0 21G<80 80 80 232> 680 20G<80 232 232 232> 765 157<36 81.5 232 277>
VStem: -19 157<820 865.5> 80 152<0 700 0 700> 176 157<820 865.5>
AnchorPoint: "Anchor-0" 157 0 basechar 0
LayerCount: 2
Fore
SplineSet
59 765 m 0xf4
 13 765 -19 797 -19 843 c 0
 -19 888 13 922 59 922 c 0
 104 922 138 888 138 843 c 0
 138 797 104 765 59 765 c 0xf4
255 765 m 0
 209 765 176 797 176 843 c 0
 176 888 209 922 255 922 c 0
 299 922 333 888 333 843 c 0
 333 797 299 765 255 765 c 0
80 0 m 1xe8
 80 700 l 1
 232 700 l 1
 232 0 l 1
 80 0 l 1xe8
EndSplineSet
Position2: "'cpsp' Capital Spacing in Latin lookup 0 subtable" dx=5 dy=0 dh=10 dv=0
EndChar

StartChar: Igrave
Encoding: 385 204 225
Width: 311
GlyphClass: 2
Flags: MW
HStem: 0 21G<80 80 80 232> 680 20G<80 232 232 232> 765 156<-17 161 -17 298>
VStem: 80 152<0 700 0 700>
AnchorPoint: "Anchor-0" 157 0 basechar 0
LayerCount: 2
Fore
SplineSet
161 765 m 1
 -17 921 l 1
 156 921 l 1
 298 765 l 1
 161 765 l 1
80 0 m 1
 80 700 l 1
 232 700 l 1
 232 0 l 1
 80 0 l 1
EndSplineSet
Position2: "'cpsp' Capital Spacing in Latin lookup 0 subtable" dx=5 dy=0 dh=10 dv=0
EndChar

StartChar: Oacute
Encoding: 386 211 226
Width: 720
GlyphClass: 2
Flags: MW
HStem: -12 147<303.5 416.5 303.5 474> 566 146<303 418.5> 765 156<220 535 220 535>
VStem: 50 158<301.5 397 301.5 436.5> 513 158<303.5 399.5>
AnchorPoint: "Anchor-0" 361 0 basechar 0
LayerCount: 2
Fore
SplineSet
220 765 m 1
 362 921 l 1
 535 921 l 1
 357 765 l 1
 220 765 l 1
361 -12 m 0
 134 -12 50 177 50 350 c 0
 50 523 134 712 361 712 c 0
 587 712 671 523 671 350 c 0
 671 177 587 -12 361 -12 c 0
361 135 m 0
 472 135 513 257 513 350 c 0
 513 449 476 566 361 566 c 0
 245 566 208 444 208 350 c 0
 208 253 246 135 361 135 c 0
EndSplineSet
Position2: "'cpsp' Capital Spacing in Latin lookup 0 subtable" dx=5 dy=0 dh=10 dv=0
EndChar

StartChar: Ocircumflex
Encoding: 387 212 227
Width: 720
GlyphClass: 2
Flags: MW
HStem: -12 147<303.5 416.5 303.5 474> 566 146<303 418.5> 765 156<151 429 151 429 293 570 293 439>
VStem: 50 158<301.5 397 301.5 436.5> 513 158<303.5 399.5>
AnchorPoint: "Anchor-0" 361 0 basechar 0
LayerCount: 2
Fore
SplineSet
439 765 m 1
 361 829 l 1
 282 765 l 1
 151 765 l 1
 293 921 l 1
 429 921 l 1
 570 765 l 1
 439 765 l 1
361 -12 m 0
 134 -12 50 177 50 350 c 0
 50 523 134 712 361 712 c 0
 587 712 671 523 671 350 c 0
 671 177 587 -12 361 -12 c 0
361 135 m 0
 472 135 513 257 513 350 c 0
 513 449 476 566 361 566 c 0
 245 566 208 444 208 350 c 0
 208 253 246 135 361 135 c 0
EndSplineSet
Position2: "'cpsp' Capital Spacing in Latin lookup 0 subtable" dx=5 dy=0 dh=10 dv=0
EndChar

StartChar: Ograve
Encoding: 388 210 228
Width: 720
GlyphClass: 2
Flags: MW
HStem: -12 147<303.5 416.5 303.5 474> 566 146<303 418.5> 766 156<164 342 164 479>
VStem: 50 158<301.5 397 301.5 436.5> 513 158<303.5 399.5>
AnchorPoint: "Anchor-0" 361 0 basechar 0
LayerCount: 2
Fore
SplineSet
342 766 m 1
 164 922 l 1
 337 922 l 1
 479 766 l 1
 342 766 l 1
361 -12 m 0
 134 -12 50 177 50 350 c 0
 50 523 134 712 361 712 c 0
 587 712 671 523 671 350 c 0
 671 177 587 -12 361 -12 c 0
361 135 m 0
 472 135 513 257 513 350 c 0
 513 449 476 566 361 566 c 0
 245 566 208 444 208 350 c 0
 208 253 246 135 361 135 c 0
EndSplineSet
Position2: "'cpsp' Capital Spacing in Latin lookup 0 subtable" dx=5 dy=0 dh=10 dv=0
EndChar

StartChar: Uacute
Encoding: 389 218 229
Width: 724
GlyphClass: 2
Flags: MW
HStem: -12 147<315.5 407 315.5 434> 680 20G<70 222 222 222 502 654 654 654> 765 156<238 553 238 553>
VStem: 70 152<270 700> 502 152<270 700>
AnchorPoint: "Anchor-0" 362 0 basechar 0
LayerCount: 2
Fore
SplineSet
238 765 m 1
 380 921 l 1
 553 921 l 1
 375 765 l 1
 238 765 l 1
362 -12 m 0
 222 -12 70 57 70 270 c 2
 70 700 l 1
 222 700 l 1
 222 270 l 2
 222 167 269 135 362 135 c 0
 452 135 502 167 502 270 c 2
 502 700 l 1
 654 700 l 1
 654 270 l 2
 654 61 506 -12 362 -12 c 0
EndSplineSet
Position2: "'cpsp' Capital Spacing in Latin lookup 0 subtable" dx=5 dy=0 dh=10 dv=0
EndChar

StartChar: Ucircumflex
Encoding: 390 219 230
Width: 724
GlyphClass: 2
Flags: MW
HStem: -12 147<315.5 407 315.5 434> 680 20G<70 222 222 222 502 654 654 654> 765 156<152 430 152 430 294 571 294 440>
VStem: 70 152<270 700> 502 152<270 700>
AnchorPoint: "Anchor-0" 362 0 basechar 0
LayerCount: 2
Fore
SplineSet
440 765 m 1
 362 829 l 1
 283 765 l 1
 152 765 l 1
 294 921 l 1
 430 921 l 1
 571 765 l 1
 440 765 l 1
362 -12 m 0
 222 -12 70 57 70 270 c 2
 70 700 l 1
 222 700 l 1
 222 270 l 2
 222 167 269 135 362 135 c 0
 452 135 502 167 502 270 c 2
 502 700 l 1
 654 700 l 1
 654 270 l 2
 654 61 506 -12 362 -12 c 0
EndSplineSet
Position2: "'cpsp' Capital Spacing in Latin lookup 0 subtable" dx=5 dy=0 dh=10 dv=0
EndChar

StartChar: Ugrave
Encoding: 391 217 231
Width: 724
GlyphClass: 2
Flags: MW
HStem: -12 147<315.5 407 315.5 434> 680 20G<70 222 222 222 502 654 654 654> 765 156<188 366 188 503>
VStem: 70 152<270 700> 502 152<270 700>
AnchorPoint: "Anchor-0" 362 0 basechar 0
LayerCount: 2
Fore
SplineSet
366 765 m 1
 188 921 l 1
 361 921 l 1
 503 765 l 1
 366 765 l 1
362 -12 m 0
 222 -12 70 57 70 270 c 2
 70 700 l 1
 222 700 l 1
 222 270 l 2
 222 167 269 135 362 135 c 0
 452 135 502 167 502 270 c 2
 502 700 l 1
 654 700 l 1
 654 270 l 2
 654 61 506 -12 362 -12 c 0
EndSplineSet
Position2: "'cpsp' Capital Spacing in Latin lookup 0 subtable" dx=5 dy=0 dh=10 dv=0
EndChar

StartChar: dotlessi
Encoding: 392 305 232
Width: 297
GlyphClass: 2
Flags: MW
HStem: 0 21G<76 76 76 221> 491 20G<76 221 221 221>
VStem: 76 145<0 511 0 511>
AnchorPoint: "Anchor-0" 149 0 basechar 0
LayerCount: 2
Fore
SplineSet
76 0 m 1
 76 511 l 1
 221 511 l 1
 221 0 l 1
 76 0 l 1
EndSplineSet
EndChar

StartChar: circumflex
Encoding: 393 710 233
Width: 517
Flags: MW
HStem: 576 156<48 326 48 326 190 467 190 336>
VStem: 48 419<576 576>
LayerCount: 2
Fore
SplineSet
336 576 m 1
 258 640 l 1
 179 576 l 1
 48 576 l 1
 190 732 l 1
 326 732 l 1
 467 576 l 1
 336 576 l 1
EndSplineSet
EndChar

StartChar: tilde
Encoding: 394 732 234
Width: 517
Flags: MW
HStem: 581 102<318 356.5 318 382> 626 101<159.5 197>
VStem: 58 67<585 601 585 625> 391 66<707.5 723>
LayerCount: 2
Fore
SplineSet
337 581 m 0xb0
 266 581 222 626 172 626 c 0
 147 626 125 617 125 585 c 1
 58 585 l 1
 58 665 89 727 179 727 c 0x70
 252 727 292 683 344 683 c 0
 369 683 391 692 391 723 c 1
 457 723 l 1
 457 645 427 581 337 581 c 0xb0
EndSplineSet
EndChar

StartChar: macron
Encoding: 395 175 235
Width: 517
Flags: MW
HStem: 582 117<93 423 93 423>
VStem: 93 330<582 699 582 699>
LayerCount: 2
Fore
SplineSet
93 582 m 1
 93 699 l 1
 423 699 l 1
 423 582 l 1
 93 582 l 1
EndSplineSet
EndChar

StartChar: breve
Encoding: 396 728 236
Width: 517
Flags: MW
HStem: 570 100<225.5 290 225.5 324.5>
VStem: 65 107<726 742 726 742> 345 107<726 742>
LayerCount: 2
Fore
SplineSet
258 570 m 0
 124 570 65 651 65 742 c 1
 172 742 l 1
 172 710 193 670 258 670 c 0
 322 670 345 710 345 742 c 1
 452 742 l 1
 452 650 391 570 258 570 c 0
EndSplineSet
EndChar

StartChar: dotaccent
Encoding: 397 729 237
Width: 517
Flags: MW
HStem: 576 157<235 280>
VStem: 179 157<631 676.5>
LayerCount: 2
Fore
SplineSet
258 576 m 0
 212 576 179 608 179 654 c 0
 179 699 212 733 258 733 c 0
 302 733 336 699 336 654 c 0
 336 608 302 576 258 576 c 0
EndSplineSet
EndChar

StartChar: ring
Encoding: 398 730 238
Width: 517
Flags: MW
HStem: 521 97<247 266.5 247 295.5> 690 96<247 266.5>
VStem: 124 98<643.5 664.5 643.5 691.5> 293 99<643.5 664.5>
LayerCount: 2
Fore
SplineSet
258 521 m 0
 183 521 124 581 124 654 c 0
 124 729 183 786 258 786 c 0
 333 786 392 729 392 654 c 0
 392 581 333 521 258 521 c 0
258 618 m 0
 275 618 293 633 293 654 c 0
 293 675 275 690 258 690 c 0
 236 690 222 675 222 654 c 0
 222 633 236 618 258 618 c 0
EndSplineSet
EndChar

StartChar: cedilla
Encoding: 399 184 239
Width: 517
Flags: MW
HStem: -247 76<216.5 241.5 216.5 287> -98 108<224 242.5>
VStem: 273 109<-146.5 -123.5>
LayerCount: 2
Fore
SplineSet
241 -247 m 0
 180 -247 145 -225 125 -195 c 1
 184 -150 l 1
 192 -162 207 -171 226 -171 c 0
 257 -171 273 -158 273 -135 c 0
 273 -112 258 -98 227 -98 c 0
 211 -98 196 -105 182 -115 c 1
 151 -77 l 1
 224 10 l 1
 302 10 l 1
 267 -44 l 1
 345 -44 382 -82 382 -136 c 0
 382 -201 333 -247 241 -247 c 0
EndSplineSet
EndChar

StartChar: hungarumlaut
Encoding: 400 733 240
Width: 517
Flags: MW
HStem: 576 156<41 356 41 356 266 266 266 356 183 404>
VStem: 41 541<576 732>
LayerCount: 2
Fore
SplineSet
178 576 m 1
 41 576 l 1
 183 732 l 1
 356 732 l 1
 178 576 l 1
404 576 m 1
 266 576 l 1
 408 732 l 1
 582 732 l 1
 404 576 l 1
EndSplineSet
EndChar

StartChar: ogonek
Encoding: 401 731 241
Width: 517
Flags: MW
HStem: -247 83<273.5 289.5 273.5 295>
VStem: 133 118<-138.5 -104.5 -138.5 -102>
LayerCount: 2
Fore
SplineSet
259 -247 m 0
 182 -247 133 -201 133 -136 c 0
 133 -68 185 -18 270 10 c 1
 369 10 l 1
 277 -27 251 -85 251 -124 c 0
 251 -153 265 -164 282 -164 c 0
 297 -164 311 -156 319 -145 c 1
 385 -191 l 1
 366 -213 331 -247 259 -247 c 0
EndSplineSet
EndChar

StartChar: caron
Encoding: 402 711 242
Width: 517
Flags: MW
HStem: 576 156<48 325 48 189>
VStem: 48 419<732 732>
LayerCount: 2
Fore
SplineSet
325 576 m 1
 189 576 l 1
 48 732 l 1
 179 732 l 1
 258 669 l 1
 336 732 l 1
 467 732 l 1
 325 576 l 1
EndSplineSet
EndChar

StartChar: currency
Encoding: 403 164 243
Width: 661
Flags: MW
HStem: 84 143<308.5 351.5> 439 142<308 351 308 359> 499 20G<625 625> 502 20G<36 36>
VStem: 90 148<312 354> 423 148<312.5 353 312.5 364>
LayerCount: 2
Fore
SplineSet
331 84 m 0x9c
 286 84 249 94 214 110 c 1
 144 39 l 1
 36 146 l 1
 111 220 l 1
 97 255 90 291 90 333 c 0
 90 375 99 412 113 445 c 1
 36 522 l 1x9c
 141 627 l 1
 212 556 l 1
 247 572 285 581 331 581 c 0
 371 581 410 573 446 555 c 1
 516 627 l 1xcc
 625 519 l 1
 549 444 l 1xac
 562 414 571 373 571 333 c 0
 571 292 564 251 549 217 c 1
 625 143 l 1
 519 39 l 1
 447 111 l 1
 413 95 372 84 331 84 c 0x9c
331 227 m 0
 387 227 423 271 423 333 c 0
 423 395 387 439 331 439 c 0xcc
 275 439 238 395 238 333 c 0
 238 271 275 227 331 227 c 0
EndSplineSet
EndChar

StartChar: uni00AD
Encoding: 173 173 244
Width: 422
Flags: MW
HStem: 226 138<75 347 75 347>
VStem: 75 272<226 364 226 364>
LayerCount: 2
Fore
SplineSet
75 226 m 1
 75 364 l 1
 347 364 l 1
 347 226 l 1
 75 226 l 1
EndSplineSet
EndChar

StartChar: Amacron
Encoding: 404 256 245
Width: 737
GlyphClass: 2
Flags: MW
HStem: 0 21G<19 185 19 19 552 718 552 552> 136 140<287 449 287 500 237 449> 680 20G<295 441 441 441> 771 117<204 534 204 534>
VStem: 204 330<771 888 771 888>
AnchorPoint: "Anchor-0" 369 0 basechar 0
LayerCount: 2
Fore
SplineSet
204 771 m 1
 204 888 l 1
 534 888 l 1
 534 771 l 1
 204 771 l 1
552 0 m 1
 500 136 l 1
 237 136 l 1
 185 0 l 1
 19 0 l 1
 295 700 l 1
 441 700 l 1
 718 0 l 1
 552 0 l 1
449 276 m 1
 389 427 l 2
 382 444 373 468 368 486 c 1
 364 468 354 444 347 427 c 2
 287 276 l 1
 449 276 l 1
EndSplineSet
Position2: "'cpsp' Capital Spacing in Latin lookup 0 subtable" dx=5 dy=0 dh=10 dv=0
EndChar

StartChar: amacron
Encoding: 405 257 246
Width: 573
GlyphClass: 2
Flags: MW
HStem: -12 122<240 270> 0 110<240 364 240 508> 204 116<252 277 201.5 293> 402 121<252.5 306> 582 117<128 458 128 458>
VStem: 45 142<141 173.5 141 212> 128 330<582 699 582 699> 364 144<0 38 38 38 146 192 192 192 302 323 0 330 0 354>
AnchorPoint: "Anchor-0" 238 0 basechar 0
LayerCount: 2
Fore
SplineSet
128 582 m 1xba
 128 699 l 1
 458 699 l 1
 458 582 l 1
 128 582 l 1xba
364 0 m 1x7d
 364 38 l 1
 339 11 303 -12 237 -12 c 0xbd
 129 -12 45 44 45 156 c 0
 45 268 151 320 252 320 c 0
 302 320 335 315 364 302 c 1
 364 330 l 2
 364 378 331 402 281 402 c 0
 224 402 171 384 117 348 c 1
 72 459 l 1
 125 495 201 523 291 523 c 0
 386 523 508 499 508 323 c 2
 508 0 l 1
 364 0 l 1x7d
265 110 m 0
 309 110 340 127 364 146 c 1
 364 192 l 1
 337 200 309 204 277 204 c 0
 227 204 187 192 187 155 c 0
 187 127 215 110 265 110 c 0
EndSplineSet
EndChar

StartChar: Abreve
Encoding: 406 258 247
Width: 737
GlyphClass: 2
Flags: MW
HStem: 0 21G<19 185 19 19 552 718 552 552> 136 140<287 449 287 500 237 449> 680 20G<295 441 441 441> 759 100<336.5 401 336.5 435.5>
VStem: 176 107<915 931 915 931> 456 107<915 931>
AnchorPoint: "Anchor-0" 369 0 basechar 0
LayerCount: 2
Fore
SplineSet
369 759 m 0
 235 759 176 840 176 931 c 1
 283 931 l 1
 283 899 304 859 369 859 c 0
 433 859 456 899 456 931 c 1
 563 931 l 1
 563 839 502 759 369 759 c 0
552 0 m 1
 500 136 l 1
 237 136 l 1
 185 0 l 1
 19 0 l 1
 295 700 l 1
 441 700 l 1
 718 0 l 1
 552 0 l 1
449 276 m 1
 389 427 l 2
 382 444 373 468 368 486 c 1
 364 468 354 444 347 427 c 2
 287 276 l 1
 449 276 l 1
EndSplineSet
Position2: "'cpsp' Capital Spacing in Latin lookup 0 subtable" dx=5 dy=0 dh=10 dv=0
EndChar

StartChar: abreve
Encoding: 407 259 248
Width: 573
GlyphClass: 2
Flags: MW
HStem: -12 122<240 270> 0 110<240 364 240 508> 204 116<252 277 201.5 293> 402 121<252.5 306> 570 100<260.5 325 260.5 359.5>
VStem: 45 142<141 173.5 141 212> 100 107<726 742 726 742> 364 144<0 38 38 38 146 192 192 192 302 323 0 330 0 354> 380 107<726 742>
AnchorPoint: "Anchor-0" 238 0 basechar 0
LayerCount: 2
Fore
SplineSet
293 570 m 0xbb
 159 570 100 651 100 742 c 1
 207 742 l 1
 207 710 228 670 293 670 c 0
 357 670 380 710 380 742 c 1
 487 742 l 1xba80
 487 650 426 570 293 570 c 0xbb
364 0 m 1x7d
 364 38 l 1
 339 11 303 -12 237 -12 c 0xbd
 129 -12 45 44 45 156 c 0
 45 268 151 320 252 320 c 0
 302 320 335 315 364 302 c 1
 364 330 l 2
 364 378 331 402 281 402 c 0
 224 402 171 384 117 348 c 1
 72 459 l 1
 125 495 201 523 291 523 c 0
 386 523 508 499 508 323 c 2
 508 0 l 1
 364 0 l 1x7d
265 110 m 0
 309 110 340 127 364 146 c 1
 364 192 l 1
 337 200 309 204 277 204 c 0
 227 204 187 192 187 155 c 0
 187 127 215 110 265 110 c 0
EndSplineSet
EndChar

StartChar: Aogonek
Encoding: 408 260 249
Width: 752
Flags: MW
HStem: -247 83<596.5 612 596.5 618> 0 21G<27 192 27 27 560 560 678.5 726> 136 140<295 456 295 507 245 456> 680 20G<303 449 449 449>
VStem: 456 117<-138.5 -106.5>
LayerCount: 2
Fore
SplineSet
582 -247 m 0
 505 -247 456 -201 456 -136 c 0
 456 -77 497 -29 560 0 c 1
 507 136 l 1
 245 136 l 1
 192 0 l 1
 27 0 l 1
 303 700 l 1
 449 700 l 1
 726 0 l 1
 631 0 573 -67 573 -124 c 0
 573 -153 589 -164 604 -164 c 0
 620 -164 634 -156 642 -145 c 1
 708 -191 l 1
 689 -213 654 -247 582 -247 c 0
295 276 m 1
 456 276 l 1
 396 427 l 2
 390 443 381 460 376 481 c 1
 372 460 362 443 355 427 c 2
 295 276 l 1
EndSplineSet
Position2: "'cpsp' Capital Spacing in Latin lookup 0 subtable" dx=5 dy=0 dh=10 dv=0
EndChar

StartChar: aogonek
Encoding: 409 261 250
Width: 573
Flags: MW
HStem: -247 83<392.5 410.5 392.5 413> -12 127<240 270> 0 21G<508 508> 204 121<252 277 201.5 293> 397 126<252.5 306>
VStem: 45 142<144 173 144 215> 252 118<-138.5 -106> 364 144<2 33 33 33 149 192 192 192 304 323 0 330 0 352>
LayerCount: 2
Fore
SplineSet
378 -247 m 0xba
 301 -247 252 -201 252 -136 c 0xba
 252 -76 293 -27 364 2 c 1
 364 33 l 1
 341 11 303 -12 237 -12 c 0xdd
 129 -12 45 44 45 156 c 0
 45 274 151 325 252 325 c 0
 302 325 335 316 364 304 c 1
 364 330 l 2
 364 374 331 397 281 397 c 0
 224 397 171 379 117 343 c 1
 72 459 l 1
 125 495 201 523 291 523 c 0
 386 523 508 499 508 323 c 2
 508 0 l 1xbd
 459 -21 370 -53 370 -124 c 0
 370 -153 384 -164 401 -164 c 0
 420 -164 430 -156 438 -145 c 1
 504 -191 l 1
 485 -211 448 -247 378 -247 c 0xba
265 115 m 0xdd
 309 115 340 130 364 149 c 1
 364 192 l 1
 337 200 309 204 277 204 c 0
 227 204 187 190 187 156 c 0
 187 132 215 115 265 115 c 0xdd
EndSplineSet
EndChar

StartChar: uni01CD
Encoding: 410 461 251
Width: 737
GlyphClass: 2
Flags: MW
HStem: 0 21G<19 185 19 19 552 718 552 552> 136 140<287 449 287 500 237 449> 680 20G<295 441 441 441> 765 156<159 436 159 300>
VStem: 19 699<0 0>
AnchorPoint: "Anchor-0" 369 0 basechar 0
LayerCount: 2
Fore
SplineSet
436 765 m 1
 300 765 l 1
 159 921 l 1
 290 921 l 1
 369 858 l 1
 447 921 l 1
 578 921 l 1
 436 765 l 1
552 0 m 1
 500 136 l 1
 237 136 l 1
 185 0 l 1
 19 0 l 1
 295 700 l 1
 441 700 l 1
 718 0 l 1
 552 0 l 1
449 276 m 1
 389 427 l 2
 382 444 373 468 368 486 c 1
 364 468 354 444 347 427 c 2
 287 276 l 1
 449 276 l 1
EndSplineSet
Position2: "'cpsp' Capital Spacing in Latin lookup 0 subtable" dx=5 dy=0 dh=10 dv=0
EndChar

StartChar: uni01CE
Encoding: 411 462 252
Width: 573
GlyphClass: 2
Flags: MW
HStem: -12 122<240 270> 0 110<240 364 240 508> 204 116<252 277 201.5 293> 402 121<252.5 306> 576 156<83 360 83 224>
VStem: 45 142<141 173.5 141 212> 364 144<0 38 38 38 146 192 192 192 302 323 0 330 0 354>
AnchorPoint: "Anchor-0" 238 0 basechar 0
LayerCount: 2
Fore
SplineSet
360 576 m 1xba
 224 576 l 1
 83 732 l 1
 214 732 l 1
 293 669 l 1
 371 732 l 1
 502 732 l 1
 360 576 l 1xba
364 0 m 1x7e
 364 38 l 1
 339 11 303 -12 237 -12 c 0xbe
 129 -12 45 44 45 156 c 0
 45 268 151 320 252 320 c 0
 302 320 335 315 364 302 c 1
 364 330 l 2
 364 378 331 402 281 402 c 0
 224 402 171 384 117 348 c 1
 72 459 l 1
 125 495 201 523 291 523 c 0
 386 523 508 499 508 323 c 2
 508 0 l 1
 364 0 l 1x7e
265 110 m 0
 309 110 340 127 364 146 c 1
 364 192 l 1
 337 200 309 204 277 204 c 0
 227 204 187 192 187 155 c 0
 187 127 215 110 265 110 c 0
EndSplineSet
EndChar

StartChar: AEacute
Encoding: 412 508 253
Width: 904
GlyphClass: 2
Flags: MW
HStem: 0 145<522 857 522 857> 136 140<291 370 291 370 208 370> 289 144<522 682 522 682> 556 144<522 837 522 522> 765 156<369 684 369 684>
VStem: 370 152<0 289 136 289 276 289 145 425 145 425>
AnchorPoint: "Anchor-0" 453 0 basechar 0
LayerCount: 2
Fore
SplineSet
369 765 m 1xbc
 511 921 l 1
 684 921 l 1
 506 765 l 1
 369 765 l 1xbc
-33 0 m 1
 374 700 l 1
 837 700 l 1
 837 556 l 1
 522 556 l 1
 522 433 l 1
 682 433 l 1
 682 289 l 1
 522 289 l 1
 522 145 l 1
 857 145 l 1
 857 0 l 1
 370 0 l 1xbc
 370 136 l 1
 208 136 l 1x7c
 131 0 l 1
 -33 0 l 1
291 276 m 1x7c
 370 276 l 1
 370 425 l 2
 367 413 364 406 355 390 c 2
 291 276 l 1x7c
EndSplineSet
Position2: "'cpsp' Capital Spacing in Latin lookup 0 subtable" dx=5 dy=0 dh=10 dv=0
EndChar

StartChar: aeacute
Encoding: 413 509 254
Width: 855
Flags: MW
HStem: -12 127<230 253.5 552.5 603.5> 198 123<479 669 479 801 477 669> 204 124<241.5 255.5 186.5 275> 397 126<236 283.5 549.5 605> 576 156<314 629 314 629>
VStem: 45 142<144 173 144 217.5>
LayerCount: 2
Fore
SplineSet
314 576 m 1xdc
 456 732 l 1
 629 732 l 1
 451 576 l 1
 314 576 l 1xdc
218 -12 m 0
 123 -12 45 44 45 156 c 0
 45 279 141 328 232 328 c 0
 279 328 306 320 333 308 c 1xbc
 333 330 l 2
 333 374 305 397 262 397 c 0
 210 397 164 379 117 343 c 1
 72 459 l 1
 123 493 192 523 276 523 c 0
 329 523 389 513 428 473 c 1
 461 505 517 523 579 523 c 0
 708 523 810 445 810 281 c 0
 810 262 808 233 801 198 c 1
 477 198 l 1
 484 143 526 115 579 115 c 0
 628 115 660 129 691 168 c 1
 778 81 l 1
 731 24 667 -12 579 -12 c 0
 499 -12 436 17 397 71 c 1
 346 13 289 -12 218 -12 c 0
479 321 m 1
 669 321 l 1
 658 363 631 397 579 397 c 0
 520 397 488 369 479 321 c 1
251 115 m 0
 289 115 315 130 333 149 c 1
 333 192 l 1
 312 200 288 204 262 204 c 0xbc
 221 204 187 190 187 156 c 0
 187 132 209 115 251 115 c 0
EndSplineSet
EndChar

StartChar: Cacute
Encoding: 414 262 255
Width: 635
GlyphClass: 2
Flags: MW
HStem: -10 146<297 370.5 297 409.5> 564 146<293 372.5> 765 156<226 541 226 541>
VStem: 50 158<300.5 398 300.5 429.5>
AnchorPoint: "Anchor-0" 345 0 basechar 0
LayerCount: 2
Fore
SplineSet
226 765 m 1
 368 921 l 1
 541 921 l 1
 363 765 l 1
 226 765 l 1
345 -10 m 0
 125 -10 50 177 50 350 c 0
 50 509 127 710 345 710 c 0
 480 710 568 627 602 542 c 1
 466 481 l 1
 431 534 400 564 345 564 c 0
 241 564 208 446 208 350 c 0
 208 251 249 136 345 136 c 0
 396 136 432 173 464 226 c 1
 603 174 l 1
 553 66 474 -10 345 -10 c 0
EndSplineSet
Position2: "'cpsp' Capital Spacing in Latin lookup 0 subtable" dx=5 dy=0 dh=10 dv=0
EndChar

StartChar: cacute
Encoding: 415 263 256
Width: 564
GlyphClass: 2
Flags: MW
HStem: -12 139<263 310 263 347> 384 139<264 311> 576 156<150 465 150 465>
VStem: 50 147<216.5 293 216.5 337.5>
AnchorPoint: "Anchor-0" 285 0 basechar 0
LayerCount: 2
Fore
SplineSet
150 576 m 1
 292 732 l 1
 465 732 l 1
 287 576 l 1
 150 576 l 1
289 -12 m 0
 146 -12 50 87 50 255 c 0
 50 420 146 523 289 523 c 0
 398 523 478 474 513 363 c 1
 375 318 l 1
 360 357 331 384 291 384 c 0
 237 384 197 331 197 255 c 0
 197 178 237 127 289 127 c 0
 331 127 360 153 375 201 c 1
 514 161 l 1
 480 45 405 -12 289 -12 c 0
EndSplineSet
EndChar

StartChar: Ccircumflex
Encoding: 416 264 257
Width: 635
GlyphClass: 2
Flags: MW
HStem: -10 146<297 370.5 297 409.5> 564 146<293 372.5> 765 156<137 415 137 415 279 556 279 425>
VStem: 50 158<300.5 398 300.5 429.5>
AnchorPoint: "Anchor-0" 345 0 basechar 0
LayerCount: 2
Fore
SplineSet
425 765 m 1
 347 829 l 1
 268 765 l 1
 137 765 l 1
 279 921 l 1
 415 921 l 1
 556 765 l 1
 425 765 l 1
345 -10 m 0
 125 -10 50 177 50 350 c 0
 50 509 127 710 345 710 c 0
 480 710 568 627 602 542 c 1
 466 481 l 1
 431 534 400 564 345 564 c 0
 241 564 208 446 208 350 c 0
 208 251 249 136 345 136 c 0
 396 136 432 173 464 226 c 1
 603 174 l 1
 553 66 474 -10 345 -10 c 0
EndSplineSet
Position2: "'cpsp' Capital Spacing in Latin lookup 0 subtable" dx=5 dy=0 dh=10 dv=0
EndChar

StartChar: ccircumflex
Encoding: 417 265 258
Width: 564
GlyphClass: 2
Flags: MW
HStem: -12 139<263 310 263 347> 384 139<264 311> 576 156<81 359 81 359 223 500 223 369>
VStem: 50 147<216.5 293 216.5 337.5>
AnchorPoint: "Anchor-0" 285 0 basechar 0
LayerCount: 2
Fore
SplineSet
369 576 m 1
 291 640 l 1
 212 576 l 1
 81 576 l 1
 223 732 l 1
 359 732 l 1
 500 576 l 1
 369 576 l 1
289 -12 m 0
 146 -12 50 87 50 255 c 0
 50 420 146 523 289 523 c 0
 398 523 478 474 513 363 c 1
 375 318 l 1
 360 357 331 384 291 384 c 0
 237 384 197 331 197 255 c 0
 197 178 237 127 289 127 c 0
 331 127 360 153 375 201 c 1
 514 161 l 1
 480 45 405 -12 289 -12 c 0
EndSplineSet
EndChar

StartChar: Cdotaccent
Encoding: 418 266 259
Width: 635
GlyphClass: 2
Flags: MW
HStem: -10 146<297 370.5 297 409.5> 564 146<293 372.5> 765 157<324 369>
VStem: 50 158<300.5 398 300.5 429.5> 268 157<820 865.5>
AnchorPoint: "Anchor-0" 345 0 basechar 0
LayerCount: 2
Fore
SplineSet
347 765 m 0
 301 765 268 797 268 843 c 0
 268 888 301 922 347 922 c 0
 391 922 425 888 425 843 c 0
 425 797 391 765 347 765 c 0
345 -10 m 0
 125 -10 50 177 50 350 c 0
 50 509 127 710 345 710 c 0
 480 710 568 627 602 542 c 1
 466 481 l 1
 431 534 400 564 345 564 c 0
 241 564 208 446 208 350 c 0
 208 251 249 136 345 136 c 0
 396 136 432 173 464 226 c 1
 603 174 l 1
 553 66 474 -10 345 -10 c 0
EndSplineSet
Position2: "'cpsp' Capital Spacing in Latin lookup 0 subtable" dx=5 dy=0 dh=10 dv=0
EndChar

StartChar: cdotaccent
Encoding: 419 267 260
Width: 564
GlyphClass: 2
Flags: MW
HStem: -12 139<263 310 263 347> 384 139<264 311> 576 157<268 313>
VStem: 50 147<216.5 293 216.5 337.5> 212 157<631 676.5>
AnchorPoint: "Anchor-0" 285 0 basechar 0
LayerCount: 2
Fore
SplineSet
291 576 m 0
 245 576 212 608 212 654 c 0
 212 699 245 733 291 733 c 0
 335 733 369 699 369 654 c 0
 369 608 335 576 291 576 c 0
289 -12 m 0xf0
 146 -12 50 87 50 255 c 0
 50 420 146 523 289 523 c 0
 398 523 478 474 513 363 c 1
 375 318 l 1
 360 357 331 384 291 384 c 0
 237 384 197 331 197 255 c 0
 197 178 237 127 289 127 c 0
 331 127 360 153 375 201 c 1
 514 161 l 1
 480 45 405 -12 289 -12 c 0xf0
EndSplineSet
EndChar

StartChar: Ccaron
Encoding: 420 268 261
Width: 635
GlyphClass: 2
Flags: MW
HStem: -10 146<297 370.5 297 409.5> 564 146<293 372.5> 765 156<137 414 137 278>
VStem: 50 158<300.5 398 300.5 429.5>
AnchorPoint: "Anchor-0" 345 0 basechar 0
LayerCount: 2
Fore
SplineSet
414 765 m 1
 278 765 l 1
 137 921 l 1
 268 921 l 1
 347 858 l 1
 425 921 l 1
 556 921 l 1
 414 765 l 1
345 -10 m 0
 125 -10 50 177 50 350 c 0
 50 509 127 710 345 710 c 0
 480 710 568 627 602 542 c 1
 466 481 l 1
 431 534 400 564 345 564 c 0
 241 564 208 446 208 350 c 0
 208 251 249 136 345 136 c 0
 396 136 432 173 464 226 c 1
 603 174 l 1
 553 66 474 -10 345 -10 c 0
EndSplineSet
Position2: "'cpsp' Capital Spacing in Latin lookup 0 subtable" dx=5 dy=0 dh=10 dv=0
EndChar

StartChar: ccaron
Encoding: 421 269 262
Width: 564
GlyphClass: 2
Flags: MW
HStem: -12 139<263 310 263 347> 384 139<264 311> 576 156<81 358 81 222>
VStem: 50 147<216.5 293 216.5 337.5>
AnchorPoint: "Anchor-0" 285 0 basechar 0
LayerCount: 2
Fore
SplineSet
358 576 m 1
 222 576 l 1
 81 732 l 1
 212 732 l 1
 291 669 l 1
 369 732 l 1
 500 732 l 1
 358 576 l 1
289 -12 m 0
 146 -12 50 87 50 255 c 0
 50 420 146 523 289 523 c 0
 398 523 478 474 513 363 c 1
 375 318 l 1
 360 357 331 384 291 384 c 0
 237 384 197 331 197 255 c 0
 197 178 237 127 289 127 c 0
 331 127 360 153 375 201 c 1
 514 161 l 1
 480 45 405 -12 289 -12 c 0
EndSplineSet
EndChar

StartChar: Dcaron
Encoding: 422 270 263
Width: 724
GlyphClass: 2
Flags: MW
HStem: 0 145<227 329> 556 144<227 333 333 356 227 227> 765 156<118 395 118 259>
VStem: 75 152<145 556 145 700 145 700> 517 158<302.5 399.5>
AnchorPoint: "Anchor-0" 362 0 basechar 0
LayerCount: 2
Fore
SplineSet
395 765 m 1
 259 765 l 1
 118 921 l 1
 249 921 l 1
 328 858 l 1
 406 921 l 1
 537 921 l 1
 395 765 l 1
75 700 m 1
 333 700 l 2
 578 700 675 525 675 350 c 0
 675 191 586 0 329 0 c 2
 75 0 l 1
 75 700 l 1
345 145 m 2
 470 145 517 255 517 350 c 0
 517 449 467 556 356 556 c 2
 227 556 l 1
 227 145 l 1
 345 145 l 2
EndSplineSet
Position2: "'cpsp' Capital Spacing in Latin lookup 0 subtable" dx=5 dy=0 dh=10 dv=0
EndChar

StartChar: dcaron
Encoding: 423 271 264
Width: 770
GlyphClass: 2
Flags: MW
HStem: -12 140<254 285> 0 128<254 509 254 364> 383 140<256.5 286 202 305.5> 692 20G<613 745 745 745>
VStem: 50 145<215 297 215 338> 364 145<0 42 42 42 160 349 349 349 472 657 657 657> 613 132<662 704 704 712>
AnchorPoint: "Anchor-0" 292 0 basechar 0
LayerCount: 2
Fore
SplineSet
260 -12 m 0xbe
 133 -12 50 80 50 256 c 0
 50 420 142 523 262 523 c 0
 310 523 343 502 364 472 c 1
 364 657 l 1
 509 722 l 1
 509 0 l 1
 364 0 l 1x7e
 364 42 l 1
 345 6 310 -12 260 -12 c 0xbe
745 712 m 1
 745 704 l 2
 745 585 695 508 628 446 c 1
 581 482 l 1
 599 517 613 612 613 712 c 1
 745 712 l 1
285 128 m 0
 327 128 348 138 364 160 c 1
 364 349 l 1
 352 364 326 383 285 383 c 0
 228 383 195 338 195 256 c 0
 195 174 223 128 285 128 c 0
EndSplineSet
EndChar

StartChar: Dcroat
Encoding: 424 272 265
Width: 724
Flags: MW
HStem: 0 145<227 329> 279 142<14 75 14 75 227 366> 556 144<227 333 333 356 227 227>
VStem: 75 152<145 279 145 279 145 279 421 556> 517 158<302.5 399.5>
LayerCount: 2
Fore
SplineSet
75 279 m 1
 14 279 l 1
 14 421 l 1
 75 421 l 1
 75 700 l 1
 333 700 l 2
 578 700 675 525 675 350 c 0
 675 191 586 0 329 0 c 2
 75 0 l 1
 75 279 l 1
345 145 m 2
 470 145 517 255 517 350 c 0
 517 449 467 556 356 556 c 2
 227 556 l 1
 227 421 l 1
 366 421 l 1
 366 279 l 1
 227 279 l 1
 227 145 l 1
 345 145 l 2
EndSplineSet
Position2: "'cpsp' Capital Spacing in Latin lookup 0 subtable" dx=5 dy=0 dh=10 dv=0
EndChar

StartChar: dcroat
Encoding: 425 273 266
Width: 584
Flags: MW
HStem: -12 140<254 285> 0 128<254 509 254 364> 351 140<257 286 202 305.5> 534 107<254 364 254 364 509 577>
VStem: 50 145<206.5 271.5 206.5 314.5> 364 145<0 38 38 38 160 317 317 317 441 534 0 534 641 657 657 657>
LayerCount: 2
Fore
SplineSet
509 534 m 1xbc
 509 0 l 1
 364 0 l 1x7c
 364 38 l 1
 347 6 310 -12 260 -12 c 0
 133 -12 50 79 50 239 c 0
 50 390 142 491 262 491 c 0
 310 491 343 472 364 441 c 1
 364 534 l 1
 254 534 l 1
 254 641 l 1
 364 641 l 1
 364 657 l 1
 509 722 l 1
 509 641 l 1
 577 641 l 1
 577 534 l 1
 509 534 l 1xbc
285 128 m 0xbc
 327 128 348 138 364 160 c 1
 364 317 l 1
 353 335 326 351 285 351 c 0
 229 351 195 304 195 239 c 0
 195 174 223 128 285 128 c 0xbc
EndSplineSet
EndChar

StartChar: Emacron
Encoding: 426 274 267
Width: 637
GlyphClass: 2
Flags: MW
HStem: 0 145<227 598 227 598> 289 144<227 423 227 423> 556 144<227 578 227 227> 771 117<168 498 168 498>
VStem: 75 152<145 289 433 556> 168 330<771 888 771 888>
AnchorPoint: "Anchor-0" 318 0 basechar 0
LayerCount: 2
Fore
SplineSet
168 771 m 1xf4
 168 888 l 1
 498 888 l 1
 498 771 l 1
 168 771 l 1xf4
75 0 m 1xf8
 75 700 l 1
 578 700 l 1
 578 556 l 1
 227 556 l 1
 227 433 l 1
 423 433 l 1
 423 289 l 1
 227 289 l 1
 227 145 l 1
 598 145 l 1
 598 0 l 1
 75 0 l 1xf8
EndSplineSet
Position2: "'cpsp' Capital Spacing in Latin lookup 0 subtable" dx=5 dy=0 dh=10 dv=0
EndChar

StartChar: emacron
Encoding: 427 275 268
Width: 568
GlyphClass: 2
Flags: MW
HStem: -12 123<266 318.5 266 337> 206 109<193 384 193 519 192 384> 400 123<261.5 317> 582 117<128 458 128 458>
VStem: 50 142<206 206 206 338> 128 330<582 699 582 699> 384 139<315 315>
AnchorPoint: "Anchor-0" 293 0 basechar 0
LayerCount: 2
Fore
SplineSet
128 582 m 1xf4
 128 699 l 1
 458 699 l 1
 458 582 l 1
 128 582 l 1xf4
293 -12 m 0xfa
 142 -12 50 88 50 256 c 0
 50 420 144 523 293 523 c 0
 422 523 523 445 523 281 c 0
 523 262 523 232 519 206 c 1
 192 206 l 1
 195 138 239 111 293 111 c 0
 344 111 376 127 408 165 c 1
 492 81 l 1
 445 24 381 -12 293 -12 c 0xfa
193 315 m 1
 384 315 l 1
 377 369 347 400 287 400 c 0
 236 400 200 369 193 315 c 1
EndSplineSet
EndChar

StartChar: Ebreve
Encoding: 428 276 269
Width: 637
GlyphClass: 2
Flags: MW
HStem: 0 145<227 598 227 598> 289 144<227 423 227 423> 556 144<227 578 227 227> 759 100<300.5 365 300.5 399.5>
VStem: 75 152<145 289 433 556> 140 107<915 931 915 931> 420 107<915 931>
AnchorPoint: "Anchor-0" 318 0 basechar 0
LayerCount: 2
Fore
SplineSet
333 759 m 0xf6
 199 759 140 840 140 931 c 1
 247 931 l 1
 247 899 268 859 333 859 c 0
 397 859 420 899 420 931 c 1
 527 931 l 1
 527 839 466 759 333 759 c 0xf6
75 0 m 1xf8
 75 700 l 1
 578 700 l 1
 578 556 l 1
 227 556 l 1
 227 433 l 1
 423 433 l 1
 423 289 l 1
 227 289 l 1
 227 145 l 1
 598 145 l 1
 598 0 l 1
 75 0 l 1xf8
EndSplineSet
Position2: "'cpsp' Capital Spacing in Latin lookup 0 subtable" dx=5 dy=0 dh=10 dv=0
EndChar

StartChar: ebreve
Encoding: 429 277 270
Width: 568
GlyphClass: 2
Flags: MW
HStem: -12 123<266 318.5 266 337> 206 109<193 384 193 519 192 384> 400 123<261.5 317> 570 100<260.5 325 260.5 359.5>
VStem: 50 142<206 206 206 338> 100 107<726 742 726 742> 380 107<726 742> 384 139<315 315>
AnchorPoint: "Anchor-0" 293 0 basechar 0
LayerCount: 2
Fore
SplineSet
293 570 m 0xf6
 159 570 100 651 100 742 c 1
 207 742 l 1
 207 710 228 670 293 670 c 0
 357 670 380 710 380 742 c 1
 487 742 l 1
 487 650 426 570 293 570 c 0xf6
293 -12 m 0xf9
 142 -12 50 88 50 256 c 0
 50 420 144 523 293 523 c 0
 422 523 523 445 523 281 c 0
 523 262 523 232 519 206 c 1
 192 206 l 1
 195 138 239 111 293 111 c 0
 344 111 376 127 408 165 c 1
 492 81 l 1
 445 24 381 -12 293 -12 c 0xf9
193 315 m 1
 384 315 l 1
 377 369 347 400 287 400 c 0
 236 400 200 369 193 315 c 1
EndSplineSet
EndChar

StartChar: Edotaccent
Encoding: 430 278 271
Width: 637
GlyphClass: 2
Flags: MW
HStem: 0 145<227 598 227 598> 289 144<227 423 227 423> 556 144<227 578 227 227> 765 157<310 355>
VStem: 75 152<145 289 433 556> 254 157<820 865.5>
AnchorPoint: "Anchor-0" 318 0 basechar 0
LayerCount: 2
Fore
SplineSet
333 765 m 0
 287 765 254 797 254 843 c 0
 254 888 287 922 333 922 c 0
 377 922 411 888 411 843 c 0
 411 797 377 765 333 765 c 0
75 0 m 1xe8
 75 700 l 1
 578 700 l 1
 578 556 l 1
 227 556 l 1
 227 433 l 1
 423 433 l 1
 423 289 l 1
 227 289 l 1
 227 145 l 1
 598 145 l 1
 598 0 l 1
 75 0 l 1xe8
EndSplineSet
Position2: "'cpsp' Capital Spacing in Latin lookup 0 subtable" dx=5 dy=0 dh=10 dv=0
EndChar

StartChar: edotaccent
Encoding: 431 279 272
Width: 568
GlyphClass: 2
Flags: MW
HStem: -12 123<266 318.5 266 337> 206 109<193 384 193 519 192 384> 400 123<261.5 317> 576 157<270 315>
VStem: 50 142<206 206 206 338> 214 157<631 676.5> 384 139<315 315>
AnchorPoint: "Anchor-0" 293 0 basechar 0
LayerCount: 2
Fore
SplineSet
293 576 m 0
 247 576 214 608 214 654 c 0
 214 699 247 733 293 733 c 0
 337 733 371 699 371 654 c 0
 371 608 337 576 293 576 c 0
293 -12 m 0xea
 142 -12 50 88 50 256 c 0
 50 420 144 523 293 523 c 0
 422 523 523 445 523 281 c 0
 523 262 523 232 519 206 c 1
 192 206 l 1
 195 138 239 111 293 111 c 0
 344 111 376 127 408 165 c 1
 492 81 l 1
 445 24 381 -12 293 -12 c 0xea
193 315 m 1
 384 315 l 1
 377 369 347 400 287 400 c 0
 236 400 200 369 193 315 c 1
EndSplineSet
EndChar

StartChar: Eogonek
Encoding: 432 280 273
Width: 637
Flags: MW
HStem: -247 83<459.5 477.5 459.5 480> 0 145<227 430 536.5 577 577 598> 289 144<227 423 227 423> 556 144<227 578 227 227>
VStem: 75 152<145 289 433 556> 320 117<-138.5 -106.5>
LayerCount: 2
Fore
SplineSet
445 -247 m 0
 367 -247 320 -201 320 -136 c 0
 320 -77 359 -31 430 0 c 1
 75 0 l 1
 75 700 l 1
 578 700 l 1
 578 556 l 1
 227 556 l 1
 227 433 l 1
 423 433 l 1
 423 289 l 1
 227 289 l 1
 227 145 l 1
 598 145 l 1
 598 0 l 1
 577 0 l 2
 496 0 437 -67 437 -124 c 0
 437 -153 451 -164 468 -164 c 0
 487 -164 498 -156 506 -145 c 1
 571 -191 l 1
 553 -211 515 -247 445 -247 c 0
EndSplineSet
Position2: "'cpsp' Capital Spacing in Latin lookup 0 subtable" dx=5 dy=0 dh=10 dv=0
EndChar

StartChar: eogonek
Encoding: 433 281 274
Width: 568
Flags: MW
HStem: -247 83<309.5 327.5 309.5 330> -10 21G 198 125<193 383 193 519 192 383> 397 126<263.5 318>
VStem: 50 142<198 198 198 338> 169 117<-138.5 -110>
LayerCount: 2
Fore
SplineSet
295 -247 m 0xf4
 217 -247 169 -201 169 -136 c 0xf4
 169 -84 199 -44 263 -10 c 1
 128 2 50 105 50 256 c 0
 50 420 144 523 293 523 c 0
 422 523 523 445 523 281 c 0
 523 262 523 232 519 198 c 1
 192 198 l 1xf8
 198 143 242 115 293 115 c 0
 342 115 374 129 405 168 c 1
 492 81 l 1
 461 44 421 21 385 -2 c 0
 332 -35 286 -62 286 -124 c 0
 286 -153 301 -164 318 -164 c 0
 337 -164 348 -156 356 -145 c 1
 421 -191 l 1
 402 -211 365 -247 295 -247 c 0xf4
293 397 m 0
 234 397 203 369 193 323 c 1
 383 323 l 1
 371 363 343 397 293 397 c 0
EndSplineSet
EndChar

StartChar: Ecaron
Encoding: 434 282 275
Width: 637
GlyphClass: 2
Flags: MW
HStem: 0 145<227 598 227 598> 289 144<227 423 227 423> 556 144<227 578 227 227> 765 156<123 400 123 264>
VStem: 75 152<145 289 433 556>
AnchorPoint: "Anchor-0" 318 0 basechar 0
LayerCount: 2
Fore
SplineSet
400 765 m 1
 264 765 l 1
 123 921 l 1
 254 921 l 1
 333 858 l 1
 411 921 l 1
 542 921 l 1
 400 765 l 1
75 0 m 1
 75 700 l 1
 578 700 l 1
 578 556 l 1
 227 556 l 1
 227 433 l 1
 423 433 l 1
 423 289 l 1
 227 289 l 1
 227 145 l 1
 598 145 l 1
 598 0 l 1
 75 0 l 1
EndSplineSet
Position2: "'cpsp' Capital Spacing in Latin lookup 0 subtable" dx=5 dy=0 dh=10 dv=0
EndChar

StartChar: ecaron
Encoding: 435 283 276
Width: 568
GlyphClass: 2
Flags: MW
HStem: -12 123<266 318.5 266 337> 206 109<193 384 193 519 192 384> 400 123<261.5 317> 576 156<83 360 83 224>
VStem: 50 142<206 206 206 338> 384 139<315 315>
AnchorPoint: "Anchor-0" 293 0 basechar 0
LayerCount: 2
Fore
SplineSet
360 576 m 1
 224 576 l 1
 83 732 l 1
 214 732 l 1
 293 669 l 1
 371 732 l 1
 502 732 l 1
 360 576 l 1
293 -12 m 0
 142 -12 50 88 50 256 c 0
 50 420 144 523 293 523 c 0
 422 523 523 445 523 281 c 0
 523 262 523 232 519 206 c 1
 192 206 l 1
 195 138 239 111 293 111 c 0
 344 111 376 127 408 165 c 1
 492 81 l 1
 445 24 381 -12 293 -12 c 0
193 315 m 1
 384 315 l 1
 377 369 347 400 287 400 c 0
 236 400 200 369 193 315 c 1
EndSplineSet
EndChar

StartChar: Gcircumflex
Encoding: 436 284 277
Width: 663
GlyphClass: 2
Flags: MW
HStem: -12 146<304.5 387.5 304.5 433.5> 232 145<352 466 352 622> 566 146<301 386.5> 765 156<149 427 149 427 291 568 291 437>
VStem: 50 158<295.5 397.5 295.5 434.5> 466 156<227 232 232 232>
AnchorPoint: "Anchor-0" 353 0 basechar 0
LayerCount: 2
Fore
SplineSet
437 765 m 1
 359 829 l 1
 280 765 l 1
 149 765 l 1
 291 921 l 1
 427 921 l 1
 568 765 l 1
 437 765 l 1
359 -12 m 0
 143 -12 50 167 50 350 c 0
 50 519 147 712 359 712 c 0
 496 712 566 634 617 552 c 1
 484 477 l 1
 454 525 414 566 359 566 c 0
 243 566 208 445 208 350 c 0
 208 241 250 134 359 134 c 0
 416 134 466 177 466 227 c 2
 466 232 l 1
 352 232 l 1
 352 377 l 1
 622 377 l 1
 622 267 l 2
 622 87 508 -12 359 -12 c 0
EndSplineSet
Position2: "'cpsp' Capital Spacing in Latin lookup 0 subtable" dx=5 dy=0 dh=10 dv=0
EndChar

StartChar: gcircumflex
Encoding: 437 285 278
Width: 584
GlyphClass: 2
Flags: MW
HStem: -12 140<251.5 278> 383 128<256 509> 383 140<256 281.5 199.5 310.5> 576 156<92 370 92 370 234 380 234 511>
VStem: 50 145<219.5 297 219.5 338> 364 145<159 350 350 350 489 511>
AnchorPoint: "Anchor-0" 292 0 basechar 0
LayerCount: 2
Fore
SplineSet
302 640 m 1xbc
 223 576 l 1
 92 576 l 1
 234 732 l 1
 370 732 l 1
 511 576 l 1
 380 576 l 1
 302 640 l 1xbc
364 489 m 1
 364 511 l 1
 509 511 l 1xdc
 509 89 l 2
 509 -95 481 -183 268 -200 c 1
 185 -76 l 1
 314 -65 363 -58 364 20 c 1
 333 -9 294 -12 262 -12 c 0
 137 -12 50 78 50 256 c 0
 50 420 137 523 262 523 c 0
 301 523 334 517 364 489 c 1
364 159 m 1
 364 350 l 1
 351 361 337 383 284 383 c 0xbc
 228 383 195 338 195 256 c 0
 195 183 219 128 284 128 c 0
 327 128 346 138 364 159 c 1
EndSplineSet
EndChar

StartChar: Gbreve
Encoding: 438 286 279
Width: 663
GlyphClass: 2
Flags: MW
HStem: -12 146<304.5 387.5 304.5 433.5> 232 145<352 466 352 622> 566 146<301 386.5> 759 100<326.5 391 326.5 425.5>
VStem: 50 158<295.5 397.5 295.5 434.5> 166 107<915 931 915 931> 446 107<915 931> 466 156<227 232 232 232>
AnchorPoint: "Anchor-0" 353 0 basechar 0
LayerCount: 2
Fore
SplineSet
359 759 m 0xf6
 225 759 166 840 166 931 c 1
 273 931 l 1
 273 899 294 859 359 859 c 0
 423 859 446 899 446 931 c 1
 553 931 l 1
 553 839 492 759 359 759 c 0xf6
359 -12 m 0xf9
 143 -12 50 167 50 350 c 0
 50 519 147 712 359 712 c 0
 496 712 566 634 617 552 c 1
 484 477 l 1
 454 525 414 566 359 566 c 0
 243 566 208 445 208 350 c 0
 208 241 250 134 359 134 c 0
 416 134 466 177 466 227 c 2
 466 232 l 1
 352 232 l 1
 352 377 l 1
 622 377 l 1
 622 267 l 2
 622 87 508 -12 359 -12 c 0xf9
EndSplineSet
Position2: "'cpsp' Capital Spacing in Latin lookup 0 subtable" dx=5 dy=0 dh=10 dv=0
EndChar

StartChar: gbreve
Encoding: 439 287 280
Width: 584
GlyphClass: 2
Flags: MW
HStem: -12 140<251.5 278> 383 128<256 509> 383 140<256 281.5 199.5 310.5> 570 100<269.5 334 269.5 368.5>
VStem: 50 145<219.5 297 219.5 338> 109 107<726 742 726 742> 364 145<159 350 350 350 489 511> 389 107<726 742>
AnchorPoint: "Anchor-0" 292 0 basechar 0
LayerCount: 2
Fore
SplineSet
302 570 m 0xb5
 168 570 109 651 109 742 c 1
 216 742 l 1
 216 710 237 670 302 670 c 0
 366 670 389 710 389 742 c 1
 496 742 l 1
 496 650 435 570 302 570 c 0xb5
364 511 m 1xda
 509 511 l 1xda
 509 89 l 2
 509 -95 481 -183 268 -200 c 1
 185 -76 l 1
 314 -65 363 -58 364 20 c 1
 333 -9 294 -12 262 -12 c 0
 137 -12 50 78 50 256 c 0
 50 420 137 523 262 523 c 0
 301 523 334 517 364 489 c 1xba
 364 511 l 1xda
364 159 m 1
 364 350 l 1
 351 361 337 383 284 383 c 0xba
 228 383 195 338 195 256 c 0
 195 183 219 128 284 128 c 0
 327 128 346 138 364 159 c 1
EndSplineSet
EndChar

StartChar: Gdotaccent
Encoding: 440 288 281
Width: 663
GlyphClass: 2
Flags: MW
HStem: -12 146<304.5 387.5 304.5 433.5> 232 145<352 466 352 622> 566 146<301 386.5> 765 157<340 385>
VStem: 50 158<295.5 397.5 295.5 434.5> 284 157<820 865.5> 466 156<227 232 232 232>
AnchorPoint: "Anchor-0" 353 0 basechar 0
LayerCount: 2
Fore
SplineSet
363 765 m 0
 317 765 284 797 284 843 c 0
 284 888 317 922 363 922 c 0
 407 922 441 888 441 843 c 0
 441 797 407 765 363 765 c 0
359 -12 m 0
 143 -12 50 167 50 350 c 0
 50 519 147 712 359 712 c 0
 496 712 566 634 617 552 c 1
 484 477 l 1
 454 525 414 566 359 566 c 0
 243 566 208 445 208 350 c 0
 208 241 250 134 359 134 c 0
 416 134 466 177 466 227 c 2
 466 232 l 1
 352 232 l 1
 352 377 l 1
 622 377 l 1
 622 267 l 2xea
 622 87 508 -12 359 -12 c 0
EndSplineSet
Position2: "'cpsp' Capital Spacing in Latin lookup 0 subtable" dx=5 dy=0 dh=10 dv=0
EndChar

StartChar: gdotaccent
Encoding: 441 289 282
Width: 584
GlyphClass: 2
Flags: MW
HStem: -12 140<251.5 278> 383 128<256 509> 383 140<256 281.5 199.5 310.5> 576 157<279 324>
VStem: 50 145<219.5 297 219.5 338> 223 157<631 676.5> 364 145<159 350 350 350 489 511>
AnchorPoint: "Anchor-0" 292 0 basechar 0
LayerCount: 2
Fore
SplineSet
302 576 m 0xbc
 256 576 223 608 223 654 c 0
 223 699 256 733 302 733 c 0
 346 733 380 699 380 654 c 0
 380 608 346 576 302 576 c 0xbc
364 511 m 1xda
 509 511 l 1xda
 509 89 l 2
 509 -95 481 -183 268 -200 c 1
 185 -76 l 1
 314 -65 363 -58 364 20 c 1
 333 -9 294 -12 262 -12 c 0
 137 -12 50 78 50 256 c 0
 50 420 137 523 262 523 c 0
 301 523 334 517 364 489 c 1xba
 364 511 l 1xda
364 159 m 1
 364 350 l 1
 351 361 337 383 284 383 c 0xba
 228 383 195 338 195 256 c 0
 195 183 219 128 284 128 c 0
 327 128 346 138 364 159 c 1
EndSplineSet
EndChar

StartChar: Gcommaaccent
Encoding: 442 290 283
Width: 663
GlyphClass: 2
Flags: MW
HStem: -258 21G<296 296> -182 152 -12 146<304.5 387.5 304.5 433.5> 232 145<352 466 352 622> 566 146<301 386.5>
VStem: 50 158<295.5 397.5 295.5 434.5> 281 162<-131.5 -88.5 -148.5 -87> 466 156<227 232 232 232>
AnchorPoint: "Anchor-0" 362 -291 basechar 0
LayerCount: 2
Fore
SplineSet
359 -12 m 0
 143 -12 50 167 50 350 c 0
 50 519 147 712 359 712 c 0
 496 712 566 634 617 552 c 1
 484 477 l 1
 454 525 414 566 359 566 c 0
 243 566 208 445 208 350 c 0
 208 241 250 134 359 134 c 0
 416 134 466 177 466 227 c 2
 466 232 l 1
 352 232 l 1
 352 377 l 1
 622 377 l 1
 622 267 l 2
 622 87 508 -12 359 -12 c 0
296 -258 m 1
 323 -230 338 -210 346 -182 c 1
 313 -180 281 -154 281 -109 c 0
 281 -65 314 -30 363 -30 c 0
 410 -30 443 -60 443 -117 c 0
 443 -180 408 -240 347 -291 c 1xff
 296 -258 l 1
EndSplineSet
Position2: "'cpsp' Capital Spacing in Latin lookup 0 subtable" dx=5 dy=0 dh=10 dv=0
EndChar

StartChar: gcommaaccent
Encoding: 443 291 284
Width: 584
GlyphClass: 2
Flags: MW
HStem: -12 140<251.5 278> 383 128<256 509> 383 140<256 281.5 199.5 310.5> 576 152
VStem: 50 145<219.5 297 219.5 338> 220 162<634.5 677.5 633 694.5> 364 145<159 350 350 350 489 511>
AnchorPoint: "Anchor-0" 292 0 basechar 0
LayerCount: 2
Fore
SplineSet
300 576 m 0xbc
 254 576 220 606 220 663 c 0
 220 726 256 786 316 837 c 1
 367 804 l 1
 341 776 326 756 317 728 c 1
 351 726 382 700 382 655 c 0
 382 611 349 576 300 576 c 0xbc
364 511 m 1xca
 509 511 l 1xca
 509 89 l 2
 509 -95 481 -183 268 -200 c 1
 185 -76 l 1
 314 -65 363 -58 364 20 c 1
 333 -9 294 -12 262 -12 c 0
 137 -12 50 78 50 256 c 0
 50 420 137 523 262 523 c 0
 301 523 334 517 364 489 c 1xaa
 364 511 l 1xca
364 159 m 1
 364 350 l 1
 351 361 337 383 284 383 c 0xaa
 228 383 195 338 195 256 c 0
 195 183 219 128 284 128 c 0
 327 128 346 138 364 159 c 1
EndSplineSet
EndChar

StartChar: Hcircumflex
Encoding: 444 292 285
Width: 732
GlyphClass: 2
Flags: MW
HStem: 0 21G<75 227 75 75 505 658 505 505> 287 145<227 505 227 505> 680 20G<75 227 227 227 505 658 658 658> 765 156<157 435 157 435 299 576 299 445>
VStem: 75 152<0 287 0 432 432 700> 505 153<0 287 287 287 432 700 0 700>
AnchorPoint: "Anchor-0" 367 0 basechar 0
LayerCount: 2
Fore
SplineSet
445 765 m 1
 367 829 l 1
 288 765 l 1
 157 765 l 1
 299 921 l 1
 435 921 l 1
 576 765 l 1
 445 765 l 1
505 0 m 1
 505 287 l 1
 227 287 l 1
 227 0 l 1
 75 0 l 1
 75 700 l 1
 227 700 l 1
 227 432 l 1
 505 432 l 1
 505 700 l 1
 658 700 l 1
 658 0 l 1
 505 0 l 1
EndSplineSet
Position2: "'cpsp' Capital Spacing in Latin lookup 0 subtable" dx=5 dy=0 dh=10 dv=0
EndChar

StartChar: hcircumflex
Encoding: 445 293 286
Width: 606
GlyphClass: 2
Flags: MW
HStem: 0 21G<75 75 75 220 391 391 391 536> 383 140<328 339.5> 765 156<100 378 100 378 242 519 242 388>
VStem: 75 145<0 276 464 655 655 655> 391 145<0 274 274 311.5>
AnchorPoint: "Anchor-0" 304 0 basechar 0
LayerCount: 2
Fore
SplineSet
388 765 m 1
 310 829 l 1
 231 765 l 1
 100 765 l 1
 242 921 l 1
 378 921 l 1
 519 765 l 1
 388 765 l 1
75 0 m 1
 75 655 l 1
 220 722 l 1
 220 464 l 1
 251 501 297 523 359 523 c 0
 437 523 536 481 536 332 c 2
 536 0 l 1
 391 0 l 1
 391 274 l 2
 391 349 369 383 310 383 c 0
 254 383 220 351 220 276 c 2
 220 0 l 1
 75 0 l 1
EndSplineSet
EndChar

StartChar: Hbar
Encoding: 446 294 287
Width: 732
Flags: MW
HStem: 0 21G<75 227 75 75 505 658 505 505> 287 145<227 505 227 505> 487 146<0 75 0 75 227 505 658 732> 487 213<0 227 0 227 75 227 75 505>
VStem: 75 152<0 287 0 432 432 487 633 700> 505 153<0 287 287 287 432 487 0 487 633 700>
LayerCount: 2
Fore
SplineSet
505 0 m 1xdc
 505 287 l 1
 227 287 l 1
 227 0 l 1
 75 0 l 1
 75 487 l 1
 0 487 l 1xdc
 0 633 l 1
 75 633 l 1xec
 75 700 l 1
 227 700 l 1xdc
 227 633 l 1
 505 633 l 1xec
 505 700 l 1
 658 700 l 1xdc
 658 633 l 1
 732 633 l 1xec
 732 487 l 1
 658 487 l 1
 658 0 l 1
 505 0 l 1xdc
505 432 m 1
 505 487 l 1
 227 487 l 1
 227 432 l 1
 505 432 l 1
EndSplineSet
Position2: "'cpsp' Capital Spacing in Latin lookup 0 subtable" dx=5 dy=0 dh=10 dv=0
EndChar

StartChar: hbar
Encoding: 447 295 288
Width: 606
Flags: MW
HStem: 0 21G<75 75 75 220 391 391 391 536> 353 140<328 332.5> 534 107<20 75 20 75 220 346>
VStem: 75 145<0 269 434 534 641 655 655 655> 391 145<0 267 267 297>
LayerCount: 2
Fore
SplineSet
75 0 m 1
 75 534 l 1
 20 534 l 1
 20 641 l 1
 75 641 l 1
 75 655 l 1
 220 722 l 1
 220 641 l 1
 346 641 l 1
 346 534 l 1
 220 534 l 1
 220 434 l 1
 251 471 297 493 359 493 c 0
 437 493 536 449 536 302 c 2
 536 0 l 1
 391 0 l 1
 391 267 l 2
 391 327 355 353 310 353 c 0
 262 353 220 329 220 269 c 2
 220 0 l 1
 75 0 l 1
EndSplineSet
EndChar

StartChar: Itilde
Encoding: 448 296 289
Width: 311
GlyphClass: 2
Flags: MW
HStem: 0 21G<80 80 80 232> 680 20G<80 232 232 232> 770 102<217 255.5 217 281> 815 101<58.5 96>
VStem: -43 67<774 790 774 814> 80 152<0 700 0 700> 290 66<896.5 912>
AnchorPoint: "Anchor-0" 157 0 basechar 0
LayerCount: 2
Fore
SplineSet
236 770 m 0xe6
 165 770 121 815 71 815 c 0
 46 815 24 806 24 774 c 1
 -43 774 l 1
 -43 854 -12 916 78 916 c 0xdc
 151 916 191 872 243 872 c 0
 268 872 290 881 290 912 c 1
 356 912 l 1
 356 834 326 770 236 770 c 0xe6
80 0 m 1xd4
 80 700 l 1
 232 700 l 1
 232 0 l 1
 80 0 l 1xd4
EndSplineSet
Position2: "'cpsp' Capital Spacing in Latin lookup 0 subtable" dx=5 dy=0 dh=10 dv=0
EndChar

StartChar: itilde
Encoding: 449 297 290
Width: 297
GlyphClass: 2
Flags: MW
HStem: 0 21G<76 76 76 221> 491 20G<76 221 221 221> 581 102<209 247.5 209 273> 626 101<50.5 88>
VStem: -51 67<585 601 585 625> 76 145<0 511 0 511> 282 66<707.5 723>
AnchorPoint: "Anchor-0" 149 0 basechar 0
LayerCount: 2
Fore
SplineSet
228 581 m 0xe6
 157 581 113 626 63 626 c 0
 38 626 16 617 16 585 c 1
 -51 585 l 1
 -51 665 -20 727 70 727 c 0xdc
 143 727 183 683 235 683 c 0
 260 683 282 692 282 723 c 1
 348 723 l 1
 348 645 318 581 228 581 c 0xe6
76 0 m 1xd4
 76 511 l 1
 221 511 l 1
 221 0 l 1
 76 0 l 1xd4
EndSplineSet
EndChar

StartChar: Imacron
Encoding: 450 298 291
Width: 311
GlyphClass: 2
Flags: MW
HStem: 0 21G<80 80 80 232> 680 20G<80 232 232 232> 771 117<-8 322 -8 322>
VStem: 80 152<0 700 0 700>
AnchorPoint: "Anchor-0" 157 0 basechar 0
LayerCount: 2
Fore
SplineSet
-8 771 m 1
 -8 888 l 1
 322 888 l 1
 322 771 l 1
 -8 771 l 1
80 0 m 1
 80 700 l 1
 232 700 l 1
 232 0 l 1
 80 0 l 1
EndSplineSet
Position2: "'cpsp' Capital Spacing in Latin lookup 0 subtable" dx=5 dy=0 dh=10 dv=0
EndChar

StartChar: imacron
Encoding: 451 299 292
Width: 297
GlyphClass: 2
Flags: MW
HStem: 0 21G<76 76 76 221> 491 20G<76 221 221 221> 582 117<-16 314 -16 314>
VStem: 76 145<0 511 0 511>
AnchorPoint: "Anchor-0" 149 0 basechar 0
LayerCount: 2
Fore
SplineSet
-16 582 m 1
 -16 699 l 1
 314 699 l 1
 314 582 l 1
 -16 582 l 1
76 0 m 1
 76 511 l 1
 221 511 l 1
 221 0 l 1
 76 0 l 1
EndSplineSet
EndChar

StartChar: Ibreve
Encoding: 452 300 293
Width: 311
GlyphClass: 2
Flags: MW
HStem: 0 21G<80 80 80 232> 680 20G<80 232 232 232> 759 100<124.5 189 124.5 223.5>
VStem: -36 107<915 931 915 931> 80 152<0 700 0 700> 244 107<915 931>
AnchorPoint: "Anchor-0" 157 0 basechar 0
LayerCount: 2
Fore
SplineSet
157 759 m 0
 23 759 -36 840 -36 931 c 1
 71 931 l 1
 71 899 92 859 157 859 c 0
 221 859 244 899 244 931 c 1
 351 931 l 1
 351 839 290 759 157 759 c 0
80 0 m 1xe8
 80 700 l 1
 232 700 l 1
 232 0 l 1
 80 0 l 1xe8
EndSplineSet
Position2: "'cpsp' Capital Spacing in Latin lookup 0 subtable" dx=5 dy=0 dh=10 dv=0
EndChar

StartChar: ibreve
Encoding: 453 301 294
Width: 297
GlyphClass: 2
Flags: MW
HStem: 0 21G<76 76 76 221> 491 20G<76 221 221 221> 570 100<116.5 181 116.5 215.5>
VStem: -44 107<726 742 726 742> 76 145<0 511 0 511> 236 107<726 742>
AnchorPoint: "Anchor-0" 149 0 basechar 0
LayerCount: 2
Fore
SplineSet
149 570 m 0
 15 570 -44 651 -44 742 c 1
 63 742 l 1
 63 710 84 670 149 670 c 0
 213 670 236 710 236 742 c 1
 343 742 l 1
 343 650 282 570 149 570 c 0
76 0 m 1xe8
 76 511 l 1
 221 511 l 1
 221 0 l 1
 76 0 l 1xe8
EndSplineSet
EndChar

StartChar: Iogonek
Encoding: 454 302 295
Width: 311
Flags: MW
HStem: -247 83<111.5 129.5 111.5 132> 0 21G<80 80 232 232> 680 20G<80 232 232 232>
VStem: -29 118<-138.5 -107> 80 152<0 700 0 700>
LayerCount: 2
Fore
SplineSet
97 -247 m 0xf0
 19 -247 -29 -201 -29 -136 c 0xf0
 -29 -78 11 -30 80 0 c 1
 80 700 l 1
 232 700 l 1
 232 0 l 1xe8
 165 -7 89 -51 89 -124 c 0
 89 -153 103 -164 120 -164 c 0
 139 -164 149 -156 157 -145 c 1
 223 -191 l 1
 204 -211 167 -247 97 -247 c 0xf0
EndSplineSet
Position2: "'cpsp' Capital Spacing in Latin lookup 0 subtable" dx=5 dy=0 dh=10 dv=0
EndChar

StartChar: iogonek
Encoding: 455 303 296
Width: 287
Flags: MW
HStem: -247 83<100.5 118.5 100.5 121> 0 21G<72 72 216 216> 491 20G<72 216 216 216> 560 165<121.5 168>
VStem: -40 118<-138.5 -106.5> 61 166<620.5 666> 72 144<0 511 0 511>
LayerCount: 2
Fore
SplineSet
144 560 m 0xf4
 99 560 61 598 61 643 c 0
 61 689 99 725 144 725 c 0
 192 725 227 689 227 643 c 0
 227 598 192 560 144 560 c 0xf4
86 -247 m 0xf8
 8 -247 -40 -201 -40 -136 c 0xf8
 -40 -77 0 -29 72 0 c 1
 72 511 l 1
 216 511 l 1
 216 0 l 1xf2
 110 -23 78 -84 78 -124 c 0
 78 -153 92 -164 109 -164 c 0
 128 -164 139 -156 147 -145 c 1
 212 -191 l 1
 194 -211 156 -247 86 -247 c 0xf8
EndSplineSet
EndChar

StartChar: Idotaccent
Encoding: 456 304 297
Width: 311
GlyphClass: 2
Flags: MW
HStem: 0 21G<80 80 80 232> 680 20G<80 232 232 232> 765 157<134 179>
VStem: 78 157<820 865.5> 80 152<0 700 0 700>
AnchorPoint: "Anchor-0" 157 0 basechar 0
LayerCount: 2
Fore
SplineSet
157 765 m 0xf0
 111 765 78 797 78 843 c 0
 78 888 111 922 157 922 c 0
 201 922 235 888 235 843 c 0
 235 797 201 765 157 765 c 0xf0
80 0 m 1xe8
 80 700 l 1
 232 700 l 1
 232 0 l 1
 80 0 l 1xe8
EndSplineSet
Position2: "'cpsp' Capital Spacing in Latin lookup 0 subtable" dx=5 dy=0 dh=10 dv=0
EndChar

StartChar: i.TRK
Encoding: 457 -1 298
Width: 297
GlyphClass: 2
Flags: MW
HStem: 0 21G<76 76 76 221> 491 20G<76 221 221 221> 560 165<126 172.5>
VStem: 65 167<620.5 666> 76 145<0 511 0 511>
AnchorPoint: "Anchor-0" 149 0 basechar 0
LayerCount: 2
Fore
SplineSet
149 560 m 0xf0
 103 560 65 598 65 643 c 0
 65 689 103 725 149 725 c 0
 196 725 232 689 232 643 c 0
 232 598 196 560 149 560 c 0xf0
76 0 m 1xe8
 76 511 l 1
 221 511 l 1
 221 0 l 1
 76 0 l 1xe8
EndSplineSet
EndChar

StartChar: uni01CF
Encoding: 458 463 299
Width: 311
GlyphClass: 2
Flags: MW
HStem: 0 21G<80 80 80 232> 680 20G<80 232 232 232> 765 156<-53 224 -53 88>
VStem: 80 152<0 700 0 700>
AnchorPoint: "Anchor-0" 157 0 basechar 0
LayerCount: 2
Fore
SplineSet
224 765 m 1
 88 765 l 1
 -53 921 l 1
 78 921 l 1
 157 858 l 1
 235 921 l 1
 366 921 l 1
 224 765 l 1
80 0 m 1
 80 700 l 1
 232 700 l 1
 232 0 l 1
 80 0 l 1
EndSplineSet
Position2: "'cpsp' Capital Spacing in Latin lookup 0 subtable" dx=5 dy=0 dh=10 dv=0
EndChar

StartChar: uni01D0
Encoding: 459 464 300
Width: 297
GlyphClass: 2
Flags: MW
HStem: 0 21G<76 76 76 221> 491 20G<76 221 221 221> 576 156<-61 216 -61 80>
VStem: 76 145<0 511 0 511>
AnchorPoint: "Anchor-0" 149 0 basechar 0
LayerCount: 2
Fore
SplineSet
216 576 m 1
 80 576 l 1
 -61 732 l 1
 70 732 l 1
 149 669 l 1
 227 732 l 1
 358 732 l 1
 216 576 l 1
76 0 m 1
 76 511 l 1
 221 511 l 1
 221 0 l 1
 76 0 l 1
EndSplineSet
EndChar

StartChar: IJ
Encoding: 460 306 301
Width: 907
GlyphClass: 2
Flags: MW
HStem: -12 147<570.5 617.5 570.5 648.5> 0 21G<80 80 80 232> 680 20G<80 232 232 232 685 838 838 838>
VStem: 80 152<0 700 0 700> 685 153<259 700>
AnchorPoint: "Anchor-0" 625 0 basechar 0
LayerCount: 2
Fore
SplineSet
80 0 m 1x78
 80 700 l 1
 232 700 l 1
 232 0 l 1
 80 0 l 1x78
594 -12 m 0xb8
 494 -12 399 50 352 155 c 1
 486 216 l 1
 513 166 547 135 594 135 c 0
 641 135 685 159 685 259 c 2
 685 700 l 1
 838 700 l 1
 838 248 l 2
 838 45 703 -12 594 -12 c 0xb8
EndSplineSet
Position2: "'cpsp' Capital Spacing in Latin lookup 0 subtable" dx=5 dy=0 dh=10 dv=0
EndChar

StartChar: ij
Encoding: 461 307 302
Width: 594
GlyphClass: 2
Flags: MW
HStem: 0 21G<76 76 76 221 373 373> 491 20G<76 221 221 221 373 518 518 518> 560 165<126 172.5 423 469.5>
VStem: 65 167<620.5 666> 76 145<0 511 0 511> 362 167<620.5 666> 373 145<1 30 30 511>
AnchorPoint: "Anchor-0" 149 0 basechar 0
LayerCount: 2
Fore
SplineSet
149 560 m 0xf4
 103 560 65 598 65 643 c 0
 65 689 103 725 149 725 c 0
 196 725 232 689 232 643 c 0
 232 598 196 560 149 560 c 0xf4
446 560 m 0
 400 560 362 598 362 643 c 0
 362 689 400 725 446 725 c 0
 493 725 529 689 529 643 c 0
 529 598 493 560 446 560 c 0
76 0 m 1xea
 76 511 l 1
 221 511 l 1
 221 0 l 1
 76 0 l 1xea
303 -214 m 1
 228 -97 l 1
 335 -72 373 -50 373 0 c 2
 373 511 l 1
 518 511 l 1
 518 30 l 2
 518 -28 510 -87 467 -132 c 0
 418 -184 354 -202 303 -214 c 1
EndSplineSet
EndChar

StartChar: uni0237
Encoding: 462 567 303
Width: 297
GlyphClass: 2
Flags: MW
HStem: 491 20G<76 221 221 221>
VStem: 76 145<1 30 30 511>
AnchorPoint: "Anchor-0" 149 0 basechar 0
LayerCount: 2
Fore
SplineSet
6 -214 m 1
 -69 -97 l 1
 38 -72 76 -50 76 0 c 2
 76 511 l 1
 221 511 l 1
 221 30 l 2
 221 -28 213 -87 170 -132 c 0
 121 -184 57 -202 6 -214 c 1
EndSplineSet
EndChar

StartChar: Jcircumflex
Encoding: 463 308 304
Width: 565
GlyphClass: 2
Flags: MW
HStem: -12 147<228.5 275.5 228.5 306.5> 680 20G<343 496 496 496> 765 156<210 488 210 488 352 629 352 498>
VStem: 343 153<259 700>
AnchorPoint: "Anchor-0" 283 0 basechar 0
LayerCount: 2
Fore
SplineSet
498 765 m 1
 420 829 l 1
 341 765 l 1
 210 765 l 1
 352 921 l 1
 488 921 l 1
 629 765 l 1
 498 765 l 1
252 -12 m 0
 152 -12 57 50 10 155 c 1
 144 216 l 1
 171 166 205 135 252 135 c 0
 299 135 343 159 343 259 c 2
 343 700 l 1
 496 700 l 1
 496 248 l 2
 496 45 361 -12 252 -12 c 0
EndSplineSet
Position2: "'cpsp' Capital Spacing in Latin lookup 0 subtable" dx=5 dy=0 dh=10 dv=0
EndChar

StartChar: jcircumflex
Encoding: 464 309 305
Width: 297
GlyphClass: 2
Flags: MW
HStem: 491 20G<76 221 221 221> 576 156<-61 217 -61 217 81 358 81 227>
VStem: 76 145<1 30 30 511>
AnchorPoint: "Anchor-0" 149 0 basechar 0
LayerCount: 2
Fore
SplineSet
227 576 m 1
 149 640 l 1
 70 576 l 1
 -61 576 l 1
 81 732 l 1
 217 732 l 1
 358 576 l 1
 227 576 l 1
6 -214 m 1
 -69 -97 l 1
 38 -72 76 -50 76 0 c 2
 76 511 l 1
 221 511 l 1
 221 30 l 2
 221 -28 213 -87 170 -132 c 0
 121 -184 57 -202 6 -214 c 1
EndSplineSet
EndChar

StartChar: Jacute
Encoding: 465 -1 306
Width: 565
GlyphClass: 2
Flags: MW
HStem: -12 147<228.5 275.5 228.5 306.5> 680 20G<343 496 496 496> 765 156<279 594 279 594>
VStem: 343 153<259 700>
AnchorPoint: "Anchor-0" 283 0 basechar 0
LayerCount: 2
Fore
SplineSet
279 765 m 1
 421 921 l 1
 594 921 l 1
 416 765 l 1
 279 765 l 1
252 -12 m 0
 152 -12 57 50 10 155 c 1
 144 216 l 1
 171 166 205 135 252 135 c 0
 299 135 343 159 343 259 c 2
 343 700 l 1
 496 700 l 1
 496 248 l 2
 496 45 361 -12 252 -12 c 0
EndSplineSet
EndChar

StartChar: jacute
Encoding: 466 -1 307
Width: 297
GlyphClass: 2
Flags: MW
HStem: 491 20G<76 221 221 221> 576 156<31 346 31 346>
VStem: 76 145<1 30 30 511>
AnchorPoint: "Anchor-0" 149 0 basechar 0
LayerCount: 2
Fore
SplineSet
31 576 m 1
 173 732 l 1
 346 732 l 1
 168 576 l 1
 31 576 l 1
6 -214 m 1
 -69 -97 l 1
 38 -72 76 -50 76 0 c 2
 76 511 l 1
 221 511 l 1
 221 30 l 2
 221 -28 213 -87 170 -132 c 0
 121 -184 57 -202 6 -214 c 1
EndSplineSet
EndChar

StartChar: Kcommaaccent
Encoding: 467 310 308
Width: 733
GlyphClass: 2
Flags: MW
HStem: -258 21G<300 300> -182 152 0 21G<75 227 75 75 531 709 531 531> 680 20G<75 227 227 227 489 672 672 672>
VStem: 75 152<0 152 369 700> 285 162<-131.5 -88.5 -148.5 -87>
AnchorPoint: "Anchor-0" 366 -291 basechar 0
LayerCount: 2
Fore
SplineSet
531 0 m 1
 360 318 l 1
 227 152 l 1
 227 0 l 1
 75 0 l 1
 75 700 l 1
 227 700 l 1
 227 369 l 1
 489 700 l 1
 672 700 l 1
 463 446 l 1
 709 0 l 1
 531 0 l 1
300 -258 m 1
 327 -230 342 -210 350 -182 c 1
 317 -180 285 -154 285 -109 c 0
 285 -65 318 -30 367 -30 c 0
 414 -30 447 -60 447 -117 c 0xfc
 447 -180 412 -240 351 -291 c 1
 300 -258 l 1
EndSplineSet
Position2: "'cpsp' Capital Spacing in Latin lookup 0 subtable" dx=5 dy=0 dh=10 dv=0
EndChar

StartChar: kcommaaccent
Encoding: 468 311 309
Width: 575
GlyphClass: 2
Flags: MW
HStem: -258 21G<220 220> -182 152 0 21G<75 220 75 75 393 551 393 393> 360 151<365 365> 491 20G<349 521 521 521>
VStem: 75 145<0 222 383 654 654 654> 205 162<-131.5 -88.5 -148.5 -87>
AnchorPoint: "Anchor-0" 286 -291 basechar 0
LayerCount: 2
Fore
SplineSet
551 0 m 1xac
 393 0 l 1
 258 257 l 1
 220 222 l 1
 220 0 l 1
 75 0 l 1
 75 654 l 1
 220 722 l 1
 220 383 l 1
 349 511 l 1
 521 511 l 1
 365 360 l 1xb4
 551 0 l 1xac
220 -258 m 1
 247 -230 262 -210 270 -182 c 1
 237 -180 205 -154 205 -109 c 0
 205 -65 238 -30 287 -30 c 0
 334 -30 367 -60 367 -117 c 0
 367 -180 332 -240 271 -291 c 1xea
 220 -258 l 1
EndSplineSet
EndChar

StartChar: kgreenlandic
Encoding: 469 312 310
Width: 550
Flags: MW
HStem: 0 21G<75 220 75 75 367 526 367 367> 491 20G<75 220 220 220 351 507 507 507>
VStem: 75 145<0 160 347 511>
LayerCount: 2
Fore
SplineSet
367 0 m 1
 257 204 l 1
 220 160 l 1
 220 0 l 1
 75 0 l 1
 75 511 l 1
 220 511 l 1
 220 347 l 1
 351 511 l 1
 507 511 l 1
 352 320 l 1
 526 0 l 1
 367 0 l 1
EndSplineSet
EndChar

StartChar: Lacute
Encoding: 470 313 311
Width: 570
GlyphClass: 2
Flags: MW
HStem: 0 147<227 563 227 563> 680 20G<75 227 227 227> 765 156<46 361 46 361>
VStem: 75 152<147 700 147 700 147 700>
AnchorPoint: "Anchor-0" 315 0 basechar 0
LayerCount: 2
Fore
SplineSet
46 765 m 1
 188 921 l 1
 361 921 l 1
 183 765 l 1
 46 765 l 1
75 0 m 1
 75 700 l 1
 227 700 l 1
 227 147 l 1
 563 147 l 1
 563 0 l 1
 75 0 l 1
EndSplineSet
Position2: "'cpsp' Capital Spacing in Latin lookup 0 subtable" dx=5 dy=0 dh=10 dv=0
EndChar

StartChar: lacute
Encoding: 471 314 312
Width: 305
GlyphClass: 2
Flags: MW
HStem: 0 21G<80 80 80 225> 756 156<12 327 12 327>
VStem: 80 145<0 654 654 654>
AnchorPoint: "Anchor-0" 153 0 basechar 0
LayerCount: 2
Fore
SplineSet
12 756 m 1
 154 912 l 1
 327 912 l 1
 149 756 l 1
 12 756 l 1
80 0 m 1
 80 654 l 1
 225 722 l 1
 225 0 l 1
 80 0 l 1
EndSplineSet
EndChar

StartChar: Lcommaaccent
Encoding: 472 315 313
Width: 570
GlyphClass: 2
Flags: MW
HStem: -258 21G<247 247> -182 152 0 147<227 563 227 563> 680 20G<75 227 227 227>
VStem: 75 152<147 700 147 700 147 700> 232 162<-131.5 -88.5 -148.5 -87>
AnchorPoint: "Anchor-0" 313 -291 basechar 0
LayerCount: 2
Fore
SplineSet
75 0 m 1
 75 700 l 1
 227 700 l 1
 227 147 l 1
 563 147 l 1
 563 0 l 1
 75 0 l 1
247 -258 m 1
 274 -230 289 -210 297 -182 c 1
 264 -180 232 -154 232 -109 c 0
 232 -65 265 -30 314 -30 c 0
 361 -30 394 -60 394 -117 c 0
 394 -180 359 -240 298 -291 c 1xf4
 247 -258 l 1
EndSplineSet
Position2: "'cpsp' Capital Spacing in Latin lookup 0 subtable" dx=5 dy=0 dh=10 dv=0
EndChar

StartChar: lcommaaccent
Encoding: 473 316 314
Width: 305
GlyphClass: 2
Flags: MW
HStem: -258 21G<85 85> -182 152 0 21G<80 80 80 225>
VStem: 80 145<0 654 654 654>
AnchorPoint: "Anchor-0" 151 -291 basechar 0
LayerCount: 2
Fore
SplineSet
80 0 m 1
 80 654 l 1
 225 722 l 1
 225 0 l 1
 80 0 l 1
85 -258 m 1
 112 -230 127 -210 135 -182 c 1
 102 -180 70 -154 70 -109 c 0
 70 -65 103 -30 152 -30 c 0
 199 -30 232 -60 232 -117 c 0xf0
 232 -180 197 -240 136 -291 c 1
 85 -258 l 1
EndSplineSet
EndChar

StartChar: Lcaron
Encoding: 474 317 315
Width: 570
GlyphClass: 2
Flags: MW
HStem: 0 147<227 563 227 563> 680 20G<75 227 227 227> 765 156<-61 216 -61 80>
VStem: 75 152<147 700 147 700 147 700>
AnchorPoint: "Anchor-0" 315 0 basechar 0
LayerCount: 2
Fore
SplineSet
216 765 m 1
 80 765 l 1
 -61 921 l 1
 70 921 l 1
 149 858 l 1
 227 921 l 1
 358 921 l 1
 216 765 l 1
75 0 m 1
 75 700 l 1
 227 700 l 1
 227 147 l 1
 563 147 l 1
 563 0 l 1
 75 0 l 1
EndSplineSet
Position2: "'cpsp' Capital Spacing in Latin lookup 0 subtable" dx=5 dy=0 dh=10 dv=0
EndChar

StartChar: lcaron
Encoding: 475 318 316
Width: 461
GlyphClass: 2
Flags: MW
HStem: 0 21G<80 80 80 225> 692 20G<304 436 436 436>
VStem: 80 145<0 654 654 654> 304 132<662 704 704 712>
AnchorPoint: "Anchor-0" 153 0 basechar 0
LayerCount: 2
Fore
SplineSet
80 0 m 1
 80 654 l 1
 225 722 l 1
 225 0 l 1
 80 0 l 1
436 712 m 1
 436 704 l 2
 436 585 386 508 319 446 c 1
 272 482 l 1
 290 517 304 612 304 712 c 1
 436 712 l 1
EndSplineSet
EndChar

StartChar: Ldot
Encoding: 476 319 317
Width: 570
GlyphClass: 2
Flags: MW
HStem: 0 147<227 563 227 563> 262 175<404.5 455.5> 680 20G<75 227 227 227>
VStem: 75 152<147 700 147 700 147 700> 341 180<325 373>
AnchorPoint: "Anchor-0" 315 0 basechar 0
LayerCount: 2
Fore
SplineSet
75 0 m 1
 75 700 l 1
 227 700 l 1
 227 147 l 1
 563 147 l 1
 563 0 l 1
 75 0 l 1
430 262 m 0
 379 262 341 301 341 349 c 0
 341 397 379 437 430 437 c 0
 481 437 521 397 521 349 c 0
 521 301 481 262 430 262 c 0
EndSplineSet
Ligature2: "Ligature Substitution lookup 20 subtable" L periodcentered
Position2: "'cpsp' Capital Spacing in Latin lookup 0 subtable" dx=5 dy=0 dh=10 dv=0
EndChar

StartChar: ldot
Encoding: 477 320 318
Width: 437
GlyphClass: 2
Flags: MW
HStem: 0 21G<80 80 80 225> 229 175<347.5 398.5>
VStem: 80 145<0 654 654 654> 284 180<292 340>
AnchorPoint: "Anchor-0" 153 0 basechar 0
LayerCount: 2
Fore
SplineSet
80 0 m 1
 80 654 l 1
 225 722 l 1
 225 0 l 1
 80 0 l 1
373 229 m 0
 322 229 284 268 284 316 c 0
 284 364 322 404 373 404 c 0
 424 404 464 364 464 316 c 0
 464 268 424 229 373 229 c 0
EndSplineSet
Ligature2: "Ligature Substitution lookup 20 subtable" l periodcentered
EndChar

StartChar: Nacute
Encoding: 478 323 319
Width: 723
GlyphClass: 2
Flags: MW
HStem: 0 21G<75 225 75 75 516 649 516 516> 680 20G<75 214 214 214 497 649 649 649> 766 156<275 590 275 590>
VStem: 75 150<0 371 0 700> 497 152<334 700>
AnchorPoint: "Anchor-0" 361 0 basechar 0
LayerCount: 2
Fore
SplineSet
275 766 m 1
 417 922 l 1
 590 922 l 1
 412 766 l 1
 275 766 l 1
649 0 m 1
 516 0 l 1
 252 371 l 2
 245 380 230 408 222 424 c 1
 225 407 225 384 225 371 c 2
 225 0 l 1
 75 0 l 1
 75 700 l 1
 214 700 l 1
 471 333 l 2
 478 323 494 296 500 281 c 1
 498 295 497 323 497 334 c 2
 497 700 l 1
 649 700 l 1
 649 0 l 1
EndSplineSet
Position2: "'cpsp' Capital Spacing in Latin lookup 0 subtable" dx=5 dy=0 dh=10 dv=0
EndChar

StartChar: nacute
Encoding: 479 324 320
Width: 606
GlyphClass: 2
Flags: MW
HStem: 0 21G<75 220 75 75 391 536 391 391> 383 128<75 340> 383 140<328 340> 576 156<169 484 169 484>
VStem: 75 145<0 268 464 511> 391 145<0 266 266 306.5>
AnchorPoint: "Anchor-0" 304 0 basechar 0
LayerCount: 2
Fore
SplineSet
169 576 m 1xdc
 311 732 l 1
 484 732 l 1
 306 576 l 1
 169 576 l 1xdc
391 0 m 1
 391 266 l 2
 391 347 370 383 310 383 c 0
 246 383 220 345 220 268 c 2
 220 0 l 1
 75 0 l 1
 75 511 l 1
 220 511 l 1xdc
 220 464 l 1
 251 501 297 523 359 523 c 0xbc
 437 523 536 481 536 332 c 2
 536 0 l 1
 391 0 l 1
EndSplineSet
EndChar

StartChar: Ncommaaccent
Encoding: 480 325 321
Width: 723
GlyphClass: 2
Flags: MW
HStem: -258 21G<293 293> -182 152 0 21G<75 225 75 75 516 649 516 516> 680 20G<75 214 214 214 497 649 649 649>
VStem: 75 150<0 371 0 700> 278 162<-131.5 -88.5 -148.5 -87> 497 152<334 700>
AnchorPoint: "Anchor-0" 359 -291 basechar 0
LayerCount: 2
Fore
SplineSet
649 0 m 1
 516 0 l 1
 252 371 l 2
 245 380 230 408 222 424 c 1
 225 407 225 384 225 371 c 2
 225 0 l 1
 75 0 l 1
 75 700 l 1
 214 700 l 1
 471 333 l 2
 478 323 494 296 500 281 c 1
 498 295 497 323 497 334 c 2
 497 700 l 1
 649 700 l 1
 649 0 l 1
293 -258 m 1
 320 -230 335 -210 343 -182 c 1
 310 -180 278 -154 278 -109 c 0
 278 -65 311 -30 360 -30 c 0
 407 -30 440 -60 440 -117 c 0xfe
 440 -180 405 -240 344 -291 c 1
 293 -258 l 1
EndSplineSet
Position2: "'cpsp' Capital Spacing in Latin lookup 0 subtable" dx=5 dy=0 dh=10 dv=0
EndChar

